<svg width="64" height="64" viewBox="0 0 64 64" fill="none" xmlns="http://www.w3.org/2000/svg">
<path fill-rule="evenodd" clip-rule="evenodd" d="M10.566 28.7632C23.9466 22.9522 32.8543 19.091 37.3272 17.2177C50.0579 11.9037 52.7341 10.9861 54.4544 10.9479C54.8367 10.9479 55.6778 11.0244 56.2512 11.4831C56.71 11.8654 56.8247 12.3624 56.9012 12.7447C56.9776 13.127 57.0541 13.9299 56.9776 14.5416C56.2895 21.8053 53.3075 39.4295 51.7783 47.5343C51.1284 50.9751 49.8668 52.122 48.6434 52.2367C45.9673 52.4661 43.9411 50.4781 41.3796 48.7959C37.3272 46.1581 35.0716 44.5141 31.1339 41.9145C26.5845 38.9325 29.5282 37.2886 32.1279 34.6125C32.816 33.9243 44.5528 23.2198 44.7821 22.2641C44.8204 22.1494 44.8204 21.6906 44.5528 21.4613C44.2851 21.2319 43.9028 21.3083 43.597 21.3848C43.1765 21.4613 36.7538 25.743 24.2524 34.192C22.4174 35.4536 20.7735 36.0652 19.2825 36.027C17.6386 35.9888 14.5037 35.1095 12.1334 34.3449C9.26615 33.4273 6.97233 32.9304 7.16348 31.3247C7.27817 30.4836 8.42508 29.6425 10.566 28.7632Z" fill="#8B6DCA"/>
</svg>
