<svg width="64" height="64" viewBox="0 0 64 64" fill="none" xmlns="http://www.w3.org/2000/svg">
<path d="M51.4396 14.3654C47.8172 12.6864 43.9438 11.4662 39.8944 10.7714C39.3971 11.6621 38.8161 12.8601 38.4155 13.8131C34.1108 13.1718 29.8457 13.1718 25.6202 13.8131C25.2197 12.8601 24.6255 11.6621 24.1237 10.7714C20.0699 11.4662 16.1922 12.6909 12.5697 14.3743C5.26314 25.3118 3.28245 35.9777 4.2728 46.4921C9.11889 50.077 13.8153 52.2548 18.4325 53.6799C19.5725 52.1256 20.5893 50.4734 21.4652 48.7321C19.797 48.1042 18.1992 47.3293 16.6896 46.4298C17.0901 46.1358 17.4818 45.8285 17.8603 45.5123C27.0683 49.7787 37.073 49.7787 46.171 45.5123C46.5539 45.8285 46.9456 46.1358 47.3418 46.4298C45.8276 47.3337 44.2255 48.1086 42.5574 48.7366C43.4333 50.4734 44.4456 52.1301 45.59 53.6843C50.2116 52.2592 54.9124 50.0815 59.7585 46.4921C60.9206 34.3032 57.7735 23.7353 51.4396 14.3654ZM22.7196 40.0258C19.9555 40.0258 17.6886 37.4695 17.6886 34.3566C17.6886 31.2437 19.9071 28.683 22.7196 28.683C25.5322 28.683 27.799 31.2392 27.7506 34.3566C27.755 37.4695 25.5322 40.0258 22.7196 40.0258ZM41.3117 40.0258C38.5476 40.0258 36.2808 37.4695 36.2808 34.3566C36.2808 31.2437 38.4991 28.683 41.3117 28.683C44.1243 28.683 46.3911 31.2392 46.3427 34.3566C46.3427 37.4695 44.1243 40.0258 41.3117 40.0258Z" fill="#8B6DCA"/>
</svg>
