<svg width="20" height="20" viewBox="0 0 20 20" fill="none" xmlns="http://www.w3.org/2000/svg">
<path d="M8.77395 5.38975C8.52879 5.14677 8.13306 5.14853 7.89008 5.3937C7.64709 5.63886 7.64885 6.03459 7.89402 6.27757L9.36316 7.73366C9.9594 8.32461 10.3684 8.73131 10.6452 9.07592C10.914 9.41066 11.0062 9.62568 11.0308 9.81824C11.0462 9.93916 11.0462 10.0615 11.0308 10.1824C11.0062 10.375 10.914 10.59 10.6452 10.9247C10.3684 11.2693 9.9594 11.676 9.36316 12.267L7.89402 13.7231C7.64885 13.9661 7.64709 14.3618 7.89008 14.607C8.13306 14.8521 8.52879 14.8539 8.77395 14.6109L10.2696 13.1286C10.8329 12.5703 11.2933 12.114 11.6198 11.7074C11.9593 11.2847 12.2051 10.8556 12.2707 10.3405C12.2995 10.1146 12.2995 9.88605 12.2707 9.66019C12.2051 9.1451 11.9593 8.71598 11.6198 8.29321C11.2933 7.88665 10.8329 7.43036 10.2696 6.87208L8.77395 5.38975Z" fill="#7B8293"/>
</svg>
