<svg width="20" height="20" viewBox="0 0 20 20" fill="none" xmlns="http://www.w3.org/2000/svg">
<path d="M16.2756 4.60893C16.5197 4.36486 16.5197 3.96913 16.2756 3.72505C16.0315 3.48097 15.6358 3.48097 15.3917 3.72505L10.0003 9.11645L4.60893 3.72505C4.36486 3.48098 3.96913 3.48098 3.72505 3.72505C3.48097 3.96913 3.48097 4.36486 3.72505 4.60894L9.11645 10.0003L3.72507 15.3917C3.481 15.6358 3.481 16.0315 3.72507 16.2756C3.96915 16.5197 4.36488 16.5197 4.60896 16.2756L10.0003 10.8842L15.3917 16.2756C15.6358 16.5197 16.0315 16.5197 16.2756 16.2756C16.5197 16.0315 16.5197 15.6358 16.2756 15.3917L10.8842 10.0003L16.2756 4.60893Z" fill="#CA6D6D"/>
</svg>
