<svg width="20" height="20" viewBox="0 0 20 20" fill="none" xmlns="http://www.w3.org/2000/svg">
<path fill-rule="evenodd" clip-rule="evenodd" d="M4.22602 7.50033C6.12067 4.21869 7.068 2.57787 8.30479 2.02722C9.38356 1.54692 10.6155 1.54692 11.6943 2.02722C12.931 2.57787 13.8784 4.21869 15.773 7.50033C17.6677 10.782 18.615 12.4228 18.4735 13.7692C18.3501 14.9436 17.7341 16.0105 16.7788 16.7046C15.6835 17.5003 13.7888 17.5003 9.99952 17.5003C6.21021 17.5003 4.31556 17.5003 3.22029 16.7046C2.26494 16.0105 1.64899 14.9436 1.52555 13.7692C1.38404 12.4228 2.33136 10.782 4.22602 7.50033ZM9.99947 5.20866C10.3446 5.20866 10.6245 5.48848 10.6245 5.83366V10.8337C10.6245 11.1788 10.3446 11.4587 9.99947 11.4587C9.65429 11.4587 9.37447 11.1788 9.37447 10.8337V5.83366C9.37447 5.48848 9.65429 5.20866 9.99947 5.20866ZM9.99947 14.167C10.4597 14.167 10.8328 13.7939 10.8328 13.3337C10.8328 12.8734 10.4597 12.5003 9.99947 12.5003C9.53923 12.5003 9.16614 12.8734 9.16614 13.3337C9.16614 13.7939 9.53923 14.167 9.99947 14.167Z" fill="#CAC86D"/>
</svg>
