<svg width="20" height="20" viewBox="0 0 20 20" fill="none" xmlns="http://www.w3.org/2000/svg">
<path fill-rule="evenodd" clip-rule="evenodd" d="M8.26795 2.14205C9.33975 1.50734 10.6603 1.50734 11.732 2.14205L15.7679 4.53212C16.8397 5.16684 17.5 6.33985 17.5 7.60929V12.3894C17.5 13.6589 16.8397 14.8319 15.7679 15.4666L11.732 17.8566C10.6603 18.4914 9.33975 18.4914 8.26795 17.8566L4.23205 15.4666C3.16025 14.8319 2.5 13.6589 2.5 12.3894V7.60929C2.5 6.33985 3.16025 5.16684 4.23205 4.53212L8.26795 2.14205ZM10.8333 5.83268C10.8333 6.29292 10.4602 6.66602 10 6.66602C9.53976 6.66602 9.16667 6.29292 9.16667 5.83268C9.16667 5.37244 9.53976 4.99935 10 4.99935C10.4602 4.99935 10.8333 5.37244 10.8333 5.83268ZM9.16667 7.70768C8.82149 7.70768 8.54167 7.9875 8.54167 8.33268C8.54167 8.67786 8.82149 8.95768 9.16667 8.95768H9.375V14.166C9.375 14.5112 9.65482 14.791 10 14.791C10.3452 14.791 10.625 14.5112 10.625 14.166V8.33268C10.625 7.9875 10.3452 7.70768 10 7.70768H9.16667Z" fill="#E9E3F6"/>
</svg>
