<svg width="20" height="20" viewBox="0 0 20 20" fill="none" xmlns="http://www.w3.org/2000/svg">
<path fill-rule="evenodd" clip-rule="evenodd" d="M17.0459 3.94203C17.5 4.83333 17.5 6.00011 17.5 8.33366V10.5827C17.5 10.8157 17.5 10.9322 17.4953 11.0307C17.3937 13.177 15.6767 14.8941 13.5304 14.9957C13.4319 15.0003 13.3019 15.0003 13.042 15.0003L12.9753 15.0004C12.1251 15.0059 11.2969 15.2713 10.6019 15.761L10.5577 15.7925L8.38207 17.3465C7.63625 17.8792 6.65619 17.1099 6.99658 16.2589C7.23771 15.6561 6.79376 15.0003 6.14451 15.0003H5.64305C3.90719 15.0003 2.5 13.5931 2.5 11.8573V8.33366C2.5 6.00011 2.5 4.83333 2.95414 3.94203C3.35361 3.15802 3.99103 2.5206 4.77504 2.12113C5.66634 1.66699 6.83311 1.66699 9.16667 1.66699H10.8333C13.1669 1.66699 14.3337 1.66699 15.225 2.12113C16.009 2.5206 16.6464 3.15802 17.0459 3.94203ZM6.66667 7.29199H10C10.3452 7.29199 10.625 7.01217 10.625 6.66699C10.625 6.32181 10.3452 6.04199 10 6.04199L6.66667 6.04199C6.32149 6.04199 6.04167 6.32181 6.04167 6.66699C6.04167 7.01217 6.32149 7.29199 6.66667 7.29199ZM6.66667 9.37533C6.32149 9.37533 6.04167 9.65515 6.04167 10.0003C6.04167 10.3455 6.32149 10.6253 6.66667 10.6253H13.3333C13.6785 10.6253 13.9583 10.3455 13.9583 10.0003C13.9583 9.65515 13.6785 9.37533 13.3333 9.37533H6.66667Z" fill="#79CA6D"/>
</svg>
