<svg width="20" height="20" viewBox="0 0 20 20" fill="none" xmlns="http://www.w3.org/2000/svg">
<path d="M8.361 2.7265C9.03157 1.31382 10.9691 1.31382 11.6396 2.7265L12.7986 5.16797C13.0649 5.72895 13.5796 6.11777 14.175 6.20773L16.7664 6.59924C18.2659 6.82577 18.8646 8.74161 17.7796 9.84123L15.9044 11.7417C15.4736 12.1783 15.277 12.8074 15.3787 13.424L15.8213 16.1074C16.0775 17.6601 14.51 18.8442 13.1689 18.1111L10.851 16.8442C10.3184 16.5531 9.6822 16.5531 9.14964 16.8442L6.83179 18.1111C5.49065 18.8442 3.92318 17.6601 4.17931 16.1075L4.62198 13.424C4.72369 12.8074 4.52709 12.1783 4.09623 11.7417L2.22105 9.84123C1.13605 8.74161 1.73477 6.82577 3.23421 6.59924L5.82564 6.20773C6.42107 6.11777 6.9358 5.72895 7.20208 5.16797L8.361 2.7265Z" fill="#79CA6D"/>
</svg>
