<svg width="20" height="20" viewBox="0 0 20 20" fill="none" xmlns="http://www.w3.org/2000/svg">
<path d="M17.1465 6.23412C17.3675 5.96894 17.3316 5.57484 17.0665 5.35386C16.8013 5.13288 16.4072 5.16871 16.1862 5.43388L11.694 10.8246C10.7916 11.9074 10.1568 12.6668 9.60626 13.164C9.06852 13.6495 8.69741 13.8039 8.33302 13.8039C7.96864 13.8039 7.59753 13.6495 7.05978 13.164C6.5092 12.6668 5.87442 11.9074 4.97206 10.8246L3.81316 9.43389C3.59218 9.16871 3.19808 9.13288 2.93291 9.35386C2.66774 9.57484 2.63191 9.96894 2.85289 10.2341L4.04394 11.6634C4.90667 12.6987 5.59757 13.5278 6.22204 14.0917C6.86709 14.6742 7.52647 15.0539 8.33302 15.0539C9.13958 15.0539 9.79896 14.6742 10.444 14.0917C11.0685 13.5278 11.7594 12.6987 12.6221 11.6634L17.1465 6.23412Z" fill="#6DCAC5"/>
</svg>
