<svg width="20" height="20" viewBox="0 0 20 20" fill="none" xmlns="http://www.w3.org/2000/svg">
<path fill-rule="evenodd" clip-rule="evenodd" d="M9.76248 0.858434C9.92079 0.850574 10.0794 0.850574 10.2377 0.858434C10.8488 0.888776 11.4115 1.06635 12.0387 1.35741C12.6493 1.64076 13.3588 2.0504 14.2564 2.56864L14.3073 2.59802C15.2049 3.11628 15.9145 3.52592 16.4652 3.91304C17.0308 4.3107 17.4659 4.70917 17.7978 5.22325C17.8837 5.35642 17.963 5.49377 18.0354 5.6348C18.3147 6.17923 18.4422 6.75527 18.5038 7.44399C18.5637 8.11446 18.5637 8.93374 18.5637 9.97022V10.029C18.5637 11.0655 18.5637 11.8848 18.5038 12.5552C18.4422 13.244 18.3147 13.82 18.0354 14.3644C17.963 14.5055 17.8837 14.6428 17.7978 14.776C17.4659 15.2901 17.0308 15.6885 16.4652 16.0862C15.9145 16.4733 15.2049 16.883 14.3073 17.4012L14.2565 17.4306C13.3588 17.9488 12.6493 18.3585 12.0387 18.6418C11.4115 18.9329 10.8488 19.1105 10.2377 19.1408C10.0794 19.1487 9.92079 19.1487 9.76248 19.1408C9.15135 19.1105 8.58871 18.9329 7.9615 18.6418C7.3509 18.3585 6.64139 17.9488 5.74377 17.4306L5.69284 17.4012C4.79527 16.883 4.08568 16.4733 3.53502 16.0862C2.96934 15.6885 2.53424 15.2901 2.20239 14.776C2.11643 14.6428 2.03713 14.5055 1.96479 14.3644C1.6855 13.82 1.55796 13.244 1.49642 12.5553C1.43651 11.8848 1.43652 11.0655 1.43652 10.029V9.97027C1.43652 8.93376 1.43651 8.11447 1.49642 7.44399C1.55796 6.75528 1.6855 6.17923 1.96479 5.6348C2.03713 5.49377 2.11643 5.35642 2.20239 5.22325C2.53424 4.70917 2.96934 4.3107 3.53502 3.91305C4.08571 3.52592 4.79524 3.11628 5.69289 2.59803L5.74371 2.56869C6.64135 2.05043 7.35089 1.64077 7.9615 1.35741C8.58871 1.06635 9.15135 0.888776 9.76248 0.858434ZM14.7279 7.89392C14.8799 7.58402 14.7519 7.20956 14.442 7.05754C14.1321 6.90553 13.7576 7.03352 13.6056 7.34342L12.3887 9.8243C12.0115 10.5933 10.9028 10.5557 10.5785 9.76298C9.8459 7.9721 7.34135 7.88726 6.48921 9.62445L5.27227 12.1053C5.12025 12.4152 5.24824 12.7897 5.55814 12.9417C5.86805 13.0937 6.2425 12.9657 6.39452 12.6558L7.61146 10.1749C7.98866 9.40599 9.0973 9.44354 9.42159 10.2363C10.1542 12.0271 12.6588 12.112 13.5109 10.3748L14.7279 7.89392Z" fill="#8B6DCA"/>
</svg>
