<?xml version="1.0" encoding="UTF-8"?>
<svg version="1.1" xmlns="http://www.w3.org/2000/svg" width="512" height="512">
<path d="M0 0 C1.15202911 -0.01007584 1.15202911 -0.01007584 2.32733154 -0.02035522 C4.86444589 -0.03933992 7.40129562 -0.04326002 9.93847656 -0.04541016 C11.70721545 -0.05183915 13.47595328 -0.05856759 15.24468994 -0.06558228 C18.95351627 -0.0775572 22.66224945 -0.08126302 26.37109375 -0.08007812 C31.11003885 -0.07987524 35.84838219 -0.10714449 40.58718491 -0.14162254 C44.24190988 -0.16392888 47.89649109 -0.16791448 51.55127716 -0.16685867 C53.29748859 -0.16921027 55.04370424 -0.17800887 56.78984833 -0.19352341 C59.24052731 -0.21325398 61.68992265 -0.20731794 64.140625 -0.1953125 C64.8536377 -0.20655151 65.56665039 -0.21779053 66.30126953 -0.22937012 C72.22372858 -0.15612851 77.44755015 1.63817877 81.86303329 5.70244789 C86.33091852 10.78504813 87.6597671 16.20673704 88.83691406 22.70849609 C88.96726044 23.40695145 89.09760681 24.1054068 89.23190308 24.82502747 C89.50483461 26.29281701 89.77531117 27.76106497 90.04345703 29.22973633 C90.45485629 31.48215948 90.8737444 33.73309061 91.29394531 35.98388672 C91.55870351 37.4128426 91.82304126 38.84187645 92.08691406 40.27099609 C92.21188263 40.94494919 92.3368512 41.61890228 92.46560669 42.3132782 C93.32910156 47.05637972 93.32910156 47.05637972 93.32910156 49.29052734 C93.98031982 49.44835693 94.63153809 49.60618652 95.30249023 49.76879883 C102.72707258 51.66817175 109.61411204 54.31852998 116.64160156 57.35302734 C118.72021077 58.24166163 120.79961407 59.1284412 122.87988281 60.01318359 C123.78391846 60.40256104 124.6879541 60.79193848 125.61938477 61.19311523 C126.51359131 61.55526123 127.40779785 61.91740723 128.32910156 62.29052734 C129.32288818 62.73203125 130.3166748 63.17353516 131.34057617 63.62841797 C134.33082056 64.60029412 134.33082056 64.60029412 136.96289062 63.12817383 C137.83139648 62.47921143 138.69990234 61.83024902 139.59472656 61.16162109 C140.56796875 60.45585938 141.54121094 59.75009766 142.54394531 59.02294922 C144.04634766 57.88696289 144.04634766 57.88696289 145.57910156 56.72802734 C165.06796739 42.29607638 165.06796739 42.29607638 174.18457031 42.95068359 C186.8376858 44.95582211 195.16725189 55.97008363 203.87988281 64.60302734 C204.74171677 65.45678955 205.60355072 66.31055176 206.49150085 67.19018555 C208.29534314 68.98031223 210.09772229 70.77191437 211.89868164 72.56494141 C213.73180467 74.38647995 215.56940248 76.20352597 217.41137695 78.01611328 C220.09828735 80.66029094 222.77164053 83.3175315 225.44238281 85.97802734 C226.26015701 86.77829346 227.07793121 87.57855957 227.92048645 88.40307617 C235.52913141 96.04069837 240.20717502 103.08380859 240.65722656 113.99755859 C239.78199965 120.1137276 236.5360059 124.68410809 232.76660156 129.41552734 C232.33766602 129.96466797 231.90873047 130.51380859 231.46679688 131.07958984 C229.15012378 134.04062445 226.78321547 136.95421489 224.37988281 139.84521484 C223.91074463 140.42255371 223.44160645 140.99989258 222.95825195 141.59472656 C222.05492357 142.70545748 221.136509 143.80412616 220.2019043 144.88867188 C218.78532773 146.56084475 218.78532773 146.56084475 217.32910156 149.29052734 C217.71988011 151.83491879 217.71988011 151.83491879 219.32910156 154.29052734 C219.91304688 155.44423828 220.49699219 156.59794922 221.09863281 157.78662109 C221.42798828 158.42132324 221.75734375 159.05602539 222.09667969 159.70996094 C232.32910156 179.47192337 232.32910156 179.47192337 232.32910156 186.29052734 C233.14999268 186.42104492 233.97088379 186.5515625 234.81665039 186.68603516 C237.91757092 187.18441687 241.01669685 187.69258913 244.11499023 188.20703125 C246.09336639 188.53258984 248.07352728 188.84724346 250.05371094 189.16162109 C270.98555413 192.65909363 270.98555413 192.65909363 277.20800781 200.11865234 C280.13621709 205.79142014 280.62272221 211.86159303 280.52783203 218.14013672 C280.52479568 218.87947952 280.52175934 219.61882233 280.51863098 220.38056946 C280.50546331 222.79869687 280.47681406 225.21631099 280.44628906 227.63427734 C280.43024388 229.33003417 280.41455362 231.02579439 280.39920044 232.72155762 C280.36432983 236.26534493 280.32100824 239.80891399 280.27246094 243.35253906 C280.21172933 247.87811204 280.17848753 252.40342589 280.15240288 256.92931366 C280.12808073 260.42808369 280.08585717 263.92647352 280.03866959 267.42500305 C280.01890571 269.09298007 280.00536423 270.76104357 279.99834824 272.42912292 C279.90713494 290.38549158 279.90713494 290.38549158 272.70410156 298.10302734 C265.23574966 303.66679955 254.2165564 304.3623799 245.32910156 305.91552734 C242.91195914 306.34253042 240.49526528 306.77208319 238.07910156 307.20458984 C237.02207031 307.38973145 235.96503906 307.57487305 234.87597656 307.765625 C232.35174009 308.1719314 232.35174009 308.1719314 230.32910156 309.29052734 C229.41464409 311.07758133 229.41464409 311.07758133 228.62988281 313.27099609 C228.31067871 314.09913818 227.99147461 314.92728027 227.66259766 315.78051758 C227.32566895 316.6706958 226.98874023 317.56087402 226.64160156 318.47802734 C223.69795206 326.12810113 220.42122411 333.31237958 216.38378906 340.44287109 C215.04067961 343.18977167 215.04067961 343.18977167 216.03881836 345.64111328 C217.43459971 348.50715286 219.05156824 350.94528666 220.91894531 353.52880859 C221.97178711 355.00704102 221.97178711 355.00704102 223.04589844 356.51513672 C224.51948235 358.5641571 225.99602007 360.61105663 227.47558594 362.65576172 C233.39478987 370.98388091 237.57008063 377.75259133 236.03613281 388.30615234 C232.71808819 402.17707575 214.89656948 414.9416527 205.22119141 424.63867188 C202.56375437 427.30593126 199.9171772 429.98368221 197.27050781 432.66162109 C195.5667384 434.37191192 193.86233384 436.08157032 192.15722656 437.79052734 C191.37478577 438.58531494 190.59234497 439.38010254 189.78619385 440.19897461 C183.41370651 446.54578381 177.42734842 451.2816627 168.14160156 451.60302734 C157.57570433 451.41342723 149.67145518 444.16710914 141.66845703 438.01367188 C139.96469744 436.71176522 138.24259709 435.4377435 136.51660156 434.16552734 C135.47890625 433.37919922 134.44121094 432.59287109 133.37207031 431.78271484 C130.44610947 429.97524283 130.44610947 429.97524283 127.44238281 430.81005859 C126.415 431.29861328 125.38761719 431.78716797 124.32910156 432.29052734 C123.72219482 432.57089844 123.11528809 432.85126953 122.48999023 433.14013672 C120.42381419 434.10331269 118.37701016 435.10165081 116.32910156 436.10302734 C97.19893592 445.29052734 97.19893592 445.29052734 91.32910156 445.29052734 C91.22887695 446.18771484 91.12865234 447.08490234 91.02539062 448.00927734 C90.64227676 451.37303449 90.24555604 454.73462566 89.83984375 458.09570312 C89.66779196 459.54396676 89.50101064 460.99286751 89.33984375 462.44238281 C87.43130761 479.53674047 87.43130761 479.53674047 81.58300781 486.31396484 C81.02484375 486.75998047 80.46667969 487.20599609 79.89160156 487.66552734 C79.33601563 488.12701172 78.78042969 488.58849609 78.20800781 489.06396484 C73.498419 492.13841575 69.15041453 492.58811193 63.63647461 492.58105469 C62.87806274 492.58777191 62.11965088 492.59448914 61.33825684 492.60140991 C58.83904407 492.6203571 56.34010037 492.62431257 53.84082031 492.62646484 C52.0959309 492.63289558 50.35104256 492.63962415 48.6061554 492.64663696 C44.95038352 492.6586019 41.29470608 492.66231865 37.63891602 492.66113281 C32.96837758 492.66092979 28.29844875 492.68821798 23.62805462 492.72267723 C20.02394361 492.74498306 16.41997839 492.74896921 12.81580544 492.74791336 C11.09471348 492.75026431 9.3736172 492.7590592 7.65259361 492.77457809 C5.23794022 492.79431129 2.82458926 492.78837211 0.40991211 492.77636719 C-0.2921788 492.7876062 -0.99426971 492.79884521 -1.71763611 492.8104248 C-7.62718143 492.73626504 -12.83647173 490.89878445 -17.20525074 486.8786068 C-21.58349048 481.89642348 -22.87529988 477.0107837 -23.74121094 470.56396484 C-23.91523438 469.28521484 -24.08925781 468.00646484 -24.26855469 466.68896484 C-24.35508301 466.02864258 -24.44161133 465.36832031 -24.53076172 464.68798828 C-24.79610797 462.66392902 -25.07055651 460.64126689 -25.34667969 458.61865234 C-26.67089844 448.76168571 -26.67089844 448.76168571 -26.67089844 445.29052734 C-27.24412842 445.14719971 -27.8173584 445.00387207 -28.40795898 444.85620117 C-37.12819314 442.4792132 -44.84587734 438.39278323 -52.83300781 434.23388672 C-53.89970703 433.69957031 -54.96640625 433.16525391 -56.06542969 432.61474609 C-57.02296143 432.12063232 -57.98049316 431.62651855 -58.96704102 431.11743164 C-61.64122357 430.04348048 -61.64122357 430.04348048 -64.26660156 430.95263672 C-66.63458278 432.2703192 -68.65021342 433.65623659 -70.74511719 435.37255859 C-71.49599609 435.97519531 -72.246875 436.57783203 -73.02050781 437.19873047 C-74.56162413 438.45402572 -76.100738 439.71178395 -77.63769531 440.97216797 C-84.61848979 446.56274465 -92.17950182 452.30151204 -101.52636719 451.63037109 C-114.27751222 449.60969784 -122.68333904 438.43634692 -131.44042969 429.72412109 C-132.76647469 428.40662621 -132.76647469 428.40662621 -134.11930847 427.06251526 C-135.97015697 425.22103778 -137.81961455 423.37816132 -139.66772461 421.53393555 C-142.48656958 418.7248672 -145.31591276 415.92665202 -148.14550781 413.12841797 C-149.95280578 411.32764516 -151.75946864 409.52623467 -153.56542969 407.72412109 C-154.40507767 406.89681992 -155.24472565 406.06951874 -156.1098175 405.21714783 C-168.27250293 393.00815234 -168.27250293 393.00815234 -168.79248047 384.32202148 C-168.1947888 374.33528975 -161.23513343 366.33868227 -155.54296875 358.58349609 C-150.61997441 352.315453 -150.61997441 352.315453 -148.65600586 344.89819336 C-149.41994308 342.50214708 -150.45557029 340.49185 -151.67089844 338.29052734 C-152.48912515 336.34749186 -153.29155241 334.39775422 -154.08105469 332.44287109 C-155.40807832 329.32011355 -156.74472936 326.20171933 -158.08691406 323.08544922 C-160.44605226 317.52437159 -162.41452761 312.20327817 -163.67089844 306.29052734 C-164.38109131 306.21012207 -165.09128418 306.1297168 -165.82299805 306.046875 C-169.08538138 305.67468349 -172.34687256 305.29515654 -175.60839844 304.91552734 C-176.72537109 304.78919922 -177.84234375 304.66287109 -178.99316406 304.53271484 C-199.6261168 302.11242713 -199.6261168 302.11242713 -206.42089844 294.29052734 C-210.19413317 289.25954771 -210.96929759 285.88243654 -210.96142578 279.61962891 C-210.97150162 278.46759979 -210.97150162 278.46759979 -210.98178101 277.29229736 C-211.0007657 274.75518302 -211.0046858 272.21833329 -211.00683594 269.68115234 C-211.01326493 267.91241345 -211.01999337 266.14367563 -211.02700806 264.37493896 C-211.03898298 260.66611264 -211.0426888 256.95737945 -211.04150391 253.24853516 C-211.04130102 248.50959006 -211.06857027 243.77124672 -211.10304832 239.032444 C-211.12535466 235.37771902 -211.12934026 231.72313781 -211.12828445 228.06835175 C-211.13063606 226.32214032 -211.13943466 224.57592467 -211.15494919 222.82978058 C-211.17467976 220.37910159 -211.16874372 217.92970626 -211.15673828 215.47900391 C-211.1735968 214.40948486 -211.1735968 214.40948486 -211.1907959 213.31835938 C-211.11755429 207.39590032 -209.32324701 202.17207875 -205.25897789 197.75659561 C-200.07511708 193.19969677 -194.86949835 191.98568276 -188.18261719 191.22021484 C-187.12781914 191.09128342 -187.12781914 191.09128342 -186.05171204 190.95974731 C-183.8213252 190.68860158 -181.58994602 190.42692964 -179.35839844 190.16552734 C-177.83944269 189.98255964 -176.32056143 189.79897241 -174.80175781 189.61474609 C-171.09230642 189.16616656 -167.38190552 188.72607221 -163.67089844 188.29052734 C-163.49349121 187.53594238 -163.31608398 186.78135742 -163.13330078 186.00390625 C-161.5376551 179.39633646 -159.68902263 173.02563218 -157.29589844 166.66552734 C-157.01746094 165.89724609 -156.73902344 165.12896484 -156.45214844 164.33740234 C-154.26251992 158.4392138 -151.57252685 152.86945413 -148.67089844 147.29052734 C-149.12940186 146.70674316 -149.58790527 146.12295898 -150.06030273 145.52148438 C-152.16871552 142.82644065 -154.26355939 140.12113321 -156.35839844 137.41552734 C-157.07962891 136.49771484 -157.80085938 135.57990234 -158.54394531 134.63427734 C-170.68922903 118.88422905 -170.68922903 118.88422905 -170.01074219 109.43505859 C-167.99006893 96.68391356 -156.81671802 88.27808674 -148.10449219 79.52099609 C-147.22616226 78.63696609 -146.34783234 77.7529361 -145.44288635 76.84211731 C-143.60140887 74.99126881 -141.75853241 73.14181123 -139.91430664 71.29370117 C-137.10523829 68.4748562 -134.30702312 65.64551302 -131.50878906 62.81591797 C-129.70801625 61.00862 -127.90660577 59.20195714 -126.10449219 57.39599609 C-125.27719101 56.55634811 -124.44988983 55.71670013 -123.59751892 54.85160828 C-112.83045525 44.12538526 -112.83045525 44.12538526 -105.36230469 42.62646484 C-103.81349609 42.64580078 -103.81349609 42.64580078 -102.23339844 42.66552734 C-101.2034375 42.65263672 -100.17347656 42.63974609 -99.11230469 42.62646484 C-90.61915215 44.26532515 -83.93854304 50.1728897 -77.35839844 55.47802734 C-75.80232832 56.72467349 -74.24382218 57.96828652 -72.68261719 59.20849609 C-72.00674561 59.75272217 -71.33087402 60.29694824 -70.63452148 60.85766602 C-68.64942271 62.30619824 -66.99755202 63.48266546 -64.67089844 64.29052734 C-62.64238471 63.7332245 -62.64238471 63.7332245 -60.68652344 62.47412109 C-59.54183594 61.82515869 -59.54183594 61.82515869 -58.37402344 61.16308594 C-57.56449219 60.6895166 -56.75496094 60.21594727 -55.92089844 59.72802734 C-49.64937095 56.23053777 -43.55963313 53.23262903 -36.67089844 51.16552734 C-35.67558105 50.86666626 -35.67558105 50.86666626 -34.66015625 50.56176758 C-31.89579936 49.77727814 -29.55912295 49.29052734 -26.67089844 49.29052734 C-26.59049316 48.51974854 -26.51008789 47.74896973 -26.42724609 46.95483398 C-26.05547043 43.42031347 -25.67574427 39.88668932 -25.29589844 36.35302734 C-25.16957031 35.14066406 -25.04324219 33.92830078 -24.91308594 32.67919922 C-22.61046542 11.43752492 -22.61046542 11.43752492 -14.67089844 4.54052734 C-9.6399188 0.76729262 -6.26280763 -0.0078718 0 0 Z M-72.29589844 144.97802734 C-100.51081822 176.80811358 -113.59117838 216.98035926 -111.67089844 259.29052734 C-109.47931297 288.96163017 -98.21092569 317.99664695 -79.67089844 341.29052734 C-76.49108352 338.21328711 -73.56572201 335.01350009 -70.67089844 331.66552734 C-56.0189278 315.42565841 -37.52658478 304.99699369 -17.71240234 296.20458984 C-16.40217917 295.61795081 -15.10109493 295.010193 -13.81298828 294.37646484 C-9.58451174 292.36279257 -6.3254267 291.80195948 -1.67089844 292.29052734 C1.47753906 293.49755859 1.47753906 293.49755859 4.70410156 295.10302734 C24.62587865 304.33275438 46.37675115 302.3523617 66.70410156 295.60302734 C80.41042811 291.18727041 88.71675605 294.33995505 101.32910156 300.29052734 C101.98104492 300.59522949 102.63298828 300.89993164 103.3046875 301.21386719 C121.42025009 309.84143894 136.37706546 323.0643246 150.32910156 337.29052734 C151.66126582 338.62502873 152.99429899 339.95866487 154.32910156 341.29052734 C171.21702309 319.94607097 181.30466676 295.45594764 188.32910156 269.29052734 C188.55355957 268.47181152 188.77801758 267.6530957 189.00927734 266.80957031 C198.10480555 232.97532226 187.76252192 197.83896044 170.87231445 168.08740234 C151.14130887 134.52524733 117.34993026 109.53371868 79.77978516 99.61767578 C23.81198518 86.16664482 -32.76020951 103.51376822 -72.29589844 144.97802734 Z " fill="white" transform="translate(220.6708984375,9.70947265625)"/>
<path d="M0 0 C11.79919184 10.15053764 20.22754325 25.00374477 21.7890625 40.640625 C22.82320138 58.23945266 19.65988308 74.88799937 7.77563477 88.58520508 C-4.09897696 101.55505787 -18.30084379 109.48738284 -36.02734375 110.95703125 C-53.09868187 111.47434453 -69.63405109 107.00574492 -82.5234375 95.390625 C-95.65269787 82.9551446 -102.00312122 67.48892708 -102.5859375 49.515625 C-102.2972402 32.66928823 -96.51237328 17.26489827 -84.71484375 4.98828125 C-60.71154565 -17.51715113 -26.58875453 -19.53723569 0 0 Z " fill="white" transform="translate(296.2109375,168.359375)"/>
</svg>
