<svg width="20" height="20" viewBox="0 0 20 20" fill="none" xmlns="http://www.w3.org/2000/svg">
<path d="M11.222 4.21731C11.5162 3.92573 11.9911 3.92784 12.2827 4.22204C12.5743 4.51624 12.5722 4.99111 12.278 5.28269L10.515 7.03C9.7995 7.73914 9.30869 8.22718 8.97659 8.64071C8.654 9.0424 8.54332 9.30042 8.51387 9.5315C8.49538 9.67659 8.49538 9.82341 8.51387 9.9685C8.54332 10.1996 8.654 10.4576 8.97659 10.8593C9.30869 11.2728 9.7995 11.7609 10.515 12.47L12.278 14.2173C12.5722 14.5089 12.5743 14.9838 12.2827 15.278C11.9911 15.5722 11.5162 15.5743 11.222 15.2827L9.42731 13.5039C8.75134 12.834 8.19886 12.2864 7.80706 11.7985C7.39963 11.2912 7.10469 10.7763 7.02591 10.1582C6.99136 9.88714 6.99136 9.61286 7.02591 9.34184C7.10469 8.72372 7.39963 8.20878 7.80706 7.70146C8.19886 7.21359 8.75134 6.66604 9.42731 5.99609L11.222 4.21731Z" fill="#7B8293"/>
</svg>
