<svg width="20" height="20" viewBox="0 0 20 20" fill="none" xmlns="http://www.w3.org/2000/svg">
<path d="M8.77362 5.38911C8.52846 5.14612 8.13274 5.14789 7.88975 5.39305C7.64676 5.63822 7.64853 6.03394 7.89369 6.27693L9.36283 7.73302C9.95908 8.32396 10.3681 8.73067 10.6448 9.07527C10.9137 9.41002 11.0059 9.62503 11.0304 9.8176C11.0458 9.93851 11.0458 10.0609 11.0304 10.1818C11.0059 10.3743 10.9137 10.5894 10.6448 10.9241C10.3681 11.2687 9.95908 11.6754 9.36283 12.2664L7.89369 13.7224C7.64853 13.9654 7.64676 14.3612 7.88975 14.6063C8.13274 14.8515 8.52846 14.8532 8.77362 14.6103L10.2692 13.1279C10.8325 12.5696 11.2929 12.1134 11.6194 11.7068C11.959 11.284 12.2047 10.8549 12.2704 10.3398C12.2992 10.114 12.2992 9.8854 12.2704 9.65955C12.2047 9.14445 11.959 8.71534 11.6194 8.29257C11.2929 7.88601 10.8326 7.42973 10.2692 6.87144L8.77362 5.38911Z" fill="#7B8293"/>
<path fill-rule="evenodd" clip-rule="evenodd" d="M10.0003 1.04135C5.05277 1.04135 1.04199 5.05213 1.04199 9.99968C1.04199 14.9472 5.05277 18.958 10.0003 18.958C14.9479 18.958 18.9587 14.9472 18.9587 9.99968C18.9587 5.05213 14.9479 1.04135 10.0003 1.04135ZM2.29199 9.99968C2.29199 5.74249 5.74313 2.29135 10.0003 2.29135C14.2575 2.29135 17.7087 5.74249 17.7087 9.99968C17.7087 14.2569 14.2575 17.708 10.0003 17.708C5.74313 17.708 2.29199 14.2569 2.29199 9.99968Z" fill="#7B8293"/>
</svg>
