<svg width="20" height="20" viewBox="0 0 20 20" fill="none" xmlns="http://www.w3.org/2000/svg">
<path d="M9.27796 4.21731C8.98376 3.92573 8.50889 3.92784 8.21731 4.22204C7.92573 4.51624 7.92784 4.99111 8.22204 5.28269L9.98501 7.03C10.7005 7.73914 11.1913 8.22718 11.5234 8.64071C11.846 9.0424 11.9567 9.30042 11.9861 9.5315C12.0046 9.67659 12.0046 9.82341 11.9861 9.9685C11.9567 10.1996 11.846 10.4576 11.5234 10.8593C11.1913 11.2728 10.7005 11.7609 9.98501 12.47L8.22204 14.2173C7.92784 14.5089 7.92573 14.9838 8.21731 15.278C8.50889 15.5722 8.98376 15.5743 9.27796 15.2827L11.0727 13.5039C11.7487 12.834 12.3011 12.2864 12.6929 11.7985C13.1004 11.2912 13.3953 10.7763 13.4741 10.1582C13.5086 9.88714 13.5086 9.61286 13.4741 9.34184C13.3953 8.72372 13.1004 8.20878 12.6929 7.70146C12.3011 7.21359 11.7487 6.66604 11.0727 5.99609L9.27796 4.21731Z" fill="#7B8293"/>
</svg>
