<svg width="61" height="21" viewBox="0 0 61 21" fill="none" xmlns="http://www.w3.org/2000/svg">
<path d="M39.2026 0.75C34.9292 0.75 31.1101 2.96531 31.1101 7.05734C31.1101 11.7506 37.8832 12.0748 37.8832 14.4329C37.8832 15.4257 36.7457 16.3144 34.8021 16.3144C32.0446 16.3144 29.9835 15.0727 29.9835 15.0727L29.1015 19.2027C29.1015 19.2027 31.4758 20.2516 34.628 20.2516C39.3002 20.2516 42.9771 17.9278 42.9771 13.7653C42.9771 8.80573 36.1758 8.49123 36.1758 6.30303C36.1758 5.52524 37.1096 4.67333 39.0472 4.67333C41.2336 4.67333 43.0169 5.57645 43.0169 5.57645L43.8802 1.58805C43.8802 1.58805 41.9391 0.75 39.202 0.75H39.2026ZM0.103626 1.05124L0 1.65311C0 1.65311 1.79779 1.98207 3.41725 2.63877C5.50243 3.39126 5.65064 3.82986 6.00188 5.19026L9.82822 19.9407H14.9577L22.8598 1.05124H17.7424L12.6647 13.8943L10.5928 3.00748C10.403 1.76156 9.44022 1.05064 8.26238 1.05064H0.104229L0.103626 1.05124ZM24.9179 1.05124L20.9036 19.9407H25.7836L29.7835 1.05124H24.9179ZM52.1354 1.05124C50.9587 1.05124 50.3352 1.68143 49.8779 2.78216L42.7283 19.9407H47.8458L48.8356 17.0808H55.0701L55.6719 19.9407H60.1875L56.2485 1.05124H52.1354ZM52.8011 6.15483L54.3182 13.243H50.2545L52.8017 6.15483H52.8011Z" fill="#7B8293"/>
</svg>
