<svg width="20" height="20" viewBox="0 0 20 20" fill="none" xmlns="http://www.w3.org/2000/svg">
<path fill-rule="evenodd" clip-rule="evenodd" d="M1.43949 1.51556C1.35578 1.18068 1.01644 0.977083 0.681571 1.0608C0.346699 1.14452 0.143099 1.48385 0.226817 1.81872L1.10327 5.32454L1.91894 8.72787C2.26577 10.175 2.53877 11.3141 2.86273 12.199C3.19503 13.1067 3.60253 13.8114 4.25634 14.3518C4.31277 14.3984 4.37025 14.4438 4.42876 14.4878C5.10664 14.9976 5.8869 15.2297 6.84706 15.3413C7.78309 15.45 8.95442 15.45 10.4425 15.45H10.937C12.2246 15.45 13.2381 15.45 14.0547 15.3675C14.891 15.2829 15.5791 15.1074 16.1984 14.7197C16.4921 14.5357 16.7651 14.3205 17.0124 14.0777C17.5337 13.5659 17.8648 12.9376 18.142 12.144C18.4126 11.3692 18.6488 10.3836 18.9489 9.13154L18.9663 9.05882C19.1472 8.30393 19.2964 7.68164 19.354 7.17759C19.4138 6.65443 19.3894 6.15629 19.1283 5.70147C19.0166 5.50694 18.8769 5.32986 18.7138 5.17591C18.3323 4.81594 17.8536 4.67611 17.3309 4.61233C16.8273 4.55088 16.1875 4.55089 15.4111 4.55091L2.19833 4.55091L1.43949 1.51556ZM7.70816 11.6671C7.70816 11.322 7.98798 11.0421 8.33316 11.0421H13.3332C13.6783 11.0421 13.9582 11.322 13.9582 11.6671C13.9582 12.0123 13.6783 12.2921 13.3332 12.2921H8.33316C7.98798 12.2921 7.70816 12.0123 7.70816 11.6671Z" fill="#E9E3F6"/>
<path d="M7.85069 18.3338C8.33515 18.3338 8.72789 17.9411 8.72789 17.4566C8.72789 16.9722 8.33515 16.5794 7.85069 16.5794C7.36623 16.5794 6.9735 16.9722 6.9735 17.4566C6.9735 17.9411 7.36623 18.3338 7.85069 18.3338Z" fill="#E9E3F6"/>
<path d="M13.1139 18.3338C13.5983 18.3338 13.991 17.9411 13.991 17.4566C13.991 16.9722 13.5983 16.5794 13.1139 16.5794C12.6294 16.5794 12.2367 16.9722 12.2367 17.4566C12.2367 17.9411 12.6294 18.3338 13.1139 18.3338Z" fill="#E9E3F6"/>
</svg>
