<svg width="20" height="20" viewBox="0 0 20 20" fill="none" xmlns="http://www.w3.org/2000/svg">
<path d="M16.2756 4.60828C16.5197 4.36421 16.5197 3.96848 16.2756 3.7244C16.0315 3.48032 15.6358 3.48032 15.3917 3.7244L10.0003 9.1158L4.60893 3.7244C4.36486 3.48032 3.96913 3.48032 3.72505 3.7244C3.48097 3.96848 3.48097 4.36421 3.72505 4.60829L9.11645 9.99969L3.72507 15.3911C3.481 15.6351 3.481 16.0309 3.72507 16.275C3.96915 16.519 4.36488 16.519 4.60896 16.275L10.0003 10.8836L15.3917 16.275C15.6358 16.519 16.0315 16.519 16.2756 16.275C16.5197 16.0309 16.5197 15.6351 16.2756 15.3911L10.8842 9.99969L16.2756 4.60828Z" fill="#E9E3F6"/>
</svg>
