<svg width="20" height="20" viewBox="0 0 20 20" fill="none" xmlns="http://www.w3.org/2000/svg">
<path fill-rule="evenodd" clip-rule="evenodd" d="M4.22602 7.49967C6.12067 4.21804 7.068 2.57722 8.30479 2.02657C9.38356 1.54627 10.6155 1.54627 11.6943 2.02657C12.931 2.57722 13.8784 4.21804 15.773 7.49967C17.6677 10.7813 18.615 12.4221 18.4735 13.7685C18.3501 14.9429 17.7341 16.0098 16.7788 16.7039C15.6835 17.4997 13.7888 17.4997 9.99952 17.4997C6.21021 17.4997 4.31556 17.4997 3.22029 16.7039C2.26494 16.0098 1.64899 14.9429 1.52555 13.7685C1.38404 12.4221 2.33136 10.7813 4.22602 7.49967ZM9.99947 5.20801C10.3446 5.20801 10.6245 5.48783 10.6245 5.83301V10.833C10.6245 11.1782 10.3446 11.458 9.99947 11.458C9.65429 11.458 9.37447 11.1782 9.37447 10.833V5.83301C9.37447 5.48783 9.65429 5.20801 9.99947 5.20801ZM9.99947 14.1663C10.4597 14.1663 10.8328 13.7932 10.8328 13.333C10.8328 12.8728 10.4597 12.4997 9.99947 12.4997C9.53923 12.4997 9.16614 12.8728 9.16614 13.333C9.16614 13.7932 9.53923 14.1663 9.99947 14.1663Z" fill="#E9E3F6"/>
</svg>
