<svg width="24" height="25" viewBox="0 0 24 25" fill="none" xmlns="http://www.w3.org/2000/svg">
<path d="M19.2908 5.88581C17.9324 5.25621 16.4799 4.79863 14.9614 4.53809C14.7749 4.8721 14.557 5.32135 14.4068 5.67873C12.7925 5.43824 11.1931 5.43824 9.60856 5.67873C9.45837 5.32135 9.23554 4.8721 9.04738 4.53809C7.5272 4.79863 6.07304 5.25789 4.71461 5.88915C1.97465 9.99072 1.2319 13.9904 1.60328 17.9333C3.42056 19.2777 5.18173 20.0944 6.91317 20.6288C7.34067 20.0459 7.72195 19.4263 8.05041 18.7734C7.42485 18.5379 6.82569 18.2473 6.25956 17.91C6.40975 17.7997 6.55666 17.6845 6.6986 17.5659C10.1516 19.1658 13.9034 19.1658 17.3151 17.5659C17.4587 17.6845 17.6056 17.7997 17.7541 17.91C17.1863 18.249 16.5855 18.5395 15.96 18.775C16.2884 19.4263 16.6681 20.0476 17.0972 20.6304C18.8303 20.096 20.5931 19.2794 22.4104 17.9333C22.8462 13.3625 21.666 9.39953 19.2908 5.88581ZM8.52083 15.5085C7.48428 15.5085 6.63422 14.5499 6.63422 13.3825C6.63422 12.2152 7.46613 11.2549 8.52083 11.2549C9.57557 11.2549 10.4256 12.2135 10.4074 13.3825C10.4091 14.5499 9.57557 15.5085 8.52083 15.5085ZM15.4929 15.5085C14.4563 15.5085 13.6063 14.5499 13.6063 13.3825C13.6063 12.2152 14.4381 11.2549 15.4929 11.2549C16.5476 11.2549 17.3976 12.2135 17.3795 13.3825C17.3795 14.5499 16.5476 15.5085 15.4929 15.5085Z" fill="#7B8293"/>
</svg>
