<svg width="12" height="12" viewBox="0 0 12 12" fill="none" xmlns="http://www.w3.org/2000/svg">
<path fill-rule="evenodd" clip-rule="evenodd" d="M2.656 5.381C4.115 2.7935 4.8445 1.5 6 1.5C7.155 1.5 7.885 2.7935 9.344 5.381L9.526 5.703C10.7385 7.853 11.345 8.928 10.797 9.714C10.249 10.5 8.893 10.5 6.182 10.5H5.818C3.107 10.5 1.751 10.5 1.203 9.714C0.654998 8.928 1.2615 7.853 2.474 5.703L2.656 5.381ZM6 3.625C6.09945 3.625 6.19484 3.66451 6.26516 3.73483C6.33549 3.80516 6.375 3.90054 6.375 4V6.5C6.375 6.59946 6.33549 6.69484 6.26516 6.76516C6.19484 6.83549 6.09945 6.875 6 6.875C5.90054 6.875 5.80516 6.83549 5.73483 6.76516C5.66451 6.69484 5.625 6.59946 5.625 6.5V4C5.625 3.90054 5.66451 3.80516 5.73483 3.73483C5.80516 3.66451 5.90054 3.625 6 3.625ZM6 8.5C6.13261 8.5 6.25978 8.44732 6.35355 8.35355C6.44732 8.25979 6.5 8.13261 6.5 8C6.5 7.86739 6.44732 7.74021 6.35355 7.64645C6.25978 7.55268 6.13261 7.5 6 7.5C5.86739 7.5 5.74021 7.55268 5.64644 7.64645C5.55268 7.74021 5.5 7.86739 5.5 8C5.5 8.13261 5.55268 8.25979 5.64644 8.35355C5.74021 8.44732 5.86739 8.5 6 8.5Z" fill="#CA3A3A"/>
</svg>
