<svg width="20" height="20" viewBox="0 0 20 20" fill="none" xmlns="http://www.w3.org/2000/svg">
<path fill-rule="evenodd" clip-rule="evenodd" d="M17.6084 11.7891C18.5748 10.7724 18.5748 9.22766 17.6084 8.21094C15.9786 6.49613 13.1794 4.16669 9.99984 4.16669C6.82024 4.16669 4.02108 6.49613 2.39126 8.21094C1.42492 9.22766 1.42492 10.7724 2.39126 11.7891C4.02108 13.5039 6.82024 15.8334 9.99984 15.8334C13.1794 15.8334 15.9786 13.5039 17.6084 11.7891ZM9.99984 12.5C11.3805 12.5 12.4998 11.3807 12.4998 10C12.4998 8.61931 11.3805 7.50002 9.99984 7.50002C8.61912 7.50002 7.49984 8.61931 7.49984 10C7.49984 11.3807 8.61912 12.5 9.99984 12.5Z" fill="#7B8293"/>
</svg>
