<svg width="18" height="16" viewBox="0 0 18 16" fill="none" xmlns="http://www.w3.org/2000/svg">
<path fill-rule="evenodd" clip-rule="evenodd" d="M1.89172 1.77593C1.64764 1.53185 1.64764 1.13612 1.89172 0.892043C2.1358 0.647965 2.53152 0.647965 2.7756 0.892043L16.1089 14.2254C16.353 14.4695 16.353 14.8652 16.1089 15.1093C15.8649 15.3533 15.4691 15.3533 15.225 15.1093L12.8694 12.7536C11.695 13.393 10.3837 13.834 9.00033 13.834C5.82073 13.834 3.02157 11.5045 1.39175 9.78973C0.425407 8.77301 0.425408 7.22829 1.39175 6.21157C2.08326 5.48399 2.98529 4.64577 4.03756 3.92177L1.89172 1.77593ZM6.84646 6.73067C6.62653 7.10287 6.50033 7.53702 6.50033 8.00065C6.50033 9.38136 7.61961 10.5007 9.00033 10.5007C9.46396 10.5007 9.89811 10.3744 10.2703 10.1545L6.84646 6.73067ZM9.00033 2.16732C12.1799 2.16732 14.9791 4.49676 16.6089 6.21157C17.5752 7.22829 17.5752 8.77301 16.6089 9.78973C16.2422 10.1756 15.8163 10.5925 15.3401 11.0071L6.84424 2.51118C7.53547 2.29445 8.25751 2.16732 9.00033 2.16732Z" fill="#7B8293"/>
</svg>
