<svg width="20" height="20" viewBox="0 0 20 20" fill="none" xmlns="http://www.w3.org/2000/svg">
<path d="M1.04297 10.0003C1.04297 5.05277 5.05375 1.04199 10.0013 1.04199C14.9489 1.04199 18.9596 5.05277 18.9596 10.0003C18.9596 10.3525 18.9393 10.7001 18.8997 11.042L17.3664 11.042C15.9445 11.0418 15.0769 11.0416 14.3539 11.2765C12.8952 11.7505 11.7515 12.8942 11.2775 14.353C11.0426 15.0759 11.0427 15.9436 11.043 17.3655L11.043 18.8987C10.7011 18.9383 10.3534 18.9587 10.0013 18.9587C5.05375 18.9587 1.04297 14.9479 1.04297 10.0003Z" fill="#7B8293"/>
<path d="M12.293 18.6627C15.3993 17.843 17.844 15.3983 18.6637 12.292H17.5013C15.9016 12.292 15.25 12.2997 14.7402 12.4653C13.662 12.8157 12.8166 13.661 12.4663 14.7392C12.3007 15.249 12.293 15.9006 12.293 17.5003V18.6627Z" fill="#7B8293"/>
</svg>
