<svg width="1440" height="748" viewBox="0 0 1440 748" fill="none" xmlns="http://www.w3.org/2000/svg">
<mask id="mask0_1_697" style="mask-type:alpha" maskUnits="userSpaceOnUse" x="13" y="66" width="1433" height="551">
<rect x="13.5342" y="66.4932" width="1431.61" height="550.276" fill="url(#paint0_linear_1_697)"/>
</mask>
<g mask="url(#mask0_1_697)">
<rect x="15.0254" y="-20" width="1.49126" height="768" fill="#181A1F"/>
<rect x="64.2373" y="-20" width="1.49126" height="768" fill="#181A1F"/>
<rect x="113.449" y="-20" width="1.49126" height="768" fill="#181A1F"/>
<rect x="162.661" y="-20" width="1.49126" height="768" fill="#181A1F"/>
<rect x="211.872" y="-20" width="1.49126" height="768" fill="#181A1F"/>
<rect x="261.084" y="-20" width="1.49126" height="768" fill="#181A1F"/>
<rect x="310.296" y="-20" width="1.49126" height="768" fill="#181A1F"/>
<rect x="359.508" y="-20" width="1.49126" height="768" fill="#181A1F"/>
<rect x="408.719" y="-20" width="1.49126" height="768" fill="#181A1F"/>
<rect x="457.931" y="-20" width="1.49126" height="768" fill="#181A1F"/>
<rect x="507.143" y="-20" width="1.49126" height="768" fill="#181A1F"/>
<rect x="556.354" y="-20" width="1.49126" height="768" fill="#181A1F"/>
<rect x="605.565" y="-20" width="1.49126" height="768" fill="#181A1F"/>
<rect x="654.777" y="-20" width="1.49126" height="768" fill="#181A1F"/>
<rect x="703.989" y="-20" width="1.49126" height="768" fill="#181A1F"/>
<rect x="753.2" y="-20" width="1.49126" height="768" fill="#181A1F"/>
<rect x="802.412" y="-20" width="1.49126" height="768" fill="#181A1F"/>
<rect x="851.624" y="-20" width="1.49126" height="768" fill="#181A1F"/>
<rect x="900.836" y="-20" width="1.49126" height="768" fill="#181A1F"/>
<rect x="950.047" y="-20" width="1.49126" height="768" fill="#181A1F"/>
<rect x="999.259" y="-20" width="1.49126" height="768" fill="#181A1F"/>
<rect x="1048.47" y="-20" width="1.49126" height="768" fill="#181A1F"/>
<rect x="1097.68" y="-20" width="1.49126" height="768" fill="#181A1F"/>
<rect x="1146.89" y="-20" width="1.49126" height="768" fill="#181A1F"/>
<rect x="1196.11" y="-20" width="1.49126" height="768" fill="#181A1F"/>
<rect x="1245.32" y="-20" width="1.49126" height="768" fill="#181A1F"/>
<rect x="1294.53" y="-20" width="1.49126" height="768" fill="#181A1F"/>
<rect x="1343.74" y="-20" width="1.49126" height="768" fill="#181A1F"/>
<rect x="1392.95" y="-20" width="1.49126" height="768" fill="#181A1F"/>
<rect x="-322" y="94.0816" width="1.49126" height="2102.68" transform="rotate(-90 -322 94.0816)" fill="#181A1F"/>
<rect x="-322" y="143.293" width="1.49126" height="2102.68" transform="rotate(-90 -322 143.293)" fill="#181A1F"/>
<rect x="-322" y="192.505" width="1.49126" height="2102.68" transform="rotate(-90 -322 192.505)" fill="#181A1F"/>
<rect x="-322" y="241.717" width="1.49126" height="2102.68" transform="rotate(-90 -322 241.717)" fill="#181A1F"/>
<rect x="-322" y="290.928" width="1.49126" height="2102.68" transform="rotate(-90 -322 290.928)" fill="#181A1F"/>
<rect x="-322" y="340.14" width="1.49126" height="2102.68" transform="rotate(-90 -322 340.14)" fill="#181A1F"/>
<rect x="-322" y="389.351" width="1.49126" height="2102.68" transform="rotate(-90 -322 389.351)" fill="#181A1F"/>
<rect x="-322" y="438.563" width="1.49126" height="2102.68" transform="rotate(-90 -322 438.563)" fill="#181A1F"/>
<rect x="-322" y="487.775" width="1.49126" height="2102.68" transform="rotate(-90 -322 487.775)" fill="#181A1F"/>
<rect x="-322" y="536.986" width="1.49126" height="2102.68" transform="rotate(-90 -322 536.986)" fill="#181A1F"/>
<rect x="-322" y="586.198" width="1.49126" height="2102.68" transform="rotate(-90 -322 586.198)" fill="#181A1F"/>
</g>
<defs>
<linearGradient id="paint0_linear_1_697" x1="1037.66" y1="145.903" x2="828.509" y2="586.571" gradientUnits="userSpaceOnUse">
<stop offset="0.245" stop-color="#D9D9D9"/>
<stop offset="0.561676" stop-color="#D9D9D9" stop-opacity="0"/>
</linearGradient>
</defs>
</svg>
