<svg width="1440" height="768" viewBox="0 0 1440 768" fill="none" xmlns="http://www.w3.org/2000/svg">
<mask id="mask0_1_759" style="mask-type:alpha" maskUnits="userSpaceOnUse" x="-5" y="131" width="1433" height="551">
<rect x="1427.15" y="681.507" width="1431.61" height="550.276" transform="rotate(180 1427.15 681.507)" fill="url(#paint0_linear_1_759)"/>
</mask>
<g mask="url(#mask0_1_759)">
<rect x="1425.65" y="768" width="1.49126" height="768" transform="rotate(180 1425.65 768)" fill="#181A1F"/>
<rect x="1376.44" y="768" width="1.49126" height="768" transform="rotate(180 1376.44 768)" fill="#181A1F"/>
<rect x="1327.23" y="768" width="1.49126" height="768" transform="rotate(180 1327.23 768)" fill="#181A1F"/>
<rect x="1278.02" y="768" width="1.49126" height="768" transform="rotate(180 1278.02 768)" fill="#181A1F"/>
<rect x="1228.81" y="768" width="1.49126" height="768" transform="rotate(180 1228.81 768)" fill="#181A1F"/>
<rect x="1179.6" y="768" width="1.49126" height="768" transform="rotate(180 1179.6 768)" fill="#181A1F"/>
<rect x="1130.38" y="768" width="1.49126" height="768" transform="rotate(180 1130.38 768)" fill="#181A1F"/>
<rect x="1081.17" y="768" width="1.49126" height="768" transform="rotate(180 1081.17 768)" fill="#181A1F"/>
<rect x="1031.96" y="768" width="1.49126" height="768" transform="rotate(180 1031.96 768)" fill="#181A1F"/>
<rect x="982.749" y="768" width="1.49126" height="768" transform="rotate(180 982.749 768)" fill="#181A1F"/>
<rect x="933.537" y="768" width="1.49126" height="768" transform="rotate(180 933.537 768)" fill="#181A1F"/>
<rect x="884.326" y="768" width="1.49126" height="768" transform="rotate(180 884.326 768)" fill="#181A1F"/>
<rect x="835.114" y="768" width="1.49126" height="768" transform="rotate(180 835.114 768)" fill="#181A1F"/>
<rect x="785.902" y="768" width="1.49126" height="768" transform="rotate(180 785.902 768)" fill="#181A1F"/>
<rect x="736.69" y="768" width="1.49126" height="768" transform="rotate(180 736.69 768)" fill="#181A1F"/>
<rect x="687.479" y="768" width="1.49126" height="768" transform="rotate(180 687.479 768)" fill="#181A1F"/>
<rect x="638.268" y="768" width="1.49126" height="768" transform="rotate(180 638.268 768)" fill="#181A1F"/>
<rect x="589.056" y="768" width="1.49126" height="768" transform="rotate(180 589.056 768)" fill="#181A1F"/>
<rect x="539.844" y="768" width="1.49126" height="768" transform="rotate(180 539.844 768)" fill="#181A1F"/>
<rect x="490.633" y="768" width="1.49126" height="768" transform="rotate(180 490.633 768)" fill="#181A1F"/>
<rect x="441.421" y="768" width="1.49126" height="768" transform="rotate(180 441.421 768)" fill="#181A1F"/>
<rect x="392.209" y="768" width="1.49126" height="768" transform="rotate(180 392.209 768)" fill="#181A1F"/>
<rect x="342.998" y="768" width="1.49126" height="768" transform="rotate(180 342.998 768)" fill="#181A1F"/>
<rect x="293.786" y="768" width="1.49126" height="768" transform="rotate(180 293.786 768)" fill="#181A1F"/>
<rect x="244.574" y="768" width="1.49126" height="768" transform="rotate(180 244.574 768)" fill="#181A1F"/>
<rect x="195.362" y="768" width="1.49126" height="768" transform="rotate(180 195.362 768)" fill="#181A1F"/>
<rect x="146.151" y="768" width="1.49126" height="768" transform="rotate(180 146.151 768)" fill="#181A1F"/>
<rect x="96.9395" y="768" width="1.49126" height="768" transform="rotate(180 96.9395 768)" fill="#181A1F"/>
<rect x="47.7275" y="768" width="1.49126" height="768" transform="rotate(180 47.7275 768)" fill="#181A1F"/>
<rect x="1762.68" y="653.918" width="1.49126" height="2102.68" transform="rotate(90 1762.68 653.918)" fill="#181A1F"/>
<rect x="1762.68" y="604.707" width="1.49126" height="2102.68" transform="rotate(90 1762.68 604.707)" fill="#181A1F"/>
<rect x="1762.68" y="555.495" width="1.49126" height="2102.68" transform="rotate(90 1762.68 555.495)" fill="#181A1F"/>
<rect x="1762.68" y="506.283" width="1.49126" height="2102.68" transform="rotate(90 1762.68 506.283)" fill="#181A1F"/>
<rect x="1762.68" y="457.072" width="1.49126" height="2102.68" transform="rotate(90 1762.68 457.072)" fill="#181A1F"/>
<rect x="1762.68" y="407.86" width="1.49126" height="2102.68" transform="rotate(90 1762.68 407.86)" fill="#181A1F"/>
<rect x="1762.68" y="358.649" width="1.49126" height="2102.68" transform="rotate(90 1762.68 358.649)" fill="#181A1F"/>
<rect x="1762.68" y="309.437" width="1.49126" height="2102.68" transform="rotate(90 1762.68 309.437)" fill="#181A1F"/>
<rect x="1762.68" y="260.225" width="1.49126" height="2102.68" transform="rotate(90 1762.68 260.225)" fill="#181A1F"/>
<rect x="1762.68" y="211.014" width="1.49126" height="2102.68" transform="rotate(90 1762.68 211.014)" fill="#181A1F"/>
<rect x="1762.68" y="161.802" width="1.49126" height="2102.68" transform="rotate(90 1762.68 161.802)" fill="#181A1F"/>
</g>
<defs>
<linearGradient id="paint0_linear_1_759" x1="2451.27" y1="760.917" x2="2242.12" y2="1201.58" gradientUnits="userSpaceOnUse">
<stop offset="0.245" stop-color="#D9D9D9"/>
<stop offset="0.561676" stop-color="#D9D9D9" stop-opacity="0"/>
</linearGradient>
</defs>
</svg>
