<svg width="20" height="20" viewBox="0 0 20 20" fill="none" xmlns="http://www.w3.org/2000/svg">
<path fill-rule="evenodd" clip-rule="evenodd" d="M7.53015 7.47796C7.86586 5.42599 8.46663 3.34315 8.75909 2.39099C9.16253 2.32578 9.57677 2.29183 9.99935 2.29183C10.4219 2.29183 10.8362 2.32578 11.2396 2.39099C11.5321 3.34315 12.1328 5.42599 12.4685 7.47796C11.5973 7.61861 10.7462 7.7085 9.99935 7.7085C9.25254 7.7085 8.40143 7.61861 7.53015 7.47796ZM13.698 7.25085C13.4201 5.56342 12.9751 3.87267 12.654 2.76098C14.4723 3.42803 15.9705 4.76135 16.8514 6.46547C16.0294 6.7021 14.8976 7.00373 13.698 7.25085ZM13.8689 8.49177C15.209 8.21907 16.467 7.87949 17.3355 7.62667C17.577 8.37374 17.7077 9.17119 17.7077 10.0002C17.7077 10.4227 17.6737 10.837 17.6085 11.2404C16.8529 11.4725 15.3815 11.9 13.7774 12.2344C13.8874 11.4663 13.9577 10.7022 13.9577 10.0002C13.9577 9.51903 13.9247 9.00991 13.8689 8.49177ZM13.5536 13.5544C14.9595 13.2824 16.3033 12.9249 17.2385 12.6548C16.4603 14.7762 14.7754 16.4611 12.654 17.2394C12.9241 16.3042 13.2816 14.9603 13.5536 13.5544ZM12.2336 13.7782C11.8991 15.3823 11.4717 16.8538 11.2396 17.6093C10.8362 17.6746 10.4219 17.7085 9.99935 17.7085C9.57677 17.7085 9.16252 17.6746 8.75908 17.6093C8.52699 16.8538 8.09956 15.3823 7.76512 13.7782C8.53326 13.8882 9.29734 13.9585 9.99935 13.9585C10.7014 13.9585 11.4654 13.8882 12.2336 13.7782ZM6.44514 13.5544C6.7171 14.9603 7.07461 16.3042 7.34473 17.2394C5.22329 16.4611 3.53838 14.7762 2.76015 12.6548C3.69536 12.9249 5.03922 13.2824 6.44514 13.5544ZM6.2213 12.2344C4.61719 11.9 3.14575 11.4725 2.39017 11.2404C2.32496 10.837 2.29102 10.4227 2.29102 10.0002C2.29102 9.17119 2.42166 8.37374 2.66317 7.62667C3.53167 7.8795 4.78973 8.21907 6.1298 8.49178C6.07399 9.00992 6.04102 9.51903 6.04102 10.0002C6.04102 10.7022 6.11127 11.4663 6.2213 12.2344ZM6.30073 7.25085C5.10105 7.00373 3.96925 6.7021 3.14725 6.46548C4.02824 4.76135 5.52641 3.42803 7.34471 2.76098C7.02361 3.87267 6.57859 5.56342 6.30073 7.25085ZM7.29102 10.0002C7.29102 9.5995 7.31692 9.16758 7.363 8.71715C8.2653 8.86168 9.17532 8.9585 9.99935 8.9585C10.8234 8.9585 11.7334 8.86168 12.6357 8.71715C12.6818 9.16758 12.7077 9.5995 12.7077 10.0002C12.7077 10.7486 12.6174 11.6023 12.476 12.4768C11.6015 12.6182 10.7478 12.7085 9.99935 12.7085C9.2509 12.7085 8.39719 12.6182 7.52275 12.4768C7.38131 11.6023 7.29102 10.7486 7.29102 10.0002ZM9.99935 1.04183C9.36461 1.04183 8.74463 1.10795 8.14615 1.23388C5.21382 1.8509 2.81173 3.90008 1.70292 6.61484C1.276 7.6601 1.04102 8.80347 1.04102 10.0002C1.04102 10.6349 1.10713 11.2549 1.23306 11.8534C1.96131 15.3143 4.68522 18.0382 8.14615 18.7665C8.74463 18.8924 9.36461 18.9585 9.99935 18.9585C10.6341 18.9585 11.2541 18.8924 11.8526 18.7665C15.3135 18.0382 18.0374 15.3143 18.7656 11.8534C18.8916 11.2549 18.9577 10.6349 18.9577 10.0002C18.9577 8.80441 18.7231 7.66189 18.2968 6.61729C17.1884 3.90131 14.7858 1.85109 11.8526 1.23388C11.2541 1.10795 10.6341 1.04183 9.99935 1.04183Z" fill="#7B8293"/>
</svg>
