<svg width="20" height="20" viewBox="0 0 20 20" fill="none" xmlns="http://www.w3.org/2000/svg">
<path fill-rule="evenodd" clip-rule="evenodd" d="M10.001 1.04199C7.35461 1.04199 5.20931 3.18729 5.20931 5.83366V6.76175C5.20931 6.81743 5.21659 6.8714 5.23025 6.92277C4.0335 7.36251 3.1007 8.32798 2.70491 9.54609C2.50098 10.1737 2.50098 10.9493 2.50098 12.5003C2.50098 14.0514 2.50098 14.8269 2.70491 15.4546C3.11707 16.7231 4.11158 17.7176 5.38007 18.1297C6.00771 18.3337 6.78324 18.3337 8.33429 18.3337H11.6676C13.2187 18.3337 13.9942 18.3337 14.6219 18.1297C15.8904 17.7176 16.8849 16.7231 17.297 15.4546C17.501 14.8269 17.501 14.0514 17.501 12.5003C17.501 10.9493 17.501 10.1737 17.297 9.54609C16.9013 8.32798 15.9685 7.36251 14.7717 6.92277C14.7854 6.8714 14.7926 6.81743 14.7926 6.76175V5.83366C14.7926 3.18729 12.6473 1.04199 10.001 1.04199ZM11.6676 6.66699C12.472 6.66699 13.0679 6.66699 13.5426 6.69544V5.83366C13.5426 3.87765 11.957 2.29199 10.001 2.29199C8.04497 2.29199 6.45931 3.87765 6.45931 5.83366V6.69544C6.93409 6.66699 7.5299 6.66699 8.33431 6.66699H11.6676ZM7.70931 12.5003C7.70931 11.2347 8.73532 10.2087 10.001 10.2087C11.2666 10.2087 12.2926 11.2347 12.2926 12.5003C12.2926 13.766 11.2666 14.792 10.001 14.792C8.73532 14.792 7.70931 13.766 7.70931 12.5003Z" fill="#7B8293"/>
</svg>
