<svg width="43" height="48" viewBox="0 0 43 48" fill="none" xmlns="http://www.w3.org/2000/svg">
<path d="M1.33887 19.2332L1.33887 13.6454L20.6954 24.8209V30.4087L1.33887 19.2332Z" fill="#7B8293"/>
<path d="M1.33887 35.9965L1.33887 30.4087L20.6954 41.5842V47.172L1.33887 35.9965Z" fill="#7B8293"/>
<path d="M1.33887 27.6148L1.33887 22.0271L20.6954 33.2026V38.7903L1.33887 27.6148Z" fill="#7B8293"/>
<path d="M1.33887 13.6454L6.178 16.4393V30.4087L1.33887 27.6148L1.33887 13.6454Z" fill="#7B8293"/>
<path d="M15.8563 30.4087L20.6954 33.2026V47.172L15.8563 44.3781V30.4087Z" fill="#7B8293"/>
<path d="M22.7908 24.8209L27.6299 22.0271V44.3781L22.7908 47.172V24.8209Z" fill="#7B8293"/>
<path d="M22.7908 30.4087V24.8209L42.1474 13.6454V19.2332L22.7908 30.4087Z" fill="#7B8293"/>
<path d="M22.7908 47.172V41.5842L42.1474 30.4087V35.9965L22.7908 47.172Z" fill="#7B8293"/>
<path d="M37.3082 24.8209L42.1474 22.0271V35.9965L37.3082 38.7903V24.8209Z" fill="#7B8293"/>
<path d="M30.0495 34.5995V29.0118L42.1474 22.0271V27.6148L30.0495 34.5995Z" fill="#7B8293"/>
<path d="M23.3561 7.24279L16.904 3.51763L16.904 9.10538L23.2553 12.7723L23.3561 7.24279Z" fill="#7B8293"/>
<path d="M7.22571 9.10539L13.6779 12.8305L23.2553 12.7723L16.904 9.10538L7.22571 9.10539Z" fill="#7B8293"/>
<path d="M4.80614 10.5023L2.38657 11.8993L21.7431 23.0748L26.5823 20.2809L13.6779 12.8305L9.64526 13.2962L4.80614 10.5023Z" fill="#7B8293"/>
<path d="M21.7431 0.723755L19.3235 2.12069L24.1627 4.91456L23.3561 7.24279L36.2605 14.6931L41.0997 11.8993L21.7431 0.723755Z" fill="#7B8293"/>
<path d="M19.3235 2.12069L16.904 3.51763L23.3561 7.24279L24.1627 4.91456L19.3235 2.12069Z" fill="#7B8293"/>
<path d="M7.22571 9.10539L4.80614 10.5023L9.64526 13.2962L13.6779 12.8305L7.22571 9.10539Z" fill="#7B8293"/>
</svg>
