<svg width="235" height="266" viewBox="0 0 235 266" fill="none" xmlns="http://www.w3.org/2000/svg">
<path d="M0.405276 106L0.405276 74L111.257 138V170L0.405276 106Z" fill="#8767CE"/>
<path d="M0.405273 202L0.405274 170L111.257 234V266L0.405273 202Z" fill="#8767CE"/>
<path d="M0.405274 154L0.405275 122L111.257 186V218L0.405274 154Z" fill="#8767CE"/>
<path d="M0.405276 74L28.1181 90V170L0.405274 154L0.405276 74Z" fill="#8767CE"/>
<path d="M83.5437 170L111.257 186V266L83.5437 250V170Z" fill="#8767CE"/>
<path d="M123.256 138L150.969 122V250L123.256 266V138Z" fill="#8767CE"/>
<path d="M123.256 170V138L234.108 74V106L123.256 170Z" fill="#8767CE"/>
<path d="M123.256 266V234L234.108 170V202L123.256 266Z" fill="#8767CE"/>
<path d="M206.395 138L234.108 122V202L206.395 218V138Z" fill="#8767CE"/>
<path d="M164.826 194V162L234.108 122V154L164.826 194Z" fill="#8767CE"/>
<path d="M126.494 37.3333L89.5437 16L89.5436 47.9999L125.917 68.9999L126.494 37.3333Z" fill="#8767CE"/>
<path d="M34.1181 48L71.0684 69.3333L125.917 68.9999L89.5436 47.9999L34.1181 48Z" fill="#8767CE"/>
<path d="M20.2617 56L6.40527 64L117.257 128L144.969 112L71.0684 69.3333L47.9744 71.9999L20.2617 56Z" fill="#8767CE"/>
<path d="M117.257 0L103.4 8L131.113 23.9999L126.494 37.3333L200.395 80L228.108 64L117.257 0Z" fill="#8767CE"/>
<path d="M103.4 8L89.5437 16L126.494 37.3333L131.113 23.9999L103.4 8Z" fill="#8767CE"/>
<path d="M34.1181 48L20.2617 56L47.9744 71.9999L71.0684 69.3333L34.1181 48Z" fill="#8767CE"/>
</svg>
