<svg width="20" height="20" viewBox="0 0 20 20" fill="none" xmlns="http://www.w3.org/2000/svg">
<path fill-rule="evenodd" clip-rule="evenodd" d="M5.33333 2C3.49238 2 2 3.49238 2 5.33333V13.6667C2 15.5076 3.49238 17 5.33333 17H15.3333C17.1743 17 18.6667 15.5076 18.6667 13.6667V5.33333C18.6667 3.49238 17.1743 2 15.3333 2H5.33333ZM5.68002 5.6466C5.39282 5.45513 5.00478 5.53274 4.8133 5.81994C4.62183 6.10715 4.69944 6.49519 4.98665 6.68666L8.13765 8.78733C9.46725 9.67373 11.1994 9.67373 12.529 8.78733L15.68 6.68666C15.9672 6.49519 16.0448 6.10715 15.8534 5.81994C15.6619 5.53274 15.2739 5.45513 14.9866 5.6466L11.8356 7.74727C10.9259 8.35375 9.74075 8.35375 8.83102 7.74727L5.68002 5.6466Z" fill="#7B8293"/>
</svg>
