<svg width="44" height="27" viewBox="0 0 44 27" fill="none" xmlns="http://www.w3.org/2000/svg">
<path d="M16.877 13.5003C16.877 9.18818 18.9041 5.361 22.0148 2.88818C25.1255 5.361 27.1526 9.18818 27.1526 13.5003C27.1526 17.8125 25.1648 21.6353 22.0148 24.1125C18.8998 21.6746 16.877 17.8125 16.877 13.5003Z" fill="#A3AABB"/>
<path d="M16.8768 13.5C16.8768 9.18786 18.904 5.36068 22.0147 2.88786C19.7254 1.08786 16.8375 0 13.6875 0C6.22536 0 0.1875 6.03786 0.1875 13.5C0.1875 20.9621 6.22536 27 13.6875 27C16.8375 27 19.7254 25.9121 22.0147 24.1121C18.8996 21.6743 16.8768 17.8121 16.8768 13.5Z" fill="#7B8293"/>
<path d="M43.8423 13.5C43.8423 20.9621 37.8045 27 30.3423 27C27.1923 27 24.3045 25.9121 22.0151 24.1121C25.1651 21.635 27.153 17.8121 27.153 13.5C27.153 9.18786 25.1258 5.36068 22.0151 2.88786C24.3001 1.08786 27.188 0 30.338 0C37.8045 0 43.8423 6.07719 43.8423 13.5Z" fill="#B7BECF"/>
</svg>
