<svg width="45" height="45" viewBox="0 0 45 45" fill="none" xmlns="http://www.w3.org/2000/svg">
<path fill-rule="evenodd" clip-rule="evenodd" d="M31.3618 42.5204C22.6135 47.9334 11.8347 43.5334 6.75178 38.4441C-1.98627 29.695 -1.98627 15.51 6.75178 6.76095C15.4898 -1.98811 29.657 -1.98811 38.3951 6.76095C43.6944 12.0669 47.8927 22.6628 42.4679 31.403C42.1675 31.887 42.0173 32.1291 41.9438 32.3138C41.8037 32.6659 41.7626 32.9362 41.7916 33.3141C41.8067 33.5123 41.8647 33.7363 41.9807 34.1842C42.7101 37.002 43.0748 38.411 42.8685 39.4261C42.5105 41.1878 41.1353 42.5646 39.3758 42.9232C38.3621 43.1298 36.9549 42.7646 34.1405 42.0342C33.6934 41.9182 33.4696 41.8601 33.2723 41.8448C32.8949 41.8156 32.628 41.856 32.2761 41.9955C32.092 42.0685 31.8486 42.2191 31.3618 42.5204ZM16.1992 22.6005C16.1992 24.3679 14.7664 25.8006 12.999 25.8006C11.2316 25.8006 9.7988 24.3679 9.7988 22.6005C9.7988 20.833 11.2316 19.4003 12.999 19.4003C14.7664 19.4003 16.1992 20.833 16.1992 22.6005ZM25.7997 22.6005C25.7997 24.3679 24.367 25.8006 22.5995 25.8006C20.8321 25.8006 19.3994 24.3679 19.3994 22.6005C19.3994 20.833 20.8321 19.4003 22.5995 19.4003C24.367 19.4003 25.7997 20.833 25.7997 22.6005ZM32.2001 25.8006C33.9675 25.8006 35.4003 24.3679 35.4003 22.6005C35.4003 20.833 33.9675 19.4003 32.2001 19.4003C30.4327 19.4003 28.9999 20.833 28.9999 22.6005C28.9999 24.3679 30.4327 25.8006 32.2001 25.8006Z" fill="#E9E3F6"/>
</svg>
