<svg width="20" height="20" viewBox="0 0 20 20" fill="none" xmlns="http://www.w3.org/2000/svg">
<g clip-path="url(#clip0_8_6850)">
<path d="M16.6667 1.66669H3.33341C2.50008 1.66669 1.66675 2.41669 1.66675 3.33335V5.84169C1.66675 6.44169 2.02508 6.95835 2.50008 7.25002V16.6667C2.50008 17.5834 3.41675 18.3334 4.16675 18.3334H15.8334C16.5834 18.3334 17.5001 17.5834 17.5001 16.6667V7.25002C17.9751 6.95835 18.3334 6.44169 18.3334 5.84169V3.33335C18.3334 2.41669 17.5001 1.66669 16.6667 1.66669ZM12.5001 11.6667H7.50008V10H12.5001V11.6667ZM16.6667 5.83335H3.33341V3.33335L16.6667 3.31669V5.83335Z" fill="#7B8293"/>
</g>
<defs>
<clipPath id="clip0_8_6850">
<rect width="20" height="20" fill="white"/>
</clipPath>
</defs>
</svg>
