<svg width="20" height="20" viewBox="0 0 20 20" fill="none" xmlns="http://www.w3.org/2000/svg">
<g clip-path="url(#clip0_1_888)">
<path fill-rule="evenodd" clip-rule="evenodd" d="M4.16692 4.63676C1.43316 5.21784 -0.152134 8.08546 0.809714 10.7096L1.27796 11.987L3.3481 15.8894C3.94822 17.0206 5.22554 17.617 6.47813 17.3507C7.43274 17.1478 8.21866 16.4734 8.56419 15.5607L8.76844 15.0212C9.45783 13.2002 11.7997 12.7024 13.1702 14.0855L13.4186 14.3362C14.2037 15.1287 15.338 15.4675 16.4291 15.2356C18.025 14.8964 19.1286 13.4353 19.0185 11.8075L18.6872 6.90959C18.4986 4.12114 15.8839 2.14623 13.1502 2.72731C12.5216 2.86091 11.9281 3.12493 11.408 3.50229L11.0161 3.78665C10.2593 4.33575 9.95217 4.55465 9.62669 4.69946C9.17379 4.90096 8.68364 5.00514 8.18794 5.00527C7.8317 5.00537 7.46211 4.93031 6.54739 4.7365L6.07369 4.63614C5.44505 4.50295 4.79546 4.50316 4.16692 4.63676ZM5.27596 7.80883C5.6136 7.73706 5.94548 7.95259 6.01725 8.29023L6.23383 9.30913L7.25273 9.09255C7.59036 9.02079 7.92225 9.23632 7.99402 9.57395C8.06578 9.91159 7.85025 10.2435 7.51262 10.3152L6.49372 10.5318L6.71029 11.5507C6.78206 11.8884 6.56653 12.2202 6.22889 12.292C5.89126 12.3638 5.55937 12.1482 5.48761 11.8106L5.27103 10.7917L4.25213 11.0083C3.91449 11.08 3.58261 10.8645 3.51084 10.5269C3.43907 10.1892 3.6546 9.85736 3.99224 9.78559L5.01114 9.56902L4.79457 8.55012C4.7228 8.21248 4.93833 7.88059 5.27596 7.80883ZM13.7304 7.50269C14.1806 7.407 14.468 6.96448 14.3723 6.5143C14.2766 6.06412 13.8341 5.77675 13.3839 5.87244C12.9337 5.96813 12.6464 6.41064 12.7421 6.86082C12.8378 7.311 13.2803 7.59837 13.7304 7.50269ZM12.4467 9.47945C12.8969 9.38376 13.1843 8.94125 13.0886 8.49107C12.9929 8.04089 12.5504 7.75352 12.1002 7.84921C11.65 7.94489 11.3627 8.38741 11.4583 8.83759C11.554 9.28777 11.9965 9.57514 12.4467 9.47945ZM16.3491 7.79803C16.4448 8.24821 16.1574 8.69072 15.7072 8.78641C15.257 8.8821 14.8145 8.59473 14.7188 8.14455C14.6231 7.69437 14.9105 7.25185 15.3607 7.15617C15.8109 7.06048 16.2534 7.34785 16.3491 7.79803ZM14.4235 10.7632C14.8737 10.6675 15.161 10.225 15.0654 9.77479C14.9697 9.32462 14.5271 9.03724 14.077 9.13293C13.6268 9.22862 13.3394 9.67113 13.4351 10.1213C13.5308 10.5715 13.9733 10.8589 14.4235 10.7632Z" fill="#E9E3F6"/>
</g>
<defs>
<clipPath id="clip0_1_888">
<rect width="20" height="20" fill="white"/>
</clipPath>
</defs>
</svg>
