<svg width="20" height="20" viewBox="0 0 20 20" fill="none" xmlns="http://www.w3.org/2000/svg">
<path fill-rule="evenodd" clip-rule="evenodd" d="M9.16992 0.208168C4.68261 0.208168 1.04492 3.84585 1.04492 8.33317C1.04492 12.8205 4.68261 16.4582 9.16992 16.4582C13.6572 16.4582 17.2949 12.8205 17.2949 8.33317C17.2949 3.84585 13.6572 0.208168 9.16992 0.208168ZM2.29492 8.33317C2.29492 4.53621 5.37296 1.45817 9.16992 1.45817C12.9669 1.45817 16.0449 4.53621 16.0449 8.33317C16.0449 12.1301 12.9669 15.2082 9.16992 15.2082C5.37296 15.2082 2.29492 12.1301 2.29492 8.33317Z" fill="#7B8293"/>
<path d="M16.2786 14.558C16.0345 14.3139 15.6388 14.3139 15.3947 14.558C15.1506 14.802 15.1506 15.1978 15.3947 15.4419L18.7279 18.7751C18.972 19.0192 19.3677 19.0192 19.6118 18.7751C19.8559 18.5311 19.8559 18.1353 19.6118 17.8913L16.2786 14.558Z" fill="#7B8293"/>
</svg>
