<svg width="20" height="20" viewBox="0 0 20 20" fill="none" xmlns="http://www.w3.org/2000/svg">
<path fill-rule="evenodd" clip-rule="evenodd" d="M3.29576 4.21658C2.5 5.31186 2.5 6.87425 2.5 9.99902C2.5 13.1238 2.5 14.6862 3.29576 15.7815C3.55276 16.1352 3.86383 16.4463 4.21756 16.7033C5.31283 17.499 6.87522 17.499 10 17.499C13.1248 17.499 14.6872 17.499 15.7824 16.7033C16.1362 16.4463 16.4472 16.1352 16.7042 15.7815C17.5 14.6862 17.5 13.1238 17.5 9.99902C17.5 6.87425 17.5 5.31186 16.7042 4.21658C16.4472 3.86286 16.1362 3.55178 15.7824 3.29479C14.6872 2.49902 13.1248 2.49902 10 2.49902C6.87522 2.49902 5.31283 2.49902 4.21756 3.29479C3.86383 3.55178 3.55276 3.86286 3.29576 4.21658ZM14.6323 7.91592C14.8626 7.65875 14.8407 7.26362 14.5836 7.03338C14.3264 6.80313 13.9313 6.82496 13.701 7.08213L10.8934 10.2181C10.3245 10.8536 9.94133 11.2793 9.61377 11.5546C9.30172 11.8168 9.11844 11.874 8.95833 11.874C8.79823 11.874 8.61495 11.8168 8.3029 11.5546C7.97533 11.2793 7.5922 10.8536 7.02329 10.2181L6.29898 9.4091C6.06874 9.15193 5.67361 9.1301 5.41644 9.36035C5.15927 9.59059 5.13744 9.98572 5.36769 10.2429L6.12294 11.0865C6.65281 11.6783 7.09479 12.172 7.49863 12.5115C7.92582 12.8705 8.3866 13.124 8.95833 13.124C9.53006 13.124 9.99084 12.8705 10.418 12.5115C10.8219 12.172 11.2638 11.6783 11.7937 11.0865L14.6323 7.91592Z" fill="#8B6DCA"/>
</svg>
