<svg width="124" height="28" viewBox="0 0 124 28" fill="none" xmlns="http://www.w3.org/2000/svg">
<rect width="124" height="28" rx="8" fill="#8B6DCA" fill-opacity="0.15"/>
<path d="M16.36 6.7265C17.0306 5.31382 18.9681 5.31382 19.6387 6.7265L20.7976 9.16797C21.0639 9.72895 21.5786 10.1178 22.174 10.2077L24.7655 10.5992C26.2649 10.8258 26.8636 12.7416 25.7786 13.8412L23.9034 15.7417C23.4726 16.1783 23.276 16.8074 23.3777 17.424L23.8204 20.1074C24.0765 21.6601 22.509 22.8442 21.1679 22.1111L18.85 20.8442C18.3175 20.5531 17.6812 20.5531 17.1487 20.8442L14.8308 22.1111C13.4897 22.8442 11.9222 21.6601 12.1783 20.1075L12.621 17.424C12.7227 16.8074 12.5261 16.1783 12.0953 15.7417L10.2201 13.8412C9.13507 12.7416 9.73379 10.8258 11.2332 10.5992L13.8247 10.2077C14.4201 10.1178 14.9348 9.72895 15.2011 9.16797L16.36 6.7265Z" fill="#8B6DCA"/>
<path d="M38.361 6.7265C39.0316 5.31382 40.9691 5.31382 41.6396 6.7265L42.7986 9.16797C43.0649 9.72895 43.5796 10.1178 44.175 10.2077L46.7664 10.5992C48.2659 10.8258 48.8646 12.7416 47.7796 13.8412L45.9044 15.7417C45.4736 16.1783 45.277 16.8074 45.3787 17.424L45.8213 20.1074C46.0775 21.6601 44.51 22.8442 43.1689 22.1111L40.851 20.8442C40.3184 20.5531 39.6822 20.5531 39.1496 20.8442L36.8318 22.1111C35.4907 22.8442 33.9232 21.6601 34.1793 20.1075L34.622 17.424C34.7237 16.8074 34.5271 16.1783 34.0962 15.7417L32.2211 13.8412C31.136 12.7416 31.7348 10.8258 33.2342 10.5992L35.8256 10.2077C36.4211 10.1178 36.9358 9.72895 37.2021 9.16797L38.361 6.7265Z" fill="#8B6DCA"/>
<path d="M60.36 6.7265C61.0306 5.31382 62.9681 5.31382 63.6387 6.7265L64.7976 9.16797C65.0639 9.72895 65.5786 10.1178 66.174 10.2077L68.7655 10.5992C70.2649 10.8258 70.8636 12.7416 69.7786 13.8412L67.9034 15.7417C67.4726 16.1783 67.276 16.8074 67.3777 17.424L67.8204 20.1074C68.0765 21.6601 66.509 22.8442 65.1679 22.1111L62.85 20.8442C62.3175 20.5531 61.6812 20.5531 61.1487 20.8442L58.8308 22.1111C57.4897 22.8442 55.9222 21.6601 56.1783 20.1075L56.621 17.424C56.7227 16.8074 56.5261 16.1783 56.0953 15.7417L54.2201 13.8412C53.1351 12.7416 53.7338 10.8258 55.2332 10.5992L57.8247 10.2077C58.4201 10.1178 58.9348 9.72895 59.2011 9.16797L60.36 6.7265Z" fill="#8B6DCA"/>
<path d="M82.36 6.7265C83.0306 5.31382 84.9681 5.31382 85.6387 6.7265L86.7976 9.16797C87.0639 9.72895 87.5786 10.1178 88.174 10.2077L90.7655 10.5992C92.2649 10.8258 92.8636 12.7416 91.7786 13.8412L89.9034 15.7417C89.4726 16.1783 89.276 16.8074 89.3777 17.424L89.8204 20.1074C90.0765 21.6601 88.509 22.8442 87.1679 22.1111L84.85 20.8442C84.3175 20.5531 83.6812 20.5531 83.1487 20.8442L80.8308 22.1111C79.4897 22.8442 77.9222 21.6601 78.1783 20.1075L78.621 17.424C78.7227 16.8074 78.5261 16.1783 78.0953 15.7417L76.2201 13.8412C75.1351 12.7416 75.7338 10.8258 77.2332 10.5992L79.8247 10.2077C80.4201 10.1178 80.9348 9.72895 81.2011 9.16797L82.36 6.7265Z" fill="#8B6DCA"/>
<path d="M104.361 6.7265C105.032 5.31382 106.969 5.31382 107.64 6.7265L108.799 9.16797C109.065 9.72895 109.58 10.1178 110.175 10.2077L112.766 10.5992C114.266 10.8258 114.865 12.7416 113.78 13.8412L111.904 15.7417C111.474 16.1783 111.277 16.8074 111.379 17.424L111.821 20.1074C112.077 21.6601 110.51 22.8442 109.169 22.1111L106.851 20.8442C106.318 20.5531 105.682 20.5531 105.15 20.8442L102.832 22.1111C101.491 22.8442 99.9232 21.6601 100.179 20.1075L100.622 17.424C100.724 16.8074 100.527 16.1783 100.096 15.7417L98.2211 13.8412C97.136 12.7416 97.7348 10.8258 99.2342 10.5992L101.826 10.2077C102.421 10.1178 102.936 9.72895 103.202 9.16797L104.361 6.7265Z" fill="#8B6DCA"/>
</svg>
