<svg width="24" height="25" viewBox="0 0 24 25" fill="none" xmlns="http://www.w3.org/2000/svg">
<path fill-rule="evenodd" clip-rule="evenodd" d="M3.96127 11.286C8.979 9.10685 12.3194 7.65887 13.9967 6.95639C18.7707 4.96363 19.7743 4.61956 20.4194 4.60522C20.5628 4.60522 20.8782 4.6339 21.0932 4.80593C21.2653 4.9493 21.3083 5.13567 21.337 5.27904C21.3656 5.4224 21.3943 5.72346 21.3656 5.95284C21.1076 8.67676 19.9893 15.2858 19.4159 18.3251C19.1722 19.6154 18.6991 20.0455 18.2403 20.0885C17.2368 20.1745 16.4769 19.429 15.5164 18.7982C13.9967 17.809 13.1509 17.1926 11.6742 16.2177C9.96821 15.0995 11.0721 14.483 12.047 13.4794C12.305 13.2214 16.7063 9.2072 16.7923 8.84879C16.8067 8.80578 16.8067 8.63375 16.7063 8.54773C16.606 8.46171 16.4626 8.49038 16.3479 8.51906C16.1902 8.54773 13.7817 10.1534 9.09369 13.3217C8.40554 13.7948 7.78908 14.0242 7.22996 14.0099C6.6135 13.9956 5.43791 13.6658 4.54906 13.3791C3.47383 13.035 2.61365 12.8486 2.68533 12.2465C2.72834 11.9311 3.15843 11.6157 3.96127 11.286Z" fill="#7B8293"/>
</svg>
