<svg width="20" height="20" viewBox="0 0 20 20" fill="none" xmlns="http://www.w3.org/2000/svg">
<rect width="20" height="20" rx="6" fill="#8B6DCA"/>
<path d="M16.2387 6.72862C16.4316 6.49712 16.4003 6.15305 16.1688 5.96013C15.9373 5.76721 15.5933 5.79849 15.4003 6.02999L11.4785 10.7362C10.6907 11.6816 10.1365 12.3445 9.65584 12.7786C9.18638 13.2025 8.86238 13.3373 8.54426 13.3373C8.22615 13.3373 7.90215 13.2025 7.43269 12.7786C6.95201 12.3445 6.39783 11.6816 5.61004 10.7362L4.59829 9.52212C4.40537 9.29061 4.0613 9.25933 3.8298 9.45225C3.59829 9.64517 3.56702 9.98924 3.75994 10.2207L4.79977 11.4685C5.55295 12.3724 6.15613 13.0962 6.70131 13.5885C7.26446 14.097 7.84012 14.4285 8.54426 14.4285C9.24841 14.4285 9.82407 14.097 10.3872 13.5885C10.9324 13.0962 11.5356 12.3724 12.2887 11.4686L16.2387 6.72862Z" fill="#E9E3F6"/>
</svg>
