<svg width="28" height="27" viewBox="0 0 28 27" fill="none" xmlns="http://www.w3.org/2000/svg">
<path d="M27.4349 16.7657C25.6318 23.9979 18.3068 28.3993 11.0737 26.5958C3.84367 24.7928 -0.557712 17.4673 1.2461 10.2357C3.04833 3.00266 10.3734 -1.39906 17.6042 0.403966C24.8368 2.20699 29.2379 9.5333 27.4347 16.7658L27.4348 16.7657H27.4349Z" fill="#7B8293"/>
<path d="M20.2932 11.5768C20.5619 9.78019 19.1942 8.81448 17.3238 8.17025L17.9306 5.73666L16.4492 5.36753L15.8585 7.73705C15.4691 7.63991 15.0691 7.54839 14.6716 7.45766L15.2666 5.0725L13.7861 4.70337L13.179 7.13617C12.8567 7.06279 12.5402 6.99027 12.2331 6.91386L12.2348 6.90621L10.1919 6.39606L9.79785 7.97829C9.79785 7.97829 10.8969 8.23023 10.8738 8.24574C11.4736 8.39546 11.5821 8.79257 11.5641 9.10733L10.873 11.8798C10.9143 11.8903 10.9679 11.9054 11.027 11.9292C10.9776 11.9169 10.925 11.9035 10.8704 11.8905L9.90165 15.7742C9.82833 15.9565 9.64225 16.23 9.22284 16.1261C9.23769 16.1477 8.14613 15.8574 8.14613 15.8574L7.41064 17.5532L9.33845 18.0338C9.69709 18.1237 10.0485 18.2178 10.3946 18.3063L9.78162 20.7678L11.2613 21.1369L11.8684 18.7015C12.2726 18.8113 12.6649 18.9125 13.049 19.0079L12.4439 21.4318L13.9254 21.8009L14.5383 19.3441C17.0644 19.8221 18.9639 19.6294 19.7634 17.3445C20.4076 15.5049 19.7313 14.4439 18.4023 13.7519C19.3703 13.5287 20.0994 12.8921 20.2938 11.5769L20.2933 11.5766L20.2932 11.5768ZM16.9086 16.3229C16.4508 18.1625 13.3535 17.1681 12.3493 16.9187L13.1628 13.6576C14.1669 13.9083 17.3871 14.4044 16.9086 16.3229H16.9086ZM17.3667 11.5501C16.9491 13.2234 14.3712 12.3733 13.5349 12.1648L14.2725 9.20723C15.1087 9.41568 17.8018 9.80474 17.3669 11.5501H17.3667Z" fill="#241F2A"/>
</svg>
