<svg width="20" height="20" viewBox="0 0 20 20" fill="none" xmlns="http://www.w3.org/2000/svg">
<path d="M17.6099 8.21087C18.5762 9.2276 18.5762 10.7723 17.6099 11.789C15.9801 13.5038 13.1809 15.8333 10.0013 15.8333C6.82171 15.8333 4.02255 13.5038 2.39272 11.789C1.42638 10.7723 1.42638 9.2276 2.39272 8.21088C4.02255 6.49607 6.82171 4.16663 10.0013 4.16663C13.1809 4.16663 15.9801 6.49607 17.6099 8.21087Z" stroke="#7B8293" stroke-width="1.25"/>
<path d="M12.5013 9.99996C12.5013 11.3807 11.382 12.5 10.0013 12.5C8.62059 12.5 7.5013 11.3807 7.5013 9.99996C7.5013 8.61925 8.62059 7.49996 10.0013 7.49996C11.382 7.49996 12.5013 8.61925 12.5013 9.99996Z" stroke="#7B8293" stroke-width="1.25"/>
</svg>
