<svg width="24" height="24" viewBox="0 0 24 24" fill="none" xmlns="http://www.w3.org/2000/svg">
<path d="M7.53269 14.5289C7.24111 14.8231 6.76624 14.8253 6.47204 14.5337C6.17784 14.2421 6.17573 13.7672 6.46731 13.473L8.2461 11.6783C8.91604 11.0023 9.46359 10.4498 9.95146 10.058C10.4588 9.6506 10.9737 9.35567 11.5918 9.27689C11.8629 9.24234 12.1371 9.24234 12.4082 9.27689C13.0263 9.35567 13.5412 9.6506 14.0485 10.058C14.5364 10.4498 15.084 11.0023 15.7539 11.6783L17.5327 13.473C17.8243 13.7672 17.8222 14.2421 17.528 14.5337C17.2338 14.8253 16.7589 14.8231 16.4673 14.5289L14.72 12.766C14.0109 12.0505 13.5228 11.5597 13.1093 11.2276C12.7076 10.905 12.4496 10.7943 12.2185 10.7648C12.0734 10.7464 11.9266 10.7464 11.7815 10.7648C11.5504 10.7943 11.2924 10.905 10.8907 11.2276C10.4772 11.5597 9.98914 12.0505 9.28 12.766L7.53269 14.5289Z" fill="#7B8293"/>
</svg>
