<svg width="34" height="34" viewBox="0 0 34 34" fill="none" xmlns="http://www.w3.org/2000/svg">
<circle cx="17" cy="17" r="11.3333" stroke="#8B6DCA" stroke-width="2.83333"/>
<path d="M15.5833 12.75C15.5833 13.5324 16.2176 14.1667 17 14.1667C17.7824 14.1667 18.4167 13.5324 18.4167 12.75H15.5833ZM15.5833 5.66669V12.75H18.4167V5.66669H15.5833Z" fill="#8B6DCA"/>
<path d="M18.4167 21.25C18.4167 20.4676 17.7824 19.8334 17 19.8334C16.2176 19.8334 15.5833 20.4676 15.5833 21.25H18.4167ZM18.4167 28.3334V21.25H15.5833V28.3334H18.4167Z" fill="#8B6DCA"/>
<path d="M12.7503 18.4167C13.5327 18.4167 14.167 17.7824 14.167 17C14.167 16.2176 13.5327 15.5833 12.7503 15.5833V18.4167ZM5.66699 18.4167H12.7503V15.5833H5.66699V18.4167Z" fill="#8B6DCA"/>
<path d="M21.2507 15.5833C20.4682 15.5833 19.834 16.2176 19.834 17C19.834 17.7824 20.4682 18.4167 21.2507 18.4167V15.5833ZM28.334 15.5833H21.2507V18.4167H28.334V15.5833Z" fill="#8B6DCA"/>
</svg>
