<svg width="24" height="24" viewBox="0 0 24 24" fill="none" xmlns="http://www.w3.org/2000/svg">
<path fill-rule="evenodd" clip-rule="evenodd" d="M10 1.25024C10.4142 1.25024 10.75 1.58603 10.75 2.00024V4.00024H13.25V2.00024C13.25 1.58603 13.5858 1.25024 14 1.25024C14.4142 1.25024 14.75 1.58603 14.75 2.00024V4.00024H16C18.2091 4.00024 20 5.79111 20 8.00024V9.25024H22C22.4142 9.25024 22.75 9.58603 22.75 10.0002C22.75 10.4145 22.4142 10.7502 22 10.7502H20V13.2502H22C22.4142 13.2502 22.75 13.586 22.75 14.0002C22.75 14.4145 22.4142 14.7502 22 14.7502H20V16.0002C20 18.2094 18.2091 20.0002 16 20.0002H14.75V22.0002C14.75 22.4145 14.4142 22.7502 14 22.7502C13.5858 22.7502 13.25 22.4145 13.25 22.0002V20.0002H10.75V22.0002C10.75 22.4145 10.4142 22.7502 10 22.7502C9.58579 22.7502 9.25 22.4145 9.25 22.0002V20.0002H8C5.79086 20.0002 4 18.2094 4 16.0002V14.7502H2C1.58579 14.7502 1.25 14.4145 1.25 14.0002C1.25 13.586 1.58579 13.2502 2 13.2502H4V10.7502H2C1.58579 10.7502 1.25 10.4145 1.25 10.0002C1.25 9.58603 1.58579 9.25024 2 9.25024H4V8.00024C4 5.79111 5.79086 4.00024 8 4.00024H9.25V2.00024C9.25 1.58603 9.58579 1.25024 10 1.25024ZM11 9.00024C9.89543 9.00024 9 9.89567 9 11.0002V13.0002C9 14.1048 9.89543 15.0002 11 15.0002H13C14.1046 15.0002 15 14.1048 15 13.0002V11.0002C15 9.89567 14.1046 9.00024 13 9.00024H11Z" fill="#7B8293"/>
</svg>
