<svg width="28" height="28" viewBox="0 0 28 28" fill="none" xmlns="http://www.w3.org/2000/svg">
<path fill-rule="evenodd" clip-rule="evenodd" d="M14.8747 3.20819C14.8747 2.72494 14.4829 2.33319 13.9997 2.33319C13.5164 2.33319 13.1247 2.72494 13.1247 3.20819V5.54152C13.1247 6.02477 13.5164 6.41652 13.9997 6.41652C14.4829 6.41652 14.8747 6.02477 14.8747 5.54152V3.20819ZM4.11839 6.08947C3.77668 5.74776 3.22266 5.74776 2.88096 6.08947C2.53925 6.43118 2.53925 6.9852 2.88096 7.32691L4.63096 9.07691C4.97266 9.41862 5.52668 9.41862 5.86839 9.07691C6.2101 8.7352 6.2101 8.18118 5.86839 7.83947L4.11839 6.08947ZM25.1184 7.32691C25.4601 6.9852 25.4601 6.43118 25.1184 6.08947C24.7767 5.74776 24.2227 5.74776 23.881 6.08947L22.131 7.83947C21.7892 8.18118 21.7892 8.7352 22.131 9.07691C22.4727 9.41862 23.0267 9.41862 23.3684 9.07691L25.1184 7.32691ZM24.3564 14.3746C26.103 16.0466 26.103 18.9534 24.3564 20.6254C21.9486 22.9302 18.2046 25.6667 13.9997 25.6667C9.79477 25.6667 6.05073 22.9302 3.64295 20.6254C1.89636 18.9534 1.89636 16.0466 3.64295 14.3746C6.05072 12.0698 9.79477 9.33333 13.9997 9.33333C18.2046 9.33333 21.9486 12.0698 24.3564 14.3746ZM17.4996 17.5C17.4996 19.433 15.9326 21 13.9996 21C12.0666 21 10.4996 19.433 10.4996 17.5C10.4996 15.567 12.0666 14 13.9996 14C15.9326 14 17.4996 15.567 17.4996 17.5Z" fill="#8B6DCA"/>
</svg>
