<svg width="24" height="24" viewBox="0 0 24 24" fill="none" xmlns="http://www.w3.org/2000/svg">
<path fill-rule="evenodd" clip-rule="evenodd" d="M6.4897 4.25049C3.13591 4.25049 0.559666 7.22092 1.03396 10.541L1.26486 12.1573L2.72114 17.2542C3.1433 18.7318 4.4938 19.7505 6.03049 19.7505C7.20161 19.7505 8.29236 19.155 8.92565 18.1699L9.30002 17.5875C10.5635 15.6221 13.4366 15.6221 14.7001 17.5875L14.9291 17.9438C15.653 19.0698 16.8998 19.7505 18.2385 19.7505C20.1963 19.7505 21.8562 18.3109 22.1331 16.3727L22.9662 10.541C23.4405 7.22092 20.8642 4.25049 17.5105 4.25049C16.7393 4.25049 15.9768 4.41231 15.2722 4.72548L14.7412 4.96148C13.7159 5.41717 13.3008 5.59749 12.8826 5.68626C12.3007 5.80978 11.6994 5.80978 11.1175 5.68626C10.6994 5.59749 10.2843 5.41717 9.25896 4.96148L8.72798 4.72548C8.02333 4.41231 7.26081 4.25049 6.4897 4.25049ZM7.00006 8.25049C7.41427 8.25049 7.75006 8.58627 7.75006 9.00049V10.2505H9.00006C9.41427 10.2505 9.75006 10.5863 9.75006 11.0005C9.75006 11.4147 9.41427 11.7505 9.00006 11.7505H7.75006V13.0005C7.75006 13.4147 7.41427 13.7505 7.00006 13.7505C6.58585 13.7505 6.25006 13.4147 6.25006 13.0005V11.7505H5.00006C4.58585 11.7505 4.25006 11.4147 4.25006 11.0005C4.25006 10.5863 4.58585 10.2505 5.00006 10.2505H6.25006V9.00049C6.25006 8.58627 6.58585 8.25049 7.00006 8.25049ZM17.0001 10.0005C17.5524 10.0005 18.0001 9.55277 18.0001 9.00049C18.0001 8.4482 17.5524 8.00049 17.0001 8.00049C16.4478 8.00049 16.0001 8.4482 16.0001 9.00049C16.0001 9.55277 16.4478 10.0005 17.0001 10.0005ZM15.0001 12.0005C15.5524 12.0005 16.0001 11.5528 16.0001 11.0005C16.0001 10.4482 15.5524 10.0005 15.0001 10.0005C14.4478 10.0005 14.0001 10.4482 14.0001 11.0005C14.0001 11.5528 14.4478 12.0005 15.0001 12.0005ZM20.0001 11.0005C20.0001 11.5528 19.5524 12.0005 19.0001 12.0005C18.4478 12.0005 18.0001 11.5528 18.0001 11.0005C18.0001 10.4482 18.4478 10.0005 19.0001 10.0005C19.5524 10.0005 20.0001 10.4482 20.0001 11.0005ZM17.0001 14.0005C17.5524 14.0005 18.0001 13.5528 18.0001 13.0005C18.0001 12.4482 17.5524 12.0005 17.0001 12.0005C16.4478 12.0005 16.0001 12.4482 16.0001 13.0005C16.0001 13.5528 16.4478 14.0005 17.0001 14.0005Z" fill="#7B8293"/>
</svg>
