<svg width="24" height="24" viewBox="0 0 24 24" fill="none" xmlns="http://www.w3.org/2000/svg">
<path d="M9.56284 1.25C8.02104 1.25 6.77117 2.49987 6.77117 4.04167C6.77117 4.75503 6.19287 5.33333 5.4795 5.33333H5.17064C3.59458 5.33333 2.19067 6.55273 2.27617 8.24648C2.3777 10.2575 2.82435 13.3918 4.4535 16.3608C4.9098 17.1923 5.51919 18.0092 6.17795 18.7703L6.22755 18.8276C7.17522 19.9226 7.96537 20.8356 8.81485 21.4579C9.72853 22.1273 10.7037 22.4607 12 22.4607C13.2963 22.4607 14.2715 22.1273 15.1852 21.4579C16.0346 20.8356 16.8248 19.9226 17.7725 18.8276L17.8221 18.7703C18.4808 18.0092 19.0902 17.1923 19.5465 16.3608C21.2298 13.2931 21.6496 9.82667 21.7324 7.66561C21.7969 5.97999 20.403 4.75 18.8182 4.75H18.2288C17.6766 4.75 17.2288 4.30228 17.2288 3.75C17.2288 2.36929 16.1096 1.25 14.7288 1.25H9.56284Z" fill="#7B8293"/>
</svg>
