<svg width="24" height="24" viewBox="0 0 24 24" fill="none" xmlns="http://www.w3.org/2000/svg">
<path d="M18.7803 3.46918C18.4874 3.17629 18.0126 3.17629 17.7197 3.46918C17.4268 3.76207 17.4268 4.23695 17.7197 4.52984L18.444 5.25418C16.6098 5.32804 14.9151 6.27485 13.8916 7.80998L12 10.6474L10.1084 7.80998C9.04194 6.21034 7.24661 5.24951 5.32408 5.24951H5C4.58579 5.24951 4.25 5.5853 4.25 5.99951C4.25 6.41373 4.58579 6.74951 5 6.74951H5.32408C6.74508 6.74951 8.07206 7.45969 8.86029 8.64204L11.0986 11.9995L8.8603 15.357C8.07207 16.5393 6.74508 17.2495 5.32408 17.2495H5C4.58579 17.2495 4.25 17.5853 4.25 17.9995C4.25 18.4137 4.58579 18.7495 5 18.7495H5.32408C7.24661 18.7495 9.04194 17.7887 10.1084 16.189L12 13.3516L13.8916 16.189C14.8699 17.6564 16.4614 18.5862 18.2019 18.73L17.5199 19.2983C17.2017 19.5635 17.1587 20.0364 17.4238 20.3547C17.689 20.6729 18.1619 20.7159 18.4801 20.4507L19.8889 19.2767C20.2732 18.9565 20.4839 18.5073 20.5146 18.0498C20.5471 17.5672 20.3796 17.0685 20.006 16.6949L18.7803 15.4692C18.4874 15.1763 18.0126 15.1763 17.7197 15.4692C17.4268 15.7621 17.4268 16.2369 17.7197 16.5298L18.4324 17.2425C17.1044 17.1665 15.8827 16.4715 15.1397 15.357L12.9014 11.9995L15.1397 8.64204C15.8273 7.61057 16.925 6.93846 18.1374 6.78371L17.5199 7.29835C17.2017 7.56352 17.1587 8.03644 17.4238 8.35465C17.689 8.67286 18.1619 8.71585 18.4801 8.45068L19.8889 7.2767C20.2732 6.95648 20.4839 6.50731 20.5146 6.04978C20.5471 5.56721 20.3796 5.06845 20.006 4.69488L18.7803 3.46918Z" fill="#7B8293"/>
</svg>
