<svg width="64" height="64" viewBox="0 0 64 64" fill="none" xmlns="http://www.w3.org/2000/svg">
<g clip-path="url(#clip0_1_5295)">
<rect width="64" height="64" rx="10.6667" fill="#8B6DCA" fill-opacity="0.07"/>
<path fill-rule="evenodd" clip-rule="evenodd" d="M43.2734 22.3075C44 23.7335 44 25.6004 44 29.3341V32.9325C44 33.3054 44 33.4918 43.9925 33.6493C43.83 37.0834 41.0827 39.8307 37.6486 39.9933C37.4911 40.0007 37.2831 40.0007 36.8671 40.0007L36.7604 40.0009C35.4001 40.0096 34.075 40.4342 32.963 41.2178L32.8923 41.2681L29.4113 43.7546C28.218 44.6069 26.6499 43.376 27.1945 42.0144C27.5803 41.0499 26.87 40.0007 25.8312 40.0007H25.0289C22.2515 40.0007 20 37.7492 20 34.9718V29.3341C20 25.6004 20 23.7335 20.7266 22.3075C21.3658 21.053 22.3856 20.0332 23.6401 19.394C25.0661 18.6674 26.933 18.6674 30.6667 18.6674H33.3333C37.067 18.6674 38.9339 18.6674 40.3599 19.394C41.6144 20.0332 42.6342 21.053 43.2734 22.3075ZM26.6667 27.6674L32 27.6674C32.5523 27.6674 33 27.2197 33 26.6674C33 26.1151 32.5523 25.6674 32 25.6674L26.6667 25.6674C26.1144 25.6674 25.6667 26.1151 25.6667 26.6674C25.6667 27.2197 26.1144 27.6674 26.6667 27.6674ZM26.6667 31.0007C26.1144 31.0007 25.6667 31.4484 25.6667 32.0007C25.6667 32.553 26.1144 33.0007 26.6667 33.0007H37.3333C37.8856 33.0007 38.3333 32.553 38.3333 32.0007C38.3333 31.4484 37.8856 31.0007 37.3333 31.0007H26.6667Z" fill="#8B6DCA"/>
<g filter="url(#filter0_f_1_5295)">
<ellipse cx="32" cy="79.4998" rx="29" ry="24.0887" fill="#8B6DCA"/>
</g>
</g>
<rect x="1" y="1" width="62" height="62" rx="9.66667" stroke="url(#paint0_linear_1_5295)" stroke-width="2"/>
<defs>
<filter id="filter0_f_1_5295" x="-26.0764" y="26.3347" width="116.153" height="106.33" filterUnits="userSpaceOnUse" color-interpolation-filters="sRGB">
<feFlood flood-opacity="0" result="BackgroundImageFix"/>
<feBlend mode="normal" in="SourceGraphic" in2="BackgroundImageFix" result="shape"/>
<feGaussianBlur stdDeviation="14.5382" result="effect1_foregroundBlur_1_5295"/>
</filter>
<linearGradient id="paint0_linear_1_5295" x1="26" y1="-5.07597e-06" x2="61.0958" y2="30.3081" gradientUnits="userSpaceOnUse">
<stop stop-color="#8B6DCA"/>
<stop offset="0.246947" stop-color="#8B6DCA" stop-opacity="0"/>
<stop offset="0.798736" stop-color="#8B6DCA" stop-opacity="0"/>
<stop offset="1" stop-color="#8B6DCA"/>
</linearGradient>
<clipPath id="clip0_1_5295">
<rect width="64" height="64" rx="10.6667" fill="white"/>
</clipPath>
</defs>
</svg>
