<svg width="18" height="18" viewBox="0 0 18 18" fill="none" xmlns="http://www.w3.org/2000/svg">
<g clip-path="url(#clip0_1_5146)">
<path d="M6.86013 14.1337C5.52046 12.0962 5.74571 9.33027 7.5359 7.53783C9.34117 5.73029 12.1352 5.51616 14.1747 6.89546M6.86013 14.1337C7.05296 14.427 7.27822 14.7051 7.5359 14.9631C8.72712 16.1559 11.2533 17.1871 13.3035 15.9185C13.4176 15.8479 13.4747 15.8126 13.5178 15.7955C13.6003 15.7628 13.6628 15.7533 13.7513 15.7601C13.7975 15.7637 13.8499 15.7773 13.9548 15.8045C14.6143 15.9757 14.9441 16.0613 15.1817 16.0129C15.5941 15.9288 15.9163 15.6062 16.0003 15.1933C16.0486 14.9554 15.9631 14.6252 15.7922 13.9648C15.765 13.8598 15.7514 13.8073 15.7479 13.7609C15.7411 13.6723 15.7507 13.6089 15.7835 13.5264C15.8008 13.4831 15.836 13.4264 15.9064 13.313C17.1777 11.2646 16.1938 8.78135 14.9519 7.53783C14.7093 7.29493 14.4488 7.08081 14.1747 6.89546M6.86013 14.1337L6.75 14.1148C6.2838 14.0029 5.8235 13.8174 5.38143 13.5438C5.24288 13.4581 5.17361 13.4153 5.12123 13.3945C5.02108 13.3548 4.94513 13.3433 4.83774 13.3516C4.78157 13.3559 4.71793 13.3725 4.59064 13.4055C3.78973 13.6133 3.38928 13.7173 3.10078 13.6585C2.60005 13.5564 2.20872 13.1646 2.10682 12.6633C2.04811 12.3744 2.1519 11.9734 2.35949 11.1715C2.39249 11.044 2.40898 10.9803 2.41331 10.9239C2.42155 10.8164 2.40984 10.7394 2.36998 10.6392C2.34907 10.5867 2.30632 10.5178 2.22083 10.38C0.677027 7.89273 1.8718 4.87735 3.37988 3.36737C5.86657 0.877545 9.89829 0.877545 12.385 3.36737C13.3786 4.36221 13.9752 5.60403 14.1747 6.89546" stroke="#7B8293" stroke-width="1.125"/>
<path d="M9.75 11.25C9.75 11.6642 9.41421 12 9 12C8.58579 12 8.25 11.6642 8.25 11.25C8.25 10.8358 8.58579 10.5 9 10.5C9.41421 10.5 9.75 10.8358 9.75 11.25Z" fill="#7B8293"/>
<path d="M12 11.25C12 11.6642 11.6642 12 11.25 12C10.8358 12 10.5 11.6642 10.5 11.25C10.5 10.8358 10.8358 10.5 11.25 10.5C11.6642 10.5 12 10.8358 12 11.25Z" fill="#7B8293"/>
<path d="M14.25 11.25C14.25 11.6642 13.9142 12 13.5 12C13.0858 12 12.75 11.6642 12.75 11.25C12.75 10.8358 13.0858 10.5 13.5 10.5C13.9142 10.5 14.25 10.8358 14.25 11.25Z" fill="#7B8293"/>
</g>
<defs>
<clipPath id="clip0_1_5146">
<rect width="18" height="18" fill="white"/>
</clipPath>
</defs>
</svg>
