<svg width="43" height="48" viewBox="0 0 43 48" fill="none" xmlns="http://www.w3.org/2000/svg">
<path d="M1.33984 19.2332L1.33984 13.6454L20.6964 24.8209V30.4087L1.33984 19.2332Z" fill="#7B8293"/>
<path d="M1.33984 35.9964L1.33984 30.4087L20.6964 41.5842V47.1719L1.33984 35.9964Z" fill="#7B8293"/>
<path d="M1.33984 27.6148L1.33984 22.027L20.6964 33.2025V38.7903L1.33984 27.6148Z" fill="#7B8293"/>
<path d="M1.33984 13.6454L6.17898 16.4393V30.4087L1.33984 27.6148L1.33984 13.6454Z" fill="#7B8293"/>
<path d="M15.8573 30.4087L20.6964 33.2025V47.1719L15.8573 44.3781V30.4087Z" fill="#7B8293"/>
<path d="M22.7918 24.8209L27.6309 22.027V44.3781L22.7918 47.1719V24.8209Z" fill="#7B8293"/>
<path d="M22.7918 30.4087V24.8209L42.1483 13.6454V19.2332L22.7918 30.4087Z" fill="#7B8293"/>
<path d="M22.7918 47.1719V41.5842L42.1483 30.4087V35.9964L22.7918 47.1719Z" fill="#7B8293"/>
<path d="M37.3092 24.8209L42.1483 22.027V35.9964L37.3092 38.7903V24.8209Z" fill="#7B8293"/>
<path d="M30.0505 34.5995V29.0117L42.1483 22.027V27.6148L30.0505 34.5995Z" fill="#7B8293"/>
<path d="M23.3571 7.24276L16.905 3.5176L16.9049 9.10535L23.2563 12.7723L23.3571 7.24276Z" fill="#7B8293"/>
<path d="M7.22668 9.10536L13.6788 12.8305L23.2563 12.7723L16.9049 9.10535L7.22668 9.10536Z" fill="#7B8293"/>
<path d="M4.80712 10.5023L2.38755 11.8992L21.7441 23.0747L26.5832 20.2809L13.6788 12.8305L9.64623 13.2962L4.80712 10.5023Z" fill="#7B8293"/>
<path d="M21.7441 0.723724L19.3245 2.12066L24.1636 4.91453L23.3571 7.24276L36.2615 14.6931L41.1006 11.8992L21.7441 0.723724Z" fill="#7B8293"/>
<path d="M19.3245 2.12066L16.905 3.5176L23.3571 7.24276L24.1636 4.91453L19.3245 2.12066Z" fill="#7B8293"/>
<path d="M7.22668 9.10536L4.80712 10.5023L9.64623 13.2962L13.6788 12.8305L7.22668 9.10536Z" fill="#7B8293"/>
</svg>
