<svg width="18" height="18" viewBox="0 0 18 18" fill="none" xmlns="http://www.w3.org/2000/svg">
<path fill-rule="evenodd" clip-rule="evenodd" d="M5.24805 1.68555C3.28053 1.68555 1.68555 3.28053 1.68555 5.24805V12.748C1.68555 14.7156 3.28053 16.3105 5.24805 16.3105H8.24805C10.2156 16.3105 11.8105 14.7156 11.8105 12.748V12.373C11.8105 12.0624 11.5587 11.8105 11.248 11.8105C10.9374 11.8105 10.6855 12.0624 10.6855 12.373V12.748C10.6855 14.0942 9.59424 15.1855 8.24805 15.1855H5.24805C3.90185 15.1855 2.81055 14.0942 2.81055 12.748V5.24805C2.81055 3.90185 3.90185 2.81055 5.24805 2.81055H8.24805C9.59424 2.81055 10.6855 3.90185 10.6855 5.24805V5.62305C10.6855 5.93371 10.9374 6.18555 11.248 6.18555C11.5587 6.18555 11.8105 5.93371 11.8105 5.62305V5.24805C11.8105 3.28053 10.2156 1.68555 8.24805 1.68555H5.24805ZM13.8958 6.3503C13.6761 6.13063 13.32 6.13063 13.1003 6.3503C12.8806 6.56997 12.8806 6.92612 13.1003 7.14579L14.3901 8.43555H6.74805C6.43739 8.43555 6.18555 8.68739 6.18555 8.99805C6.18555 9.30871 6.43739 9.56055 6.74805 9.56055H14.3901L13.1003 10.8503C12.8806 11.07 12.8806 11.4261 13.1003 11.6458C13.32 11.8655 13.6761 11.8655 13.8958 11.6458L16.1458 9.39579C16.3655 9.17612 16.3655 8.81997 16.1458 8.6003L13.8958 6.3503Z" fill="#7B8293"/>
</svg>
