<svg width="196" height="196" viewBox="0 0 196 196" fill="none" xmlns="http://www.w3.org/2000/svg">
<rect width="196" height="196" rx="12" fill="#272C33"/>
<path d="M75.0406 18.2551V16H70.7355C70.112 16 69.5802 16.22 69.1404 16.6599C68.7005 17.0998 68.4805 17.6315 68.4805 18.2551V20.3051C68.4805 20.9286 68.7004 21.4604 69.1404 21.9003C69.5803 22.3401 70.112 22.5602 70.7355 22.5602H75.0406V18.2551Z" fill="#7B8293"/>
<path d="M81.5992 18.2551C81.5992 17.6315 81.3792 17.0997 80.9393 16.6599C80.4995 16.22 79.9677 16 79.3442 16H75.0391V22.5602H81.5992V18.2551Z" fill="#7B8293"/>
<path d="M107.839 20.3051C107.839 20.9288 107.619 21.4604 107.18 21.9003C106.74 22.3401 106.208 22.5602 105.584 22.5602H103.534C102.911 22.5602 102.379 22.3401 101.939 21.9003C101.499 21.4604 101.279 20.9288 101.279 20.3051V18.2551C101.279 17.6316 101.499 17.0998 101.939 16.66C102.379 16.22 102.911 16 103.534 16H105.584C106.208 16 106.74 16.22 107.18 16.6599C107.619 17.0999 107.839 17.6316 107.839 18.2551V20.3051Z" fill="#7B8293"/>
<path d="M127.523 18.2551C127.523 17.6315 127.303 17.0997 126.863 16.6599C126.423 16.22 125.892 16 125.268 16H123.218C122.594 16 122.063 16.22 121.623 16.6599C121.183 17.0998 120.963 17.6315 120.963 18.2551V20.3051C120.963 20.3393 120.967 20.3906 120.976 20.4589H120.963V22.5602H127.523V20.4589H127.51C127.519 20.3906 127.523 20.3394 127.523 20.3051V18.2551Z" fill="#7B8293"/>
<path d="M81.5864 24.6601H81.5992V22.5588H75.0391V24.6601H75.0519C75.0433 24.7285 75.0391 24.7797 75.0391 24.8139V26.8639C75.0391 27.4875 75.259 28.0193 75.6989 28.4591C76.1389 28.899 76.6706 29.119 77.2941 29.119H79.3442C79.9677 29.119 80.4995 28.899 80.9393 28.4591C81.3792 28.0193 81.5992 27.4875 81.5992 26.8639V24.8139C81.5992 24.7797 81.5951 24.7285 81.5864 24.6601Z" fill="#7B8293"/>
<path d="M94.7203 24.8145C94.7203 24.191 94.5003 23.6592 94.0604 23.2193C93.6206 22.7795 93.0888 22.5594 92.4653 22.5594H90.4152C89.7917 22.5594 89.2599 22.7794 88.82 23.2193C88.3802 23.6593 88.1602 24.191 88.1602 24.8145V26.8646C88.1602 26.8987 88.1644 26.95 88.1729 27.0183H88.1602V29.1196H94.7203V27.0183H94.7075C94.7162 26.95 94.7203 26.8988 94.7203 26.8646V24.8145Z" fill="#7B8293"/>
<path d="M114.406 24.8145C114.406 24.191 114.186 23.6592 113.746 23.2193C113.306 22.7795 112.774 22.5594 112.151 22.5594H110.101C109.477 22.5594 108.945 22.7794 108.506 23.2193C108.066 23.6593 107.846 24.191 107.846 24.8145V26.8646C107.846 26.8987 107.85 26.95 107.858 27.0183H107.846V29.1196H114.406V27.0183H114.393C114.402 26.95 114.406 26.8988 114.406 26.8646V24.8145Z" fill="#7B8293"/>
<path d="M127.521 22.5578H120.961V29.118H127.521V22.5578Z" fill="#7B8293"/>
<path d="M94.7203 29.121H88.1602V33.4261C88.1602 34.0496 88.3801 34.5814 88.82 35.0212C89.26 35.4611 89.7917 35.6811 90.4152 35.6811H94.7203V29.121Z" fill="#7B8293"/>
<path d="M99.0278 29.121H94.7227V35.6811H99.0278C99.6513 35.6811 100.183 35.4611 100.623 35.0212C101.063 34.5814 101.283 34.0496 101.283 33.4261V31.376C101.283 30.7525 101.063 30.2207 100.623 29.7809C100.183 29.341 99.6513 29.121 99.0278 29.121Z" fill="#7B8293"/>
<path d="M114.404 29.1195H107.844V35.6797H114.404V29.1195Z" fill="#7B8293"/>
<path d="M127.521 29.1195H120.961V35.6797H127.521V29.1195Z" fill="#7B8293"/>
<path d="M75.0387 37.9346V35.6796H70.7336C70.11 35.6796 69.5783 35.8995 69.1384 36.3395C68.6985 36.7794 68.4785 37.3111 68.4785 37.9346V42.2397H75.0387V37.9346Z" fill="#7B8293"/>
<path d="M81.5992 35.6778H75.0391V42.238H81.5992V35.6778Z" fill="#7B8293"/>
<path d="M88.1598 37.9346C88.1598 37.3111 87.9397 36.7793 87.4999 36.3395C87.06 35.8996 86.5283 35.6796 85.9047 35.6796H81.5996V42.2397H88.1598V37.9346Z" fill="#7B8293"/>
<path d="M107.843 37.9346V35.6796H103.538C102.915 35.6796 102.383 35.8995 101.943 36.3395C101.503 36.7794 101.283 37.3111 101.283 37.9346V42.2397H107.843V37.9346Z" fill="#7B8293"/>
<path d="M114.406 35.6796H107.846V42.2397H112.151C112.774 42.2397 113.306 42.0197 113.746 41.5798C114.186 41.14 114.406 40.6082 114.406 39.9847V35.6796Z" fill="#7B8293"/>
<path d="M127.521 35.6768H120.961V42.237H127.521V35.6768Z" fill="#7B8293"/>
<path d="M75.0406 42.2402H68.4805V48.8003H75.0406V42.2402Z" fill="#7B8293"/>
<path d="M88.1617 42.2401H81.6016V48.8003H88.1617V42.2401Z" fill="#7B8293"/>
<path d="M94.7203 42.2401H88.1602V48.8003H94.7203V42.2401Z" fill="#7B8293"/>
<path d="M101.281 42.2402H94.7207V48.8003H101.281V42.2402Z" fill="#7B8293"/>
<path d="M107.841 42.2402H101.281V48.8003H107.841V42.2402Z" fill="#7B8293"/>
<path d="M120.959 44.4941V42.239H116.653C116.03 42.239 115.498 42.459 115.058 42.8989C114.618 43.3388 114.398 43.8705 114.398 44.4941V46.5441C114.398 47.1677 114.618 47.6994 115.058 48.1393C115.498 48.5791 116.03 48.7992 116.653 48.7992H120.959V44.4941Z" fill="#7B8293"/>
<path d="M127.521 42.2402H120.961V48.8003H127.521V42.2402Z" fill="#7B8293"/>
<path d="M75.0406 48.798H68.4805V55.3582H75.0406V48.798Z" fill="#7B8293"/>
<path d="M88.1617 48.7983H81.6016V55.3585H88.1617V48.7983Z" fill="#7B8293"/>
<path d="M94.7203 48.7983H88.1602V55.3585H94.7203V48.7983Z" fill="#7B8293"/>
<path d="M101.281 48.798H94.7207V55.3582H101.281V48.798Z" fill="#7B8293"/>
<path d="M107.843 48.8H101.283V55.3601H105.588C106.212 55.3601 106.744 55.1401 107.183 54.7003C107.623 54.2604 107.843 53.7286 107.843 53.1051V48.8Z" fill="#7B8293"/>
<path d="M127.521 48.798H120.961V55.3582H127.521V48.798Z" fill="#7B8293"/>
<path d="M75.0406 55.3606H68.4805V61.9208H75.0406V55.3606Z" fill="#7B8293"/>
<path d="M88.1489 57.4633H88.1617V55.3621H81.6016V57.4633H81.6144C81.6058 57.5317 81.6016 57.5829 81.6016 57.6171V59.6672C81.6016 60.2907 81.8215 60.8225 82.2614 61.2623C82.7014 61.7022 83.2331 61.9222 83.8566 61.9222H85.9067C86.5302 61.9222 87.062 61.7022 87.5018 61.2623C87.9417 60.8225 88.1617 60.2907 88.1617 59.6672V57.6171C88.1617 57.5829 88.1576 57.5317 88.1489 57.4633Z" fill="#7B8293"/>
<path d="M101.281 55.3606H94.7207V61.9208H101.281V55.3606Z" fill="#7B8293"/>
<path d="M114.406 59.6672C114.406 60.2908 114.186 60.8225 113.746 61.2623C113.306 61.7021 112.774 61.9222 112.151 61.9222H110.101C109.477 61.9222 108.946 61.7021 108.506 61.2623C108.066 60.8225 107.846 60.2908 107.846 59.6672V57.6171C107.846 56.9936 108.066 56.4619 108.506 56.022C108.946 55.5821 109.477 55.3621 110.101 55.3621H112.151C112.775 55.3621 113.306 55.582 113.746 56.0219C114.186 56.4619 114.406 56.9936 114.406 57.6171V59.6672Z" fill="#7B8293"/>
<path d="M127.521 55.3606H120.961V61.9208H127.521V55.3606Z" fill="#7B8293"/>
<path d="M75.0406 61.9179H68.4805V68.4781H75.0406V61.9179Z" fill="#7B8293"/>
<path d="M101.268 64.0179H101.281V61.9166H94.7207V64.0179H94.7335C94.725 64.0862 94.7207 64.1374 94.7207 64.1716V66.2217C94.7207 66.8452 94.9407 67.377 95.3806 67.8168C95.8205 68.2567 96.3522 68.4767 96.9758 68.4767H99.0258C99.6494 68.4767 100.181 68.2567 100.621 67.8168C101.061 67.377 101.281 66.8452 101.281 66.2217V64.1716C101.281 64.1374 101.277 64.0862 101.268 64.0179Z" fill="#7B8293"/>
<path d="M127.51 64.0189H127.523V61.9176H120.963V64.0189H120.976C120.967 64.0872 120.963 64.1385 120.963 64.1727V66.2227C120.963 66.8463 121.183 67.378 121.623 67.8179C122.063 68.2577 122.594 68.4778 123.218 68.4778H125.268C125.892 68.4778 126.423 68.2577 126.863 67.8179C127.303 67.378 127.523 66.8463 127.523 66.2227V64.1727C127.523 64.1385 127.519 64.0872 127.51 64.0189Z" fill="#7B8293"/>
<path d="M22.5602 70.7355C22.5602 70.1119 22.3401 69.5802 21.9003 69.1403C21.4604 68.7004 20.9286 68.4804 20.3051 68.4804H18.2551C17.6315 68.4804 17.0997 68.7004 16.6599 69.1403C16.22 69.5802 16 70.1119 16 70.7355V72.7855C16 72.8197 16.0043 72.871 16.0128 72.9393H16V75.0406H22.5602V72.9393H22.5474C22.556 72.871 22.5602 72.8198 22.5602 72.7855V70.7355Z" fill="#7B8293"/>
<path d="M48.7984 70.7355C48.7984 70.1119 48.5784 69.5802 48.1386 69.1403C47.6987 68.7004 47.1669 68.4804 46.5434 68.4804H44.4933C43.8698 68.4804 43.338 68.7004 42.8982 69.1403C42.4583 69.5802 42.2383 70.1119 42.2383 70.7355V72.7855C42.2383 72.8197 42.2425 72.871 42.2511 72.9393H42.2383V75.0406H48.7984V72.9393H48.7857C48.7943 72.871 48.7984 72.8198 48.7984 72.7855V70.7355Z" fill="#7B8293"/>
<path d="M61.9215 70.7352V68.4801H57.6164C56.9928 68.4801 56.4611 68.7001 56.0212 69.14C55.5814 69.5799 55.3613 70.1116 55.3613 70.7352V72.7852C55.3613 73.4088 55.5813 73.9405 56.0212 74.3804C56.4611 74.8202 56.9928 75.0403 57.6164 75.0403H61.9215V70.7352Z" fill="#7B8293"/>
<path d="M68.4762 68.4802H61.916V75.0404H68.4762V68.4802Z" fill="#7B8293"/>
<path d="M75.0387 68.4784H68.4785V75.0386H75.0387V68.4784Z" fill="#7B8293"/>
<path d="M81.5992 68.4804H75.0391V75.0406H81.5992V68.4804Z" fill="#7B8293"/>
<path d="M85.9067 68.4781H81.6016V75.0382H85.9067C86.5302 75.0382 87.062 74.8182 87.5018 74.3784C87.9417 73.9385 88.1617 73.4067 88.1617 72.7832V70.7331C88.1617 70.1096 87.9417 69.5778 87.5018 69.138C87.062 68.6981 86.5302 68.4781 85.9067 68.4781Z" fill="#7B8293"/>
<path d="M134.08 70.7355V68.4804H129.775C129.151 68.4804 128.619 68.7004 128.179 69.1403C127.74 69.5802 127.52 70.1119 127.52 70.7355V72.7855C127.52 73.4091 127.739 73.9408 128.179 74.3807C128.619 74.8205 129.151 75.0406 129.775 75.0406H134.08V70.7355Z" fill="#7B8293"/>
<path d="M140.642 68.4802H134.082V75.0404H140.642V68.4802Z" fill="#7B8293"/>
<path d="M147.201 68.4802H140.641V75.0404H147.201V68.4802Z" fill="#7B8293"/>
<path d="M153.761 68.4804H147.201V75.0406H153.761V68.4804Z" fill="#7B8293"/>
<path d="M160.322 70.7355C160.322 70.1119 160.102 69.5802 159.662 69.1403C159.222 68.7004 158.69 68.4804 158.067 68.4804H153.762V75.0406H160.322V70.7355Z" fill="#7B8293"/>
<path d="M180 72.7832C180 73.4069 179.78 73.9385 179.34 74.3784C178.9 74.8182 178.368 75.0382 177.745 75.0382H175.695C175.071 75.0382 174.539 74.8182 174.099 74.3784C173.659 73.9385 173.439 73.4069 173.439 72.7832V70.7331C173.439 70.1097 173.659 69.5779 174.099 69.138C174.539 68.6981 175.071 68.4781 175.695 68.4781H177.745C178.368 68.4781 178.9 68.6981 179.34 69.138C179.78 69.578 180 70.1097 180 70.7331V72.7832Z" fill="#7B8293"/>
<path d="M22.5474 77.1395H22.5602V75.0382H16V77.1395H16.0128C16.0043 77.2079 16 77.2591 16 77.2933V79.3433C16 79.9669 16.22 80.4986 16.6599 80.9385C17.0998 81.3783 17.6315 81.5984 18.2551 81.5984H20.3051C20.9286 81.5984 21.4604 81.3783 21.9003 80.9385C22.3401 80.4986 22.5602 79.9669 22.5602 79.3433V77.2933C22.5602 77.2591 22.556 77.2079 22.5474 77.1395Z" fill="#7B8293"/>
<path d="M48.7857 77.1395H48.7984V75.0382H42.2383V77.1395H42.2511C42.2425 77.2079 42.2383 77.2591 42.2383 77.2933V79.3433C42.2383 79.9669 42.4582 80.4986 42.8982 80.9385C43.3381 81.3783 43.8698 81.5984 44.4933 81.5984H46.5434C47.1669 81.5984 47.6987 81.3783 48.1386 80.9385C48.5784 80.4986 48.7984 79.9669 48.7984 79.3433V77.2933C48.7984 77.2591 48.7943 77.2079 48.7857 77.1395Z" fill="#7B8293"/>
<path d="M75.0406 75.0382H68.4805V81.5984H75.0406V75.0382Z" fill="#7B8293"/>
<path d="M81.5992 75.0382H75.0391V81.5984H81.5992V75.0382Z" fill="#7B8293"/>
<path d="M101.281 77.2933V75.0382H96.9758C96.3522 75.0382 95.8204 75.2582 95.3806 75.6981C94.9407 76.138 94.7207 76.6697 94.7207 77.2933V79.3433C94.7207 79.9669 94.9407 80.4986 95.3806 80.9385C95.8205 81.3783 96.3522 81.5984 96.9758 81.5984H101.281V77.2933Z" fill="#7B8293"/>
<path d="M107.841 75.0382H101.281V81.5984H107.841V75.0382Z" fill="#7B8293"/>
<path d="M114.404 75.0385H107.844V81.5986H114.404V75.0385Z" fill="#7B8293"/>
<path d="M120.961 75.0385H114.4V81.5986H120.961V75.0385Z" fill="#7B8293"/>
<path d="M125.268 75.0382H120.963V81.5984H125.268C125.892 81.5984 126.423 81.3783 126.863 80.9385C127.303 80.4986 127.523 79.9669 127.523 79.3433V77.2933C127.523 76.6697 127.303 76.138 126.863 75.6981C126.423 75.2582 125.892 75.0382 125.268 75.0382Z" fill="#7B8293"/>
<path d="M147.199 75.0386H140.639V79.3437C140.639 79.9672 140.859 80.499 141.299 80.9388C141.738 81.3787 142.27 81.5987 142.894 81.5987H147.199V75.0386Z" fill="#7B8293"/>
<path d="M153.761 75.0382H147.201V81.5984H153.761V75.0382Z" fill="#7B8293"/>
<path d="M160.322 75.0382H153.762V81.5984H160.322V75.0382Z" fill="#7B8293"/>
<path d="M173.441 79.3437C173.441 79.9674 173.221 80.499 172.781 80.9388C172.341 81.3786 171.81 81.5987 171.186 81.5987H169.136C168.512 81.5987 167.981 81.3786 167.541 80.9388C167.101 80.499 166.881 79.9674 166.881 79.3437V77.2936C166.881 76.6702 167.101 76.1384 167.541 75.6985C167.981 75.2586 168.512 75.0386 169.136 75.0386H171.186C171.81 75.0386 172.341 75.2585 172.781 75.6985C173.221 76.1385 173.441 76.6702 173.441 77.2936V79.3437Z" fill="#7B8293"/>
<path d="M29.1188 83.8552V81.6001H24.8136C24.1901 81.6001 23.6583 81.8201 23.2185 82.26C22.7786 82.6999 22.5586 83.2316 22.5586 83.8552V88.1603H29.1188V83.8552Z" fill="#7B8293"/>
<path d="M33.4262 81.6011H29.1211V88.1612H33.4262C34.0497 88.1612 34.5815 87.9412 35.0214 87.5013C35.4612 87.0615 35.6813 86.5297 35.6813 85.9062V83.8561C35.6813 83.2326 35.4612 82.7008 35.0214 82.261C34.5815 81.8211 34.0497 81.6011 33.4262 81.6011Z" fill="#7B8293"/>
<path d="M55.359 83.8552V81.6001H51.0539C50.4303 81.6001 49.8986 81.8201 49.4587 82.26C49.0189 82.6999 48.7988 83.2316 48.7988 83.8552V88.1603H55.359V83.8552Z" fill="#7B8293"/>
<path d="M59.6664 81.6011H55.3613V88.1612H59.6664C60.29 88.1612 60.8217 87.9412 61.2616 87.5013C61.7015 87.0615 61.9215 86.5297 61.9215 85.9062V83.8561C61.9215 83.2326 61.7015 82.7008 61.2616 82.261C60.8217 81.8211 60.29 81.6011 59.6664 81.6011Z" fill="#7B8293"/>
<path d="M75.0387 81.5991H68.4785V85.9042C68.4785 86.5277 68.6985 87.0595 69.1384 87.4993C69.5783 87.9392 70.11 88.1592 70.7336 88.1592H75.0387V81.5991Z" fill="#7B8293"/>
<path d="M81.5992 81.6001H75.0391V88.1603H79.3442C79.9677 88.1603 80.4995 87.9402 80.9393 87.5004C81.3792 87.0605 81.5992 86.5287 81.5992 85.9052V81.6001Z" fill="#7B8293"/>
<path d="M114.404 81.5997H107.844V88.1599H114.404V81.5997Z" fill="#7B8293"/>
<path d="M120.959 81.6007H114.398V88.1609H120.959V81.6007Z" fill="#7B8293"/>
<path d="M140.644 83.8552C140.644 83.2316 140.424 82.6998 139.984 82.26C139.544 81.8201 139.013 81.6001 138.389 81.6001H136.339C135.715 81.6001 135.184 81.8201 134.744 82.26C134.304 82.6999 134.084 83.2316 134.084 83.8552V85.9052C134.084 85.9394 134.088 85.9907 134.097 86.059H134.084V88.1603H140.644V86.059H140.631C140.64 85.9907 140.644 85.9394 140.644 85.9052V83.8552Z" fill="#7B8293"/>
<path d="M160.322 81.6011H153.762V85.9062C153.762 86.5297 153.982 87.0615 154.422 87.5013C154.862 87.9412 155.393 88.1612 156.017 88.1612H160.322V81.6011Z" fill="#7B8293"/>
<path d="M166.882 83.8552C166.882 83.2316 166.662 82.6998 166.223 82.26C165.783 81.8201 165.251 81.6001 164.627 81.6001H160.322V88.1603H166.882V83.8552Z" fill="#7B8293"/>
<path d="M29.106 90.261H29.1188V88.1597H22.5586V90.261H22.5714C22.5629 90.3293 22.5586 90.3805 22.5586 90.4147V92.4648C22.5586 93.0883 22.7786 93.6201 23.2185 94.0599C23.6584 94.4998 24.1901 94.7198 24.8136 94.7198H26.8637C27.4872 94.7198 28.019 94.4998 28.4589 94.0599C28.8987 93.6201 29.1188 93.0883 29.1188 92.4648V90.4147C29.1188 90.3805 29.1146 90.3293 29.106 90.261Z" fill="#7B8293"/>
<path d="M48.7984 90.4147V88.1597H44.4933C43.8698 88.1597 43.338 88.3796 42.8982 88.8196C42.4583 89.2595 42.2383 89.7912 42.2383 90.4147V92.4648C42.2383 93.0883 42.4582 93.6201 42.8982 94.0599C43.3381 94.4998 43.8698 94.7198 44.4933 94.7198H48.7984V90.4147Z" fill="#7B8293"/>
<path d="M55.359 88.16H48.7988V94.7202H55.359V88.16Z" fill="#7B8293"/>
<path d="M88.1598 90.4147C88.1598 89.7912 87.9397 89.2594 87.4999 88.8196C87.06 88.3797 86.5283 88.1597 85.9047 88.1597H83.8547C83.2311 88.1597 82.6994 88.3796 82.2595 88.8196C81.8196 89.2595 81.5996 89.7912 81.5996 90.4147V92.4648C81.5996 92.499 81.6039 92.5503 81.6124 92.6185H81.5996V94.7198H88.1598V92.6185H88.147C88.1556 92.5503 88.1598 92.499 88.1598 92.4648V90.4147Z" fill="#7B8293"/>
<path d="M114.406 88.1597H107.846V92.4648C107.846 93.0883 108.066 93.6201 108.506 94.0599C108.946 94.4998 109.477 94.7198 110.101 94.7198H114.406V88.1597Z" fill="#7B8293"/>
<path d="M120.963 88.1597H114.402V94.7198H118.707C119.331 94.7198 119.863 94.4998 120.303 94.0599C120.742 93.6201 120.963 93.0883 120.963 92.4648V88.1597Z" fill="#7B8293"/>
<path d="M134.082 90.4147V88.1597H129.777C129.153 88.1597 128.621 88.3796 128.181 88.8196C127.742 89.2595 127.521 89.7912 127.521 90.4147V94.7198H134.082V90.4147Z" fill="#7B8293"/>
<path d="M140.642 88.16H134.082V94.7202H140.642V88.16Z" fill="#7B8293"/>
<path d="M144.944 88.1597H140.639V94.7198H144.944C145.567 94.7198 146.099 94.4998 146.539 94.0599C146.979 93.6201 147.199 93.0883 147.199 92.4648V90.4147C147.199 89.7912 146.979 89.2594 146.539 88.8196C146.099 88.3797 145.567 88.1597 144.944 88.1597Z" fill="#7B8293"/>
<path d="M166.884 88.16H160.324V94.7202H166.884V88.16Z" fill="#7B8293"/>
<path d="M173.441 90.4147C173.441 89.7912 173.221 89.2594 172.781 88.8196C172.341 88.3797 171.81 88.1597 171.186 88.1597H166.881V94.7198H173.441V90.4147Z" fill="#7B8293"/>
<path d="M22.5602 96.9776C22.5602 96.354 22.3401 95.8223 21.9003 95.3824C21.4604 94.9426 20.9286 94.7225 20.3051 94.7225H18.2551C17.6315 94.7225 17.0997 94.9425 16.6599 95.3824C16.22 95.8223 16 96.354 16 96.9776V99.0276C16 99.0618 16.0043 99.1131 16.0128 99.1814H16V101.283H22.5602V99.1814H22.5474C22.556 99.1131 22.5602 99.0619 22.5602 99.0276V96.9776Z" fill="#7B8293"/>
<path d="M55.359 94.7216H48.7988V101.282H55.359V94.7216Z" fill="#7B8293"/>
<path d="M61.9215 94.7213H55.3613V101.281H61.9215V94.7213Z" fill="#7B8293"/>
<path d="M68.4762 94.7213H61.916V101.281H68.4762V94.7213Z" fill="#7B8293"/>
<path d="M75.0387 94.7206H68.4785V101.281H75.0387V94.7206Z" fill="#7B8293"/>
<path d="M81.5992 94.7216H75.0391V101.282H81.5992V94.7216Z" fill="#7B8293"/>
<path d="M88.1617 94.7203H81.6016V101.28H88.1617V94.7203Z" fill="#7B8293"/>
<path d="M92.4653 94.7212H88.1602V101.281H92.4653C93.0888 101.281 93.6206 101.061 94.0604 100.621C94.5003 100.182 94.7203 99.6498 94.7203 99.0263V96.9762C94.7203 96.3527 94.5003 95.8209 94.0604 95.3811C93.6206 94.9412 93.0888 94.7212 92.4653 94.7212Z" fill="#7B8293"/>
<path d="M127.523 96.9766V94.7216H123.218C122.594 94.7216 122.063 94.9415 121.623 95.3814C121.183 95.8214 120.963 96.3531 120.963 96.9766V101.282H127.523V96.9766Z" fill="#7B8293"/>
<path d="M134.08 94.7216H127.52V101.282H134.08V94.7216Z" fill="#7B8293"/>
<path d="M140.644 94.7212H134.084V101.281H138.389C139.013 101.281 139.544 101.061 139.984 100.621C140.424 100.182 140.644 99.6498 140.644 99.0263V94.7212Z" fill="#7B8293"/>
<path d="M160.322 96.9776V94.7225H156.017C155.393 94.7225 154.861 94.9425 154.422 95.3824C153.982 95.8223 153.762 96.354 153.762 96.9776V99.0276C153.762 99.6512 153.982 100.183 154.422 100.623C154.862 101.063 155.393 101.283 156.017 101.283H160.322V96.9776Z" fill="#7B8293"/>
<path d="M166.884 94.7213H160.324V101.281H166.884V94.7213Z" fill="#7B8293"/>
<path d="M173.443 94.7213H166.883V101.281H173.443V94.7213Z" fill="#7B8293"/>
<path d="M177.745 94.7212H173.439V101.281H177.745C178.368 101.281 178.9 101.061 179.34 100.621C179.78 100.182 180 99.6498 180 99.0263V96.9762C180 96.3527 179.78 95.8209 179.34 95.3811C178.9 94.9412 178.368 94.7212 177.745 94.7212Z" fill="#7B8293"/>
<path d="M22.5602 101.279H16V105.584C16 106.208 16.22 106.74 16.6599 107.18C17.0998 107.619 17.6315 107.84 18.2551 107.84H22.5602V101.279Z" fill="#7B8293"/>
<path d="M29.1188 101.281H22.5586V107.842H29.1188V101.281Z" fill="#7B8293"/>
<path d="M35.6813 103.535C35.6813 102.911 35.4612 102.379 35.0214 101.94C34.5815 101.5 34.0497 101.28 33.4262 101.28H29.1211V107.84H35.6813V103.535Z" fill="#7B8293"/>
<path d="M48.7984 103.534V101.279H44.4933C43.8698 101.279 43.338 101.499 42.8982 101.939C42.4583 102.379 42.2383 102.911 42.2383 103.534V107.84H48.7984V103.534Z" fill="#7B8293"/>
<path d="M55.359 101.283H48.7988V107.843H53.1039C53.7275 107.843 54.2592 107.623 54.6991 107.184C55.139 106.744 55.359 106.212 55.359 105.588V101.283Z" fill="#7B8293"/>
<path d="M68.4762 101.282H61.916V107.842H68.4762V101.282Z" fill="#7B8293"/>
<path d="M81.5992 101.281H75.0391V107.842H81.5992V101.281Z" fill="#7B8293"/>
<path d="M88.1617 101.282H81.6016V107.842H85.9067C86.5302 107.842 87.062 107.622 87.5018 107.182C87.9417 106.742 88.1617 106.21 88.1617 105.587V101.282Z" fill="#7B8293"/>
<path d="M101.281 103.536V101.281H96.9758C96.3522 101.281 95.8204 101.501 95.3806 101.941C94.9407 102.381 94.7207 102.913 94.7207 103.536V107.842H101.281V103.536Z" fill="#7B8293"/>
<path d="M105.586 101.281H101.281V107.842H105.586C106.21 107.842 106.742 107.622 107.182 107.182C107.621 106.742 107.841 106.21 107.841 105.586V103.536C107.841 102.913 107.621 102.381 107.182 101.941C106.742 101.501 106.21 101.281 105.586 101.281Z" fill="#7B8293"/>
<path d="M120.959 103.535V101.28H116.653C116.03 101.28 115.498 101.5 115.058 101.94C114.618 102.379 114.398 102.911 114.398 103.535V107.84H120.959V103.535Z" fill="#7B8293"/>
<path d="M127.521 101.281H120.961V107.842H127.521V101.281Z" fill="#7B8293"/>
<path d="M153.761 103.538C153.761 102.915 153.541 102.383 153.101 101.943C152.662 101.503 152.13 101.283 151.506 101.283H149.456C148.833 101.283 148.301 101.503 147.861 101.943C147.421 102.383 147.201 102.915 147.201 103.538V105.588C147.201 105.623 147.205 105.674 147.214 105.742H147.201V107.843H153.761V105.742H153.749C153.757 105.674 153.761 105.623 153.761 105.588V103.538Z" fill="#7B8293"/>
<path d="M173.428 103.381H173.441V101.28H166.881V103.381H166.894C166.885 103.449 166.881 103.501 166.881 103.535V105.585C166.881 106.208 167.101 106.74 167.541 107.18C167.981 107.62 168.512 107.84 169.136 107.84H171.186C171.81 107.84 172.341 107.62 172.781 107.18C173.221 106.74 173.441 106.208 173.441 105.585V103.535C173.441 103.501 173.437 103.449 173.428 103.381Z" fill="#7B8293"/>
<path d="M35.6685 109.947H35.6813V107.845H29.1211V109.947H29.1339C29.1254 110.015 29.1211 110.066 29.1211 110.1V112.15C29.1211 112.774 29.3411 113.306 29.781 113.746C30.2209 114.185 30.7526 114.405 31.3761 114.405H33.4262C34.0497 114.405 34.5815 114.185 35.0214 113.746C35.4612 113.306 35.6813 112.774 35.6813 112.15V110.1C35.6813 110.066 35.6771 110.015 35.6685 109.947Z" fill="#7B8293"/>
<path d="M48.8004 107.844H42.2402V114.404H48.8004V107.844Z" fill="#7B8293"/>
<path d="M61.9215 110.1V107.845H57.6164C56.9928 107.845 56.4611 108.065 56.0212 108.505C55.5814 108.945 55.3613 109.477 55.3613 110.1V112.15C55.3613 112.774 55.5813 113.306 56.0212 113.746C56.4611 114.185 56.9928 114.405 57.6164 114.405H61.9215V110.1Z" fill="#7B8293"/>
<path d="M68.4762 107.844H61.916V114.404H68.4762V107.844Z" fill="#7B8293"/>
<path d="M75.0406 107.844H68.4805V114.404H75.0406V107.844Z" fill="#7B8293"/>
<path d="M81.5992 107.844H75.0391V114.404H81.5992V107.844Z" fill="#7B8293"/>
<path d="M94.7203 110.1V107.845H90.4152C89.7917 107.845 89.2599 108.065 88.82 108.505C88.3802 108.945 88.1602 109.477 88.1602 110.1V114.405H94.7203V110.1Z" fill="#7B8293"/>
<path d="M101.281 107.845H94.7207V114.405H99.0258C99.6494 114.405 100.181 114.185 100.621 113.746C101.061 113.306 101.281 112.774 101.281 112.15V107.845Z" fill="#7B8293"/>
<path d="M120.961 107.844H114.4V114.404H120.961V107.844Z" fill="#7B8293"/>
<path d="M127.523 107.845H120.963V114.405H125.268C125.892 114.405 126.423 114.185 126.863 113.746C127.303 113.306 127.523 112.774 127.523 112.15V107.845Z" fill="#7B8293"/>
<path d="M140.644 110.1V107.845H136.339C135.715 107.845 135.184 108.065 134.744 108.505C134.304 108.945 134.084 109.477 134.084 110.1V112.15C134.084 112.774 134.304 113.306 134.744 113.746C135.184 114.185 135.715 114.405 136.339 114.405H140.644V110.1Z" fill="#7B8293"/>
<path d="M147.201 107.844H140.641V114.404H147.201V107.844Z" fill="#7B8293"/>
<path d="M153.761 107.844H147.201V114.404H153.761V107.844Z" fill="#7B8293"/>
<path d="M160.322 107.844H153.762V114.404H160.322V107.844Z" fill="#7B8293"/>
<path d="M166.882 110.1C166.882 109.477 166.662 108.945 166.223 108.505C165.783 108.065 165.251 107.845 164.627 107.845H160.322V114.405H166.882V110.1Z" fill="#7B8293"/>
<path d="M42.2379 116.657V114.402H37.9328C37.3092 114.402 36.7775 114.622 36.3376 115.062C35.8978 115.502 35.6777 116.033 35.6777 116.657V120.962H42.2379V116.657Z" fill="#7B8293"/>
<path d="M48.8004 114.399H42.2402V120.959H48.8004V114.399Z" fill="#7B8293"/>
<path d="M55.359 116.656C55.359 116.032 55.139 115.501 54.6991 115.061C54.2592 114.621 53.7275 114.401 53.1039 114.401H48.7988V120.961H55.359V116.656Z" fill="#7B8293"/>
<path d="M68.4634 116.503H68.4762V114.402H61.916V116.503H61.9288C61.9203 116.571 61.916 116.623 61.916 116.657V118.707C61.916 119.33 62.136 119.862 62.5759 120.302C63.0158 120.742 63.5475 120.962 64.1711 120.962H66.2211C66.8447 120.962 67.3764 120.742 67.8163 120.302C68.2561 119.862 68.4762 119.33 68.4762 118.707V116.657C68.4762 116.623 68.472 116.571 68.4634 116.503Z" fill="#7B8293"/>
<path d="M81.5992 114.402H75.0391V118.707C75.0391 119.33 75.259 119.862 75.6989 120.302C76.1389 120.742 76.6706 120.962 77.2941 120.962H81.5992V114.402Z" fill="#7B8293"/>
<path d="M88.1617 114.399H81.6016V120.959H88.1617V114.399Z" fill="#7B8293"/>
<path d="M94.7203 114.402H88.1602V120.962H92.4653C93.0888 120.962 93.6206 120.742 94.0604 120.302C94.5003 119.862 94.7203 119.33 94.7203 118.707V114.402Z" fill="#7B8293"/>
<path d="M120.946 116.5H120.959V114.399H114.398V116.5H114.411C114.403 116.568 114.398 116.62 114.398 116.654V118.704C114.398 119.327 114.618 119.859 115.058 120.299C115.498 120.739 116.03 120.959 116.653 120.959H118.704C119.327 120.959 119.859 120.739 120.299 120.299C120.739 119.859 120.959 119.327 120.959 118.704V116.654C120.959 116.62 120.954 116.568 120.946 116.5Z" fill="#7B8293"/>
<path d="M147.201 114.399H140.641V120.959H147.201V114.399Z" fill="#7B8293"/>
<path d="M153.761 114.4H147.201V120.96H153.761V114.4Z" fill="#7B8293"/>
<path d="M166.884 114.4H160.324V120.96H166.884V114.4Z" fill="#7B8293"/>
<path d="M171.186 114.398H166.881V120.958H171.186C171.81 120.958 172.341 120.738 172.781 120.298C173.221 119.858 173.441 119.326 173.441 118.703V116.653C173.441 116.029 173.221 115.497 172.781 115.058C172.341 114.618 171.81 114.398 171.186 114.398Z" fill="#7B8293"/>
<path d="M22.5602 123.218V120.963H18.2551C17.6315 120.963 17.0997 121.183 16.6599 121.623C16.22 122.063 16 122.594 16 123.218V125.268C16 125.891 16.22 126.423 16.6599 126.863C17.0998 127.303 17.6315 127.523 18.2551 127.523H22.5602V123.218Z" fill="#7B8293"/>
<path d="M26.8637 120.964H22.5586V127.524H26.8637C27.4872 127.524 28.019 127.304 28.4589 126.864C28.8987 126.424 29.1188 125.892 29.1188 125.269V123.219C29.1188 122.595 28.8987 122.063 28.4589 121.624C28.019 121.184 27.4872 120.964 26.8637 120.964Z" fill="#7B8293"/>
<path d="M42.2379 120.963H35.6777V125.268C35.6777 125.892 35.8977 126.424 36.3376 126.864C36.7775 127.303 37.3092 127.523 37.9328 127.523H42.2379V120.963Z" fill="#7B8293"/>
<path d="M48.8004 120.962H42.2402V127.522H48.8004V120.962Z" fill="#7B8293"/>
<path d="M55.359 120.962H48.7988V127.522H55.359V120.962Z" fill="#7B8293"/>
<path d="M59.6664 120.962H55.3613V127.522H59.6664C60.29 127.522 60.8217 127.302 61.2616 126.863C61.7015 126.423 61.9215 125.891 61.9215 125.267V123.217C61.9215 122.594 61.7015 122.062 61.2616 121.622C60.8217 121.182 60.29 120.962 59.6664 120.962Z" fill="#7B8293"/>
<path d="M75.0387 123.219C75.0387 122.595 74.8186 122.063 74.3788 121.624C73.9389 121.184 73.4072 120.964 72.7836 120.964H70.7336C70.11 120.964 69.5783 121.184 69.1384 121.624C68.6985 122.064 68.4785 122.595 68.4785 123.219V125.269C68.4785 125.303 68.4828 125.354 68.4913 125.423H68.4785V127.524H75.0387V125.423H75.0259C75.0345 125.354 75.0387 125.303 75.0387 125.269V123.219Z" fill="#7B8293"/>
<path d="M88.1617 120.961H81.6016V127.522H88.1617V120.961Z" fill="#7B8293"/>
<path d="M101.281 125.269C101.281 125.893 101.061 126.424 100.621 126.864C100.181 127.304 99.6495 127.524 99.0258 127.524H96.9758C96.3523 127.524 95.8205 127.304 95.3807 126.864C94.9407 126.424 94.7207 125.893 94.7207 125.269V123.219C94.7207 122.595 94.9407 122.064 95.3806 121.624C95.8206 121.184 96.3523 120.964 96.9758 120.964H99.0258C99.6495 120.964 100.181 121.184 100.621 121.624C101.061 122.064 101.281 122.595 101.281 123.219V125.269Z" fill="#7B8293"/>
<path d="M114.406 125.268C114.406 125.892 114.186 126.424 113.746 126.864C113.306 127.303 112.774 127.523 112.151 127.523H110.101C109.477 127.523 108.946 127.303 108.506 126.864C108.066 126.424 107.846 125.892 107.846 125.268V123.218C107.846 122.595 108.066 122.063 108.506 121.623C108.946 121.183 109.477 120.963 110.101 120.963H112.151C112.775 120.963 113.306 121.183 113.746 121.623C114.186 122.063 114.406 122.595 114.406 123.218V125.268Z" fill="#7B8293"/>
<path d="M127.523 123.218V120.963H123.218C122.594 120.963 122.063 121.183 121.623 121.623C121.183 122.063 120.963 122.594 120.963 123.218V127.523H127.523V123.218Z" fill="#7B8293"/>
<path d="M134.08 120.962H127.52V127.522H134.08V120.962Z" fill="#7B8293"/>
<path d="M140.642 120.961H134.082V127.522H140.642V120.961Z" fill="#7B8293"/>
<path d="M147.201 120.961H140.641V127.522H147.201V120.961Z" fill="#7B8293"/>
<path d="M153.761 120.962H147.201V127.522H153.761V120.962Z" fill="#7B8293"/>
<path d="M160.322 120.962H153.762V127.522H160.322V120.962Z" fill="#7B8293"/>
<path d="M166.882 120.962H160.322V127.522H164.627C165.251 127.522 165.783 127.302 166.223 126.863C166.662 126.423 166.882 125.891 166.882 125.267V120.962Z" fill="#7B8293"/>
<path d="M75.0406 127.52H68.4805V134.08H75.0406V127.52Z" fill="#7B8293"/>
<path d="M81.5992 127.52H75.0391V134.08H81.5992V127.52Z" fill="#7B8293"/>
<path d="M88.1617 127.52H81.6016V134.08H85.9067C86.5302 134.08 87.062 133.86 87.5018 133.42C87.9417 132.98 88.1617 132.448 88.1617 131.825V127.52Z" fill="#7B8293"/>
<path d="M107.839 129.775C107.839 129.151 107.619 128.619 107.18 128.179C106.74 127.74 106.208 127.52 105.584 127.52H103.534C102.911 127.52 102.379 127.74 101.939 128.179C101.499 128.619 101.279 129.151 101.279 129.775V131.825C101.279 131.859 101.284 131.91 101.292 131.978H101.279V134.08H107.839V131.978H107.827C107.835 131.91 107.839 131.859 107.839 131.825V129.775Z" fill="#7B8293"/>
<path d="M127.521 127.52H120.961V134.08H127.521V127.52Z" fill="#7B8293"/>
<path d="M153.761 127.52H147.201V134.08H153.761V127.52Z" fill="#7B8293"/>
<path d="M75.0387 134.084H68.4785V138.389C68.4785 139.013 68.6985 139.545 69.1384 139.985C69.5783 140.424 70.11 140.644 70.7336 140.644H75.0387V134.084Z" fill="#7B8293"/>
<path d="M81.5992 134.082H75.0391V140.642H81.5992V134.082Z" fill="#7B8293"/>
<path d="M107.831 136.186H107.843V134.084H101.283V136.186H101.296C101.287 136.254 101.283 136.305 101.283 136.339V138.389C101.283 139.013 101.503 139.545 101.943 139.985C102.383 140.424 102.915 140.644 103.538 140.644H105.588C106.212 140.644 106.744 140.424 107.183 139.985C107.623 139.545 107.843 139.013 107.843 138.389V136.339C107.843 136.305 107.839 136.254 107.831 136.186Z" fill="#7B8293"/>
<path d="M120.961 136.339V134.084H116.655C116.032 134.084 115.5 134.304 115.06 134.744C114.62 135.184 114.4 135.716 114.4 136.339V138.389C114.4 139.013 114.62 139.545 115.06 139.985C115.5 140.424 116.032 140.644 116.655 140.644H120.961V136.339Z" fill="#7B8293"/>
<path d="M127.521 134.083H120.961V140.643H127.521V134.083Z" fill="#7B8293"/>
<path d="M140.644 138.389C140.644 139.013 140.424 139.545 139.984 139.985C139.544 140.424 139.013 140.644 138.389 140.644H136.339C135.716 140.644 135.184 140.424 134.744 139.985C134.304 139.545 134.084 139.013 134.084 138.389V136.339C134.084 135.716 134.304 135.184 134.744 134.744C135.184 134.304 135.716 134.084 136.339 134.084H138.389C139.013 134.084 139.545 134.304 139.984 134.744C140.424 135.184 140.644 135.716 140.644 136.339V138.389Z" fill="#7B8293"/>
<path d="M153.761 134.082H147.201V140.642H153.761V134.082Z" fill="#7B8293"/>
<path d="M81.5992 140.64H75.0391V147.2H81.5992V140.64Z" fill="#7B8293"/>
<path d="M101.283 144.946C101.283 145.57 101.063 146.101 100.623 146.541C100.183 146.981 99.6514 147.201 99.0278 147.201H96.9777C96.3542 147.201 95.8225 146.981 95.3826 146.541C94.9427 146.101 94.7227 145.57 94.7227 144.946V142.896C94.7227 142.272 94.9426 141.741 95.3825 141.301C95.8225 140.861 96.3542 140.641 96.9777 140.641H99.0278C99.6515 140.641 100.183 140.861 100.623 141.301C101.063 141.741 101.283 142.272 101.283 142.896V144.946Z" fill="#7B8293"/>
<path d="M114.406 142.894C114.406 142.27 114.186 141.739 113.746 141.299C113.306 140.859 112.774 140.639 112.151 140.639H110.101C109.477 140.639 108.945 140.859 108.506 141.299C108.066 141.739 107.846 142.27 107.846 142.894V144.944C107.846 144.978 107.85 145.029 107.858 145.098H107.846V147.199H114.406V145.098H114.393C114.402 145.029 114.406 144.978 114.406 144.944V142.894Z" fill="#7B8293"/>
<path d="M127.521 140.64H120.961V147.2H127.521V140.64Z" fill="#7B8293"/>
<path d="M153.761 140.64H147.201V147.2H153.761V140.64Z" fill="#7B8293"/>
<path d="M160.322 140.64H153.762V147.2H160.322V140.64Z" fill="#7B8293"/>
<path d="M166.884 140.64H160.324V147.2H166.884V140.64Z" fill="#7B8293"/>
<path d="M173.443 140.64H166.883V147.2H173.443V140.64Z" fill="#7B8293"/>
<path d="M180 142.894C180 142.27 179.78 141.739 179.34 141.299C178.9 140.859 178.368 140.639 177.745 140.639H173.439V147.199H180V142.894Z" fill="#7B8293"/>
<path d="M75.0387 149.458V147.203H70.7336C70.11 147.203 69.5783 147.423 69.1384 147.863C68.6985 148.303 68.4785 148.834 68.4785 149.458V151.508C68.4785 152.132 68.6985 152.663 69.1384 153.103C69.5783 153.543 70.11 153.763 70.7336 153.763H75.0387V149.458Z" fill="#7B8293"/>
<path d="M81.5992 147.202H75.0391V153.762H81.5992V147.202Z" fill="#7B8293"/>
<path d="M88.1617 147.202H81.6016V153.762H88.1617V147.202Z" fill="#7B8293"/>
<path d="M92.4653 147.202H88.1602V153.762H92.4653C93.0888 153.762 93.6206 153.542 94.0604 153.103C94.5003 152.663 94.7203 152.131 94.7203 151.507V149.457C94.7203 148.834 94.5003 148.302 94.0604 147.862C93.6206 147.422 93.0888 147.202 92.4653 147.202Z" fill="#7B8293"/>
<path d="M107.843 149.458V147.203H103.538C102.915 147.203 102.383 147.423 101.943 147.863C101.503 148.303 101.283 148.834 101.283 149.458V151.508C101.283 152.132 101.503 152.663 101.943 153.103C102.383 153.543 102.915 153.763 103.538 153.763H107.843V149.458Z" fill="#7B8293"/>
<path d="M114.404 147.202H107.844V153.762H114.404V147.202Z" fill="#7B8293"/>
<path d="M127.521 147.202H120.961V153.762H127.521V147.202Z" fill="#7B8293"/>
<path d="M134.08 147.202H127.52V153.762H134.08V147.202Z" fill="#7B8293"/>
<path d="M140.642 147.202H134.082V153.762H140.642V147.202Z" fill="#7B8293"/>
<path d="M147.201 147.202H140.641V153.762H147.201V147.202Z" fill="#7B8293"/>
<path d="M153.761 147.202H147.201V153.762H153.761V147.202Z" fill="#7B8293"/>
<path d="M160.322 147.202H153.762V153.762H160.322V147.202Z" fill="#7B8293"/>
<path d="M166.884 147.202H160.324V153.762H166.884V147.202Z" fill="#7B8293"/>
<path d="M173.443 147.202H166.883V153.762H173.443V147.202Z" fill="#7B8293"/>
<path d="M180.004 147.202H173.443V153.762H180.004V147.202Z" fill="#7B8293"/>
<path d="M81.5992 153.762H75.0391V160.322H81.5992V153.762Z" fill="#7B8293"/>
<path d="M88.1617 153.762H81.6016V160.322H88.1617V153.762Z" fill="#7B8293"/>
<path d="M101.283 156.017C101.283 155.393 101.063 154.861 100.623 154.422C100.183 153.982 99.6513 153.762 99.0278 153.762H96.9777C96.3542 153.762 95.8224 153.982 95.3825 154.422C94.9427 154.862 94.7227 155.393 94.7227 156.017V158.067C94.7227 158.101 94.7269 158.152 94.7354 158.221H94.7227V160.322H101.283V158.221H101.27C101.279 158.152 101.283 158.101 101.283 158.067V156.017Z" fill="#7B8293"/>
<path d="M114.404 153.762H107.844V160.322H114.404V153.762Z" fill="#7B8293"/>
<path d="M120.959 153.761H114.398V160.321H120.959V153.761Z" fill="#7B8293"/>
<path d="M127.521 153.761H120.961V160.321H127.521V153.761Z" fill="#7B8293"/>
<path d="M134.08 153.762H127.52V160.322H134.08V153.762Z" fill="#7B8293"/>
<path d="M140.642 153.762H134.082V160.322H140.642V153.762Z" fill="#7B8293"/>
<path d="M147.201 153.762H140.641V160.322H144.946C145.569 160.322 146.101 160.102 146.541 159.662C146.981 159.222 147.201 158.69 147.201 158.067V153.762Z" fill="#7B8293"/>
<path d="M166.882 153.761H160.322V158.066C160.322 158.689 160.542 159.221 160.982 159.661C161.422 160.101 161.954 160.321 162.577 160.321H166.882V153.761Z" fill="#7B8293"/>
<path d="M173.443 153.761H166.883V160.321H173.443V153.761Z" fill="#7B8293"/>
<path d="M180 153.762H173.439V160.322H177.745C178.368 160.322 178.9 160.102 179.34 159.662C179.78 159.222 180 158.69 180 158.067V153.762Z" fill="#7B8293"/>
<path d="M81.5992 160.323H75.0391V164.628C75.0391 165.252 75.259 165.784 75.6989 166.224C76.1389 166.663 76.6706 166.883 77.2941 166.883H81.5992V160.323Z" fill="#7B8293"/>
<path d="M88.1617 160.324H81.6016V166.884H88.1617V160.324Z" fill="#7B8293"/>
<path d="M94.7203 160.324H88.1602V166.884H94.7203V160.324Z" fill="#7B8293"/>
<path d="M101.281 160.324H94.7207V166.884H101.281V160.324Z" fill="#7B8293"/>
<path d="M107.841 160.324H101.281V166.884H107.841V160.324Z" fill="#7B8293"/>
<path d="M114.406 160.323H107.846V166.883H112.151C112.774 166.883 113.306 166.663 113.746 166.224C114.186 165.784 114.406 165.252 114.406 164.628V160.323Z" fill="#7B8293"/>
<path d="M134.082 160.322H127.521V164.627C127.521 165.251 127.741 165.783 128.181 166.223C128.621 166.662 129.153 166.882 129.777 166.882H134.082V160.322Z" fill="#7B8293"/>
<path d="M140.644 160.322H134.084V166.882H138.389C139.013 166.882 139.544 166.662 139.984 166.223C140.424 165.783 140.644 165.251 140.644 164.627V160.322Z" fill="#7B8293"/>
<path d="M160.322 162.577C160.322 161.954 160.102 161.422 159.662 160.982C159.222 160.542 158.69 160.322 158.067 160.322H156.017C155.393 160.322 154.861 160.542 154.422 160.982C153.982 161.422 153.762 161.954 153.762 162.577V164.627C153.762 164.662 153.766 164.713 153.775 164.781H153.762V166.882H160.322V164.781H160.309C160.318 164.713 160.322 164.662 160.322 164.627V162.577Z" fill="#7B8293"/>
<path d="M173.443 160.324H166.883V166.884H173.443V160.324Z" fill="#7B8293"/>
<path d="M94.7075 168.982H94.7203V166.881H88.1602V168.982H88.1729C88.1644 169.05 88.1602 169.102 88.1602 169.136V171.186C88.1602 171.809 88.3801 172.341 88.82 172.781C89.26 173.221 89.7917 173.441 90.4152 173.441H92.4653C93.0888 173.441 93.6206 173.221 94.0604 172.781C94.5003 172.341 94.7203 171.809 94.7203 171.186V169.136C94.7203 169.102 94.7162 169.05 94.7075 168.982Z" fill="#7B8293"/>
<path d="M107.841 166.882H101.281V173.442H107.841V166.882Z" fill="#7B8293"/>
<path d="M120.959 171.187C120.959 171.811 120.739 172.342 120.299 172.782C119.859 173.222 119.327 173.442 118.704 173.442H116.653C116.03 173.442 115.498 173.222 115.058 172.782C114.618 172.342 114.398 171.811 114.398 171.187V169.137C114.398 168.513 114.618 167.982 115.058 167.542C115.498 167.102 116.03 166.882 116.653 166.882H118.704C119.327 166.882 119.859 167.102 120.299 167.542C120.739 167.982 120.959 168.513 120.959 169.137V171.187Z" fill="#7B8293"/>
<path d="M147.201 169.136V166.881H142.896C142.272 166.881 141.74 167.101 141.301 167.541C140.861 167.981 140.641 168.512 140.641 169.136V171.186C140.641 171.809 140.861 172.341 141.301 172.781C141.74 173.221 142.272 173.441 142.896 173.441H147.201V169.136Z" fill="#7B8293"/>
<path d="M153.761 166.882H147.201V173.442H153.761V166.882Z" fill="#7B8293"/>
<path d="M160.322 166.882H153.762V173.442H160.322V166.882Z" fill="#7B8293"/>
<path d="M166.884 166.882H160.324V173.442H166.884V166.882Z" fill="#7B8293"/>
<path d="M173.443 166.882H166.883V173.442H173.443V166.882Z" fill="#7B8293"/>
<path d="M75.0387 175.694V173.439H70.7336C70.11 173.439 69.5783 173.659 69.1384 174.099C68.6985 174.539 68.4785 175.071 68.4785 175.694V177.744C68.4785 178.368 68.6985 178.9 69.1384 179.34C69.5783 179.779 70.11 179.999 70.7336 179.999H75.0387V175.694Z" fill="#7B8293"/>
<path d="M81.5992 173.443H75.0391V180.003H81.5992V173.443Z" fill="#7B8293"/>
<path d="M85.9047 173.439H81.5996V179.999H85.9047C86.5283 179.999 87.06 179.779 87.4999 179.34C87.9397 178.9 88.1598 178.368 88.1598 177.744V175.694C88.1598 175.071 87.9397 174.539 87.4999 174.099C87.06 173.659 86.5283 173.439 85.9047 173.439Z" fill="#7B8293"/>
<path d="M101.281 175.694V173.439H96.9758C96.3522 173.439 95.8204 173.659 95.3806 174.099C94.9407 174.539 94.7207 175.071 94.7207 175.694V177.744C94.7207 178.368 94.9407 178.9 95.3806 179.34C95.8205 179.779 96.3522 179.999 96.9758 179.999H101.281V175.694Z" fill="#7B8293"/>
<path d="M107.843 173.439H101.283V179.999H105.588C106.212 179.999 106.744 179.779 107.183 179.34C107.623 178.9 107.843 178.368 107.843 177.744V173.439Z" fill="#7B8293"/>
<path d="M134.082 175.695V173.44H129.777C129.153 173.44 128.621 173.66 128.181 174.1C127.742 174.54 127.521 175.072 127.521 175.695V177.745C127.521 178.369 127.741 178.901 128.181 179.341C128.621 179.781 129.153 180.001 129.777 180.001H134.082V175.695Z" fill="#7B8293"/>
<path d="M138.389 173.44H134.084V180.001H138.389C139.013 180.001 139.544 179.781 139.984 179.341C140.424 178.901 140.644 178.369 140.644 177.745V175.695C140.644 175.072 140.424 174.54 139.984 174.1C139.544 173.66 139.013 173.44 138.389 173.44Z" fill="#7B8293"/>
<path d="M166.882 173.44H160.322V177.745C160.322 178.369 160.542 178.901 160.982 179.341C161.422 179.781 161.954 180.001 162.577 180.001H166.882V173.44Z" fill="#7B8293"/>
<path d="M173.443 173.443H166.883V180.003H173.443V173.443Z" fill="#7B8293"/>
<path d="M177.745 173.439H173.439V179.999H177.745C178.368 179.999 178.9 179.779 179.34 179.34C179.78 178.9 180 178.368 180 177.744V175.694C180 175.071 179.78 174.539 179.34 174.099C178.9 173.659 178.368 173.439 177.745 173.439Z" fill="#7B8293"/>
<path d="M46.2432 16.0039H31.6779C24.5794 16.0039 18.5656 20.6938 16.6429 27.104C16.4441 27.7671 16.2888 28.4485 16.1809 29.1452C16.062 29.9139 16 30.701 16 31.5023V46.4133C16 54.9634 23.0351 61.9163 31.6779 61.9163L38.9606 61.9177L46.2432 61.9159C54.8856 61.9159 61.9211 54.9629 61.9211 46.4129V31.5023C61.9211 22.9564 54.886 16.0039 46.2432 16.0039ZM55.033 46.4133C55.033 51.1634 51.0902 55.0281 46.2414 55.0281L38.9606 55.0295L31.6798 55.0277C26.831 55.0277 22.8882 51.163 22.8882 46.4133V31.5023C22.8882 30.0186 23.273 28.6217 23.9503 27.4011C24.6024 26.2269 25.525 25.2171 26.6358 24.4525C28.0639 23.4693 29.803 22.8921 31.6775 22.8921H46.2432C51.0902 22.8921 55.033 26.7545 55.033 31.5023V46.4133Z" fill="#7B8293"/>
<path d="M164.327 16.0041H149.762C142.663 16.0041 136.65 20.694 134.727 27.1041C134.528 27.7672 134.373 28.4487 134.265 29.1453C134.146 29.9141 134.084 30.7011 134.084 31.5025V46.4135C134.084 54.9636 141.119 61.9165 149.762 61.9165L157.045 61.9179L164.327 61.916C172.97 61.916 180.005 54.9631 180.005 46.4131V31.5025C180.005 22.9565 172.97 16.0041 164.327 16.0041ZM173.117 46.4135C173.117 51.1636 169.174 55.0283 164.325 55.0283L157.045 55.0297L149.764 55.0279C144.915 55.0279 140.972 51.1631 140.972 46.4135V31.5025C140.972 30.0188 141.357 28.6218 142.034 27.4013C142.686 26.2271 143.609 25.2172 144.72 24.4527C146.148 23.4695 147.887 22.8923 149.761 22.8923H164.327C169.174 22.8923 173.117 26.7547 173.117 31.5025V46.4135Z" fill="#7B8293"/>
<path d="M46.2432 134.085H31.6779C24.5794 134.085 18.5656 138.775 16.6429 145.185C16.4441 145.848 16.2888 146.53 16.1809 147.227C16.062 147.995 16 148.782 16 149.584V164.495C16 173.045 23.0351 179.998 31.6779 179.998L38.9606 179.999L46.2432 179.997C54.8856 179.997 61.9211 173.044 61.9211 164.494V149.584C61.9211 141.038 54.886 134.085 46.2432 134.085ZM55.033 164.495C55.033 169.245 51.0902 173.11 46.2414 173.11L38.9606 173.111L31.6798 173.109C26.831 173.109 22.8882 169.244 22.8882 164.495V149.584C22.8882 148.1 23.273 146.703 23.9503 145.482C24.6024 144.308 25.525 143.298 26.6358 142.534C28.0639 141.551 29.803 140.973 31.6775 140.973H46.2432C51.0902 140.973 55.033 144.836 55.033 149.584V164.495Z" fill="#7B8293"/>
<path d="M34.5047 48.8045C31.5349 48.8045 29.1191 46.4366 29.1191 43.5286V34.3972C29.1191 33.4888 29.3553 32.6338 29.7688 31.8858C30.1681 31.1659 30.7333 30.5471 31.4141 30.0803C32.2885 29.4785 33.3544 29.124 34.5018 29.124H43.4223C46.3894 29.124 48.8051 31.4892 48.8051 34.397V43.5284C48.8051 46.4362 46.3896 48.8043 43.4223 48.8043H38.9621L34.5047 48.8045Z" fill="#7B8293"/>
<path d="M152.579 48.8045C149.609 48.8045 147.193 46.4366 147.193 43.5286V34.3972C147.193 33.4888 147.43 32.6338 147.843 31.8858C148.242 31.1659 148.808 30.5471 149.488 30.0803C150.363 29.4785 151.429 29.124 152.576 29.124H161.497C164.464 29.124 166.879 31.4892 166.879 34.397V43.5284C166.879 46.4362 164.464 48.8043 161.497 48.8043H157.036L152.579 48.8045Z" fill="#7B8293"/>
<path d="M34.5028 166.879C31.533 166.879 29.1172 164.511 29.1172 161.603V152.472C29.1172 151.564 29.3534 150.709 29.7668 149.961C30.1662 149.241 30.7314 148.622 31.4121 148.155C32.2865 147.553 33.3524 147.199 34.4998 147.199H43.4204C46.3874 147.199 48.8032 149.564 48.8032 152.472V161.603C48.8032 164.511 46.3876 166.879 43.4204 166.879H38.9602L34.5028 166.879Z" fill="#7B8293"/>
</svg>
