<svg width="18" height="18" viewBox="0 0 18 18" fill="none" xmlns="http://www.w3.org/2000/svg">
<path d="M15.5579 11.7904L15.0782 11.4967L15.0782 11.4967L15.5579 11.7904ZM14.842 12.9596L15.3217 13.2533L15.3217 13.2533L14.842 12.9596ZM2.44207 6.20956L1.96236 5.91582H1.96236L2.44207 6.20956ZM3.15798 5.04043L3.63769 5.33417H3.63769L3.15798 5.04043ZM5.11389 4.54629L5.38282 4.05225L5.38282 4.05225L5.11389 4.54629ZM2.96615 8.0537L2.69722 8.54774H2.69722L2.96615 8.0537ZM12.8861 13.4537L12.6172 13.9477H12.6172L12.8861 13.4537ZM15.0338 9.94629L14.7649 10.4403L15.0338 9.94629ZM3.15798 12.9596L2.67827 13.2533H2.67827L3.15798 12.9596ZM2.44207 11.7904L2.92177 11.4967H2.92177L2.44207 11.7904ZM14.842 5.04044L15.3217 4.74669L15.3217 4.74669L14.842 5.04044ZM15.5579 6.20957L15.0782 6.50332L15.0782 6.50332L15.5579 6.20957ZM15.0338 8.05371L15.3028 8.54775L15.0338 8.05371ZM12.8861 4.5463L13.1551 5.04035L12.8861 4.5463ZM2.96615 9.9463L3.23509 10.4403H3.23509L2.96615 9.9463ZM5.11389 13.4537L4.84495 12.9597L4.84495 12.9597L5.11389 13.4537ZM12.81 4.58773L12.5411 4.09369V4.09369L12.81 4.58773ZM5.19 4.58773L4.92106 5.08177L4.92106 5.08177L5.19 4.58773ZM12.81 13.4123L13.0789 12.9182L13.0789 12.9182L12.81 13.4123ZM5.19 13.4123L5.45893 13.9063L5.45894 13.9063L5.19 13.4123ZM8.28409 2.8125H9.71591V1.6875H8.28409V2.8125ZM9.71591 15.1875H8.28409V16.3125H9.71591V15.1875ZM8.28409 15.1875C7.77233 15.1875 7.41476 14.8042 7.41476 14.4H6.28976C6.28976 15.487 7.2143 16.3125 8.28409 16.3125V15.1875ZM10.5852 14.4C10.5852 14.8042 10.2277 15.1875 9.71591 15.1875V16.3125C10.7857 16.3125 11.7102 15.487 11.7102 14.4H10.5852ZM9.71591 2.8125C10.2277 2.8125 10.5852 3.1958 10.5852 3.6H11.7102C11.7102 2.51303 10.7857 1.6875 9.71591 1.6875V2.8125ZM8.28409 1.6875C7.2143 1.6875 6.28976 2.51303 6.28976 3.6H7.41476C7.41476 3.1958 7.77233 2.8125 8.28409 2.8125V1.6875ZM15.0782 11.4967L14.3623 12.6658L15.3217 13.2533L16.0376 12.0842L15.0782 11.4967ZM2.92178 6.50331L3.63769 5.33417L2.67827 4.74668L1.96236 5.91582L2.92178 6.50331ZM3.63769 5.33417C3.86917 4.95615 4.41041 4.80379 4.84495 5.04034L5.38282 4.05225C4.4477 3.54321 3.23757 3.83331 2.67827 4.74668L3.63769 5.33417ZM3.23509 7.55965C2.8181 7.33266 2.70322 6.86022 2.92178 6.50331L1.96236 5.91582C1.39014 6.85029 1.74455 8.02915 2.69722 8.54774L3.23509 7.55965ZM14.3623 12.6658C14.1308 13.0438 13.5896 13.1962 13.1551 12.9597L12.6172 13.9477C13.5523 14.4568 14.7624 14.1667 15.3217 13.2533L14.3623 12.6658ZM16.0376 12.0842C16.6099 11.1497 16.2555 9.97084 15.3028 9.45225L14.7649 10.4403C15.1819 10.6673 15.2968 11.1398 15.0782 11.4967L16.0376 12.0842ZM3.63769 12.6658L2.92177 11.4967L1.96236 12.0842L2.67827 13.2533L3.63769 12.6658ZM14.3623 5.33418L15.0782 6.50332L16.0376 5.91583L15.3217 4.74669L14.3623 5.33418ZM15.0782 6.50332C15.2968 6.86023 15.1819 7.33267 14.7649 7.55966L15.3028 8.54775C16.2555 8.02916 16.6099 6.8503 16.0376 5.91583L15.0782 6.50332ZM13.1551 5.04035C13.5896 4.8038 14.1308 4.95616 14.3623 5.33418L15.3217 4.74669C14.7624 3.83332 13.5523 3.54322 12.6172 4.05226L13.1551 5.04035ZM2.92177 11.4967C2.70322 11.1398 2.8181 10.6673 3.23509 10.4403L2.69721 9.45226C1.74454 9.97085 1.39014 11.1497 1.96236 12.0842L2.92177 11.4967ZM2.67827 13.2533C3.23757 14.1667 4.4477 14.4568 5.38282 13.9478L4.84495 12.9597C4.41041 13.1962 3.86917 13.0438 3.63769 12.6658L2.67827 13.2533ZM13.0789 5.08178L13.1551 5.04035L12.6172 4.05226L12.5411 4.09369L13.0789 5.08178ZM4.84495 5.04034L4.92106 5.08177L5.45894 4.09368L5.38282 4.05225L4.84495 5.04034ZM13.1551 12.9597L13.0789 12.9182L12.5411 13.9063L12.6172 13.9477L13.1551 12.9597ZM4.92107 12.9182L4.84495 12.9597L5.38282 13.9478L5.45893 13.9063L4.92107 12.9182ZM2.69722 8.54774C3.05553 8.74279 3.05553 9.25721 2.69721 9.45226L3.23509 10.4403C4.37624 9.81916 4.37624 8.18085 3.23509 7.55965L2.69722 8.54774ZM5.45894 13.9063C5.83349 13.7024 6.28976 13.9736 6.28976 14.4H7.41476C7.41476 13.12 6.04526 12.3063 4.92106 12.9182L5.45894 13.9063ZM11.7102 14.4C11.7102 13.9735 12.1665 13.7024 12.5411 13.9063L13.0789 12.9182C11.9547 12.3063 10.5852 13.12 10.5852 14.4H11.7102ZM15.3028 9.45225C14.9445 9.2572 14.9445 8.7428 15.3028 8.54775L14.7649 7.55966C13.6238 8.18085 13.6238 9.81915 14.7649 10.4403L15.3028 9.45225ZM4.92106 5.08177C6.04526 5.69374 7.41476 4.87997 7.41476 3.6H6.28976C6.28976 4.02645 5.83349 4.29757 5.45894 4.09368L4.92106 5.08177ZM12.5411 4.09369C12.1665 4.29758 11.7102 4.02645 11.7102 3.6H10.5852C10.5852 4.87997 11.9547 5.69374 13.0789 5.08178L12.5411 4.09369ZM10.6875 9C10.6875 9.93198 9.93199 10.6875 9.00001 10.6875V11.8125C10.5533 11.8125 11.8125 10.5533 11.8125 9H10.6875ZM9.00001 10.6875C8.06803 10.6875 7.31251 9.93198 7.31251 9H6.18751C6.18751 10.5533 7.44671 11.8125 9.00001 11.8125V10.6875ZM7.31251 9C7.31251 8.06802 8.06803 7.3125 9.00001 7.3125V6.1875C7.44671 6.1875 6.18751 7.4467 6.18751 9H7.31251ZM9.00001 7.3125C9.93199 7.3125 10.6875 8.06802 10.6875 9H11.8125C11.8125 7.4467 10.5533 6.1875 9.00001 6.1875V7.3125Z" fill="#7B8293"/>
</svg>
