<svg width="64" height="64" viewBox="0 0 64 64" fill="none" xmlns="http://www.w3.org/2000/svg">
<g clip-path="url(#clip0_1_5286)">
<rect width="64" height="64" rx="10.6667" fill="#8B6DCA" fill-opacity="0.07"/>
<path d="M41.3253 22.1896C40.5077 21.9319 39.5889 21.8067 38.5273 21.7412C37.314 21.6663 35.8394 21.6663 34.0304 21.6664H29.947C27.8091 21.6663 26.1332 21.6663 24.7943 21.7936C23.4295 21.9234 22.3121 22.1924 21.327 22.7961C20.2954 23.4283 19.4281 24.2956 18.7959 25.3272C18.7735 25.3637 18.7516 25.4005 18.7301 25.4374C18.8331 23.5132 19.1023 22.2388 19.8054 21.2299C20.1733 20.7019 20.6187 20.2377 21.1251 19.8541C22.6932 18.6664 24.93 18.6664 29.4036 18.6664H36.5619C38.8115 18.6664 39.9363 18.6664 40.6352 19.395C41.1719 19.9545 41.2964 20.7761 41.3253 22.1896Z" fill="#8B6DCA"/>
<path d="M19.6484 25.8497C18.666 27.4528 18.666 29.6351 18.666 33.9997C18.666 38.3643 18.666 40.5465 19.6484 42.1497C20.1981 43.0467 20.9523 43.8009 21.8494 44.3506C23.4525 45.333 25.6348 45.333 29.9993 45.333H33.9993C38.3639 45.333 40.5462 45.333 42.1493 44.3506C43.0464 43.8009 43.8006 43.0467 44.3503 42.1497C44.9955 41.0968 45.2169 39.7942 45.293 37.7876H36.8479C34.2874 37.7876 32.2116 35.7118 32.2116 33.1512C32.2116 30.5906 34.2874 28.5149 36.8479 28.5149H45.1696C45.0359 27.4113 44.7928 26.5718 44.3503 25.8497C43.8006 24.9527 43.0464 24.1985 42.1493 23.6487C41.894 23.4923 41.6239 23.3607 41.3327 23.2501C39.7956 22.6664 37.6687 22.6664 33.9993 22.6664H29.9993C25.6348 22.6664 23.4525 22.6664 21.8494 23.6487C20.9523 24.1985 20.1981 24.9527 19.6484 25.8497Z" fill="#8B6DCA"/>
<path fill-rule="evenodd" clip-rule="evenodd" d="M45.3032 30.5149H36.8479C35.3919 30.5149 34.2116 31.6952 34.2116 33.1512C34.2116 34.6072 35.3919 35.7876 36.8479 35.7876H45.3296C45.3327 35.2354 45.3327 34.6411 45.3327 33.9997C45.3327 32.6434 45.3327 31.4978 45.3032 30.5149ZM36.848 32.1512C36.2957 32.1512 35.848 32.5989 35.848 33.1512C35.848 33.7035 36.2957 34.1512 36.848 34.1512H40.4843C41.0366 34.1512 41.4843 33.7035 41.4843 33.1512C41.4843 32.5989 41.0366 32.1512 40.4843 32.1512H36.848Z" fill="#8B6DCA"/>
<g filter="url(#filter0_f_1_5286)">
<ellipse cx="32" cy="79.4998" rx="29" ry="24.0887" fill="#8B6DCA"/>
</g>
</g>
<rect x="1" y="1" width="62" height="62" rx="9.66667" stroke="url(#paint0_linear_1_5286)" stroke-width="2"/>
<defs>
<filter id="filter0_f_1_5286" x="-26.0764" y="26.3347" width="116.153" height="106.33" filterUnits="userSpaceOnUse" color-interpolation-filters="sRGB">
<feFlood flood-opacity="0" result="BackgroundImageFix"/>
<feBlend mode="normal" in="SourceGraphic" in2="BackgroundImageFix" result="shape"/>
<feGaussianBlur stdDeviation="14.5382" result="effect1_foregroundBlur_1_5286"/>
</filter>
<linearGradient id="paint0_linear_1_5286" x1="26" y1="-5.07597e-06" x2="61.0958" y2="30.3081" gradientUnits="userSpaceOnUse">
<stop stop-color="#8B6DCA"/>
<stop offset="0.246947" stop-color="#8B6DCA" stop-opacity="0"/>
<stop offset="0.798736" stop-color="#8B6DCA" stop-opacity="0"/>
<stop offset="1" stop-color="#8B6DCA"/>
</linearGradient>
<clipPath id="clip0_1_5286">
<rect width="64" height="64" rx="10.6667" fill="white"/>
</clipPath>
</defs>
</svg>
