<svg width="16" height="16" viewBox="0 0 16 16" fill="none" xmlns="http://www.w3.org/2000/svg">
<path d="M10.3345 7.9998C10.3348 8.15557 10.2806 8.30653 10.1812 8.42647L6.84784 12.4265C6.6122 12.71 6.19135 12.7488 5.90784 12.5131C5.62434 12.2775 5.58553 11.8566 5.82118 11.5731L8.80784 7.9998L5.92784 4.42647C5.816 4.28874 5.76366 4.11211 5.78243 3.93568C5.8012 3.75925 5.88952 3.59759 6.02784 3.48647C6.16642 3.36305 6.35016 3.30297 6.53488 3.32068C6.7196 3.33839 6.88858 3.4323 7.00118 3.5798L10.2212 7.5798C10.3049 7.70319 10.3448 7.85107 10.3345 7.9998Z" fill="#E9E3F7"/>
</svg>
