<svg width="16" height="18" viewBox="0 0 16 18" fill="none" xmlns="http://www.w3.org/2000/svg">
<path fill-rule="evenodd" clip-rule="evenodd" d="M6.43699 0.506703C6.65621 0.534168 6.85555 0.647562 6.99119 0.821956C7.12683 0.996349 7.18767 1.21747 7.16033 1.4367L6.75699 4.6667H10.077L10.507 1.23004C10.5182 1.1195 10.5513 1.01232 10.6045 0.91479C10.6577 0.817258 10.7299 0.731347 10.8167 0.662109C10.9036 0.59287 11.0035 0.541702 11.1104 0.511614C11.2174 0.481526 11.3292 0.473124 11.4395 0.486904C11.5497 0.500683 11.6561 0.536366 11.7523 0.591853C11.8486 0.64734 11.9327 0.721511 11.9999 0.810004C12.0671 0.898498 12.1159 0.999528 12.1434 1.10715C12.171 1.21478 12.1767 1.32682 12.1603 1.4367L11.757 4.6667H14.667C14.888 4.6667 15.1 4.7545 15.2562 4.91078C15.4125 5.06706 15.5003 5.27902 15.5003 5.50004C15.5003 5.72105 15.4125 5.93301 15.2562 6.08929C15.1 6.24557 14.888 6.33337 14.667 6.33337H11.5487L11.132 9.6667H14.2503C14.4713 9.6667 14.6833 9.7545 14.8396 9.91078C14.9959 10.0671 15.0837 10.279 15.0837 10.5C15.0837 10.7211 14.9959 10.933 14.8396 11.0893C14.6833 11.2456 14.4713 11.3334 14.2503 11.3334H10.9237L10.4937 14.77C10.4825 14.8806 10.4493 14.9878 10.3961 15.0853C10.3429 15.1828 10.2708 15.2687 10.1839 15.338C10.097 15.4072 9.99718 15.4584 9.89024 15.4885C9.7833 15.5185 9.67142 15.5269 9.56118 15.5132C9.45095 15.4994 9.34458 15.4637 9.24833 15.4082C9.15209 15.3527 9.06791 15.2786 9.00074 15.1901C8.93358 15.1016 8.88479 15.0005 8.85724 14.8929C8.82969 14.7853 8.82394 14.6732 8.84033 14.5634L9.24366 11.3334H5.92366L5.49366 14.77C5.48249 14.8806 5.44934 14.9878 5.39614 15.0853C5.34295 15.1828 5.27079 15.2687 5.18391 15.338C5.09703 15.4072 4.99718 15.4584 4.89024 15.4885C4.7833 15.5185 4.67142 15.5269 4.56118 15.5132C4.45095 15.4994 4.34458 15.4637 4.24833 15.4082C4.15209 15.3527 4.06791 15.2786 4.00074 15.1901C3.93358 15.1016 3.88479 15.0005 3.85724 14.8929C3.82969 14.7853 3.82394 14.6732 3.84033 14.5634L4.24366 11.3334H1.75033C1.52931 11.3334 1.31735 11.2456 1.16107 11.0893C1.00479 10.933 0.916992 10.7211 0.916992 10.5C0.916992 10.279 1.00479 10.0671 1.16107 9.91078C1.31735 9.7545 1.52931 9.6667 1.75033 9.6667H4.45199L4.86866 6.33337H2.16699C1.94598 6.33337 1.73402 6.24557 1.57774 6.08929C1.42146 5.93301 1.33366 5.72105 1.33366 5.50004C1.33366 5.27902 1.42146 5.06706 1.57774 4.91078C1.73402 4.7545 1.94598 4.6667 2.16699 4.6667H5.07699L5.50699 1.23004C5.53446 1.01082 5.64785 0.811477 5.82224 0.675837C5.99664 0.540197 6.21776 0.479361 6.43699 0.506703ZM9.45199 9.6667L9.86866 6.33337H6.54866L6.13199 9.6667H9.45199Z" fill="#7B8293"/>
</svg>
