<svg width="18" height="18" viewBox="0 0 18 18" fill="none" xmlns="http://www.w3.org/2000/svg">
<path fill-rule="evenodd" clip-rule="evenodd" d="M8.99536 10.0564L13.2361 14.2974C13.3774 14.4339 13.5668 14.5095 13.7634 14.5078C13.9599 14.5061 14.1479 14.4272 14.2869 14.2882C14.4259 14.1493 14.5047 13.9612 14.5065 13.7647C14.5082 13.5681 14.4326 13.3787 14.2961 13.2373L10.0554 8.99632L14.2961 4.75531C14.4326 4.61392 14.5082 4.42455 14.5065 4.22798C14.5047 4.03141 14.4259 3.84338 14.2869 3.70438C14.1479 3.56538 13.9599 3.48654 13.7634 3.48483C13.5668 3.48312 13.3774 3.55869 13.2361 3.69525L8.99536 7.93625L4.75466 3.69525C4.61264 3.56206 4.42438 3.48936 4.22971 3.49252C4.03505 3.49568 3.84925 3.57446 3.71162 3.71219C3.574 3.84992 3.49536 4.03579 3.49234 4.23047C3.48932 4.42515 3.56215 4.61338 3.69543 4.75531L7.93538 8.99632L3.69468 13.2373C3.62308 13.3065 3.56597 13.3892 3.52668 13.4807C3.48739 13.5721 3.46671 13.6705 3.46585 13.77C3.46498 13.8696 3.48395 13.9683 3.52164 14.0604C3.55934 14.1526 3.615 14.2363 3.68538 14.3067C3.75577 14.3771 3.83947 14.4327 3.9316 14.4704C4.02372 14.5081 4.12244 14.5271 4.22197 14.5262C4.32151 14.5254 4.41988 14.5047 4.51133 14.4654C4.60279 14.4261 4.68551 14.369 4.75466 14.2974L8.99536 10.0564Z" fill="#E9E3F7"/>
</svg>
