<svg width="38" height="34" viewBox="0 0 38 34" fill="none" xmlns="http://www.w3.org/2000/svg">
<path d="M8 0.5H30C34.1421 0.5 37.5 3.85786 37.5 8V26C37.5 30.1421 34.1421 33.5 30 33.5H8C3.85786 33.5 0.5 30.1421 0.5 26V8C0.5 3.85786 3.85786 0.5 8 0.5Z" stroke="#919EAB" stroke-opacity="0.24"/>
<path d="M15.1042 8.29166C15.1042 8.10932 15.0317 7.93445 14.9028 7.80552C14.7739 7.67659 14.599 7.60416 14.4167 7.60416C14.2343 7.60416 14.0595 7.67659 13.9305 7.80552C13.8016 7.93445 13.7292 8.10932 13.7292 8.29166V9.73999C12.4092 9.84541 11.5438 10.1039 10.9077 10.741C10.2706 11.3772 10.0121 12.2434 9.90576 13.5625H28.0943C27.9879 12.2425 27.7294 11.3772 27.0923 10.741C26.4562 10.1039 25.5899 9.84541 24.2708 9.73907V8.29166C24.2708 8.10932 24.1984 7.93445 24.0695 7.80552C23.9405 7.67659 23.7657 7.60416 23.5833 7.60416C23.401 7.60416 23.2261 7.67659 23.0972 7.80552C22.9683 7.93445 22.8958 8.10932 22.8958 8.29166V9.67857C22.2863 9.66666 21.6024 9.66666 20.8333 9.66666H17.1667C16.3976 9.66666 15.7138 9.66666 15.1042 9.67857V8.29166Z" fill="#7B8293"/>
<path fill-rule="evenodd" clip-rule="evenodd" d="M9.83331 17C9.83331 16.2309 9.83331 15.5471 9.84523 14.9375H28.1547C28.1666 15.5471 28.1666 16.2309 28.1666 17V18.8333C28.1666 22.2901 28.1666 24.0189 27.0923 25.0923C26.018 26.1657 24.2901 26.1667 20.8333 26.1667H17.1666C13.7099 26.1667 11.9811 26.1667 10.9076 25.0923C9.83423 24.018 9.83331 22.2901 9.83331 18.8333V17ZM23.5833 18.8333C23.8264 18.8333 24.0596 18.7368 24.2315 18.5648C24.4034 18.3929 24.5 18.1598 24.5 17.9167C24.5 17.6736 24.4034 17.4404 24.2315 17.2685C24.0596 17.0966 23.8264 17 23.5833 17C23.3402 17 23.107 17.0966 22.9351 17.2685C22.7632 17.4404 22.6666 17.6736 22.6666 17.9167C22.6666 18.1598 22.7632 18.3929 22.9351 18.5648C23.107 18.7368 23.3402 18.8333 23.5833 18.8333ZM23.5833 22.5C23.8264 22.5 24.0596 22.4034 24.2315 22.2315C24.4034 22.0596 24.5 21.8264 24.5 21.5833C24.5 21.3402 24.4034 21.1071 24.2315 20.9352C24.0596 20.7632 23.8264 20.6667 23.5833 20.6667C23.3402 20.6667 23.107 20.7632 22.9351 20.9352C22.7632 21.1071 22.6666 21.3402 22.6666 21.5833C22.6666 21.8264 22.7632 22.0596 22.9351 22.2315C23.107 22.4034 23.3402 22.5 23.5833 22.5ZM19.9166 17.9167C19.9166 18.1598 19.8201 18.3929 19.6482 18.5648C19.4763 18.7368 19.2431 18.8333 19 18.8333C18.7569 18.8333 18.5237 18.7368 18.3518 18.5648C18.1799 18.3929 18.0833 18.1598 18.0833 17.9167C18.0833 17.6736 18.1799 17.4404 18.3518 17.2685C18.5237 17.0966 18.7569 17 19 17C19.2431 17 19.4763 17.0966 19.6482 17.2685C19.8201 17.4404 19.9166 17.6736 19.9166 17.9167ZM19.9166 21.5833C19.9166 21.8264 19.8201 22.0596 19.6482 22.2315C19.4763 22.4034 19.2431 22.5 19 22.5C18.7569 22.5 18.5237 22.4034 18.3518 22.2315C18.1799 22.0596 18.0833 21.8264 18.0833 21.5833C18.0833 21.3402 18.1799 21.1071 18.3518 20.9352C18.5237 20.7632 18.7569 20.6667 19 20.6667C19.2431 20.6667 19.4763 20.7632 19.6482 20.9352C19.8201 21.1071 19.9166 21.3402 19.9166 21.5833ZM14.4166 18.8333C14.6598 18.8333 14.8929 18.7368 15.0648 18.5648C15.2367 18.3929 15.3333 18.1598 15.3333 17.9167C15.3333 17.6736 15.2367 17.4404 15.0648 17.2685C14.8929 17.0966 14.6598 17 14.4166 17C14.1735 17 13.9404 17.0966 13.7685 17.2685C13.5966 17.4404 13.5 17.6736 13.5 17.9167C13.5 18.1598 13.5966 18.3929 13.7685 18.5648C13.9404 18.7368 14.1735 18.8333 14.4166 18.8333ZM14.4166 22.5C14.6598 22.5 14.8929 22.4034 15.0648 22.2315C15.2367 22.0596 15.3333 21.8264 15.3333 21.5833C15.3333 21.3402 15.2367 21.1071 15.0648 20.9352C14.8929 20.7632 14.6598 20.6667 14.4166 20.6667C14.1735 20.6667 13.9404 20.7632 13.7685 20.9352C13.5966 21.1071 13.5 21.3402 13.5 21.5833C13.5 21.8264 13.5966 22.0596 13.7685 22.2315C13.9404 22.4034 14.1735 22.5 14.4166 22.5Z" fill="#7B8293"/>
</svg>
