<svg width="24" height="24" viewBox="0 0 24 24" fill="none" xmlns="http://www.w3.org/2000/svg">
<path opacity="0.5" d="M9.052 4.5C9 5.078 9 5.804 9 6.722V17.278C9 18.196 9 18.922 9.052 19.5H8C5.643 19.5 4.464 19.5 3.732 18.768C3 18.035 3 16.857 3 14.5V9.5C3 7.143 3 5.964 3.732 5.232C4.464 4.5 5.643 4.5 8 4.5H9.052Z" fill="#DE5959"/>
<path fill-rule="evenodd" clip-rule="evenodd" d="M9.707 2.409C9 3.036 9 4.183 9 6.476V17.524C9 19.817 9 20.964 9.707 21.591C10.414 22.218 11.495 22.03 13.657 21.653L15.987 21.247C18.381 20.829 19.578 20.62 20.289 19.742C21 18.863 21 17.593 21 15.052V8.948C21 6.408 21 5.138 20.29 4.259C19.578 3.381 18.38 3.172 15.986 2.755L13.658 2.348C11.496 1.971 10.415 1.783 9.708 2.41M12.751 10.955C12.751 10.521 12.415 10.17 12.001 10.17C11.587 10.17 11.251 10.521 11.251 10.954V13.048C11.251 13.481 11.587 13.832 12.001 13.832C12.415 13.832 12.751 13.481 12.751 13.048V10.955Z" fill="#DE5959"/>
</svg>
