<svg width="20" height="20" viewBox="0 0 20 20" fill="none" xmlns="http://www.w3.org/2000/svg">
<path d="M17.5 10.8332V17.0282C17.5 17.1961 17.4662 17.3622 17.4006 17.5168C17.3349 17.6713 17.2389 17.811 17.1181 17.9276C16.9973 18.0441 16.8543 18.1352 16.6976 18.1953C16.5408 18.2554 16.3736 18.2833 16.2058 18.2774L16.095 18.2682L10 17.5066V10.8332H17.5ZM8.33333 10.8332V17.2982L3.96 16.7516C3.55684 16.7012 3.18596 16.5053 2.9171 16.2007C2.64824 15.896 2.49991 15.5037 2.5 15.0974V10.8332H8.33333ZM16.095 1.73157C16.2616 1.71076 16.4306 1.72371 16.5921 1.76965C16.7535 1.81559 16.904 1.89357 17.0347 1.99895C17.1654 2.10433 17.2734 2.23495 17.3525 2.38301C17.4316 2.53107 17.4801 2.69354 17.495 2.86073L17.5 2.97157V9.16657H10V2.49323L16.095 1.73157ZM8.33333 2.70157V9.16657H2.5V4.9024C2.49991 4.4961 2.64824 4.10376 2.9171 3.79915C3.18596 3.49453 3.55684 3.29861 3.96 3.24823L8.33333 2.70157Z" fill="#7B8293"/>
</svg>
