<svg width="20" height="20" viewBox="0 0 20 20" fill="none" xmlns="http://www.w3.org/2000/svg">
<path d="M7.65047 8.48421C7.69464 8.44004 7.7738 8.38504 8.02547 8.35088C8.29463 8.31504 8.65963 8.31421 9.22463 8.31421H10.7746C11.3396 8.31421 11.7046 8.31504 11.973 8.35171C12.2255 8.38504 12.3046 8.44004 12.348 8.48504C12.393 8.52838 12.448 8.60754 12.4813 8.86004C12.518 9.12838 12.5188 9.49338 12.5188 10.0584V11.6084C12.5188 12.1734 12.518 12.5384 12.4813 12.8067C12.448 13.0592 12.393 13.1384 12.348 13.1817C12.3046 13.2267 12.2255 13.2817 11.973 13.315C11.7046 13.3517 11.3396 13.3525 10.7746 13.3525H9.22463C8.65963 13.3525 8.29464 13.3517 8.0263 13.315C7.7738 13.2817 7.69464 13.2267 7.6513 13.1817C7.6063 13.1384 7.5513 13.0592 7.51797 12.8067C7.4813 12.5384 7.48047 12.1734 7.48047 11.6084V10.0584C7.48047 9.49338 7.4813 9.12838 7.51797 8.86004C7.5513 8.60754 7.6063 8.52838 7.6513 8.48504" fill="#7B8293"/>
<path fill-rule="evenodd" clip-rule="evenodd" d="M9.99935 2.5C10.3202 2.5 10.581 2.76 10.581 3.08167V5.40667C11.0055 5.40722 11.393 5.41194 11.7435 5.42083V3.08167C11.7492 2.93132 11.8129 2.78902 11.9213 2.68467C12.0297 2.58031 12.1743 2.52201 12.3248 2.52201C12.4752 2.52201 12.6198 2.58031 12.7282 2.68467C12.8366 2.78902 12.9003 2.93132 12.906 3.08167V5.40667C12.9054 5.43676 12.9032 5.46681 12.8993 5.49667C13.6793 5.5925 14.2202 5.79083 14.631 6.20167C15.0418 6.6125 15.2402 7.15333 15.336 7.93333C15.3659 7.92949 15.3959 7.92726 15.426 7.92667H17.751C17.9014 7.93236 18.0437 7.99609 18.148 8.10447C18.2524 8.21286 18.3107 8.35746 18.3107 8.50792C18.3107 8.65837 18.2524 8.80298 18.148 8.91136C18.0437 9.01974 17.9014 9.08347 17.751 9.08917H15.4118C15.4213 9.43917 15.426 9.82667 15.426 10.2517H17.751C17.9053 10.2517 18.0532 10.3129 18.1623 10.422C18.2714 10.5311 18.3327 10.6791 18.3327 10.8333C18.3327 10.9876 18.2714 11.1356 18.1623 11.2446C18.0532 11.3537 17.9053 11.415 17.751 11.415H15.426C15.4255 11.8394 15.4207 12.2269 15.4118 12.5775H17.751C17.9014 12.5832 18.0437 12.6469 18.148 12.7553C18.2524 12.8637 18.3107 13.0083 18.3107 13.1587C18.3107 13.3092 18.2524 13.4538 18.148 13.5622C18.0437 13.6706 17.9014 13.7343 17.751 13.74H15.426C15.3959 13.7394 15.3659 13.7372 15.336 13.7333C15.2402 14.5133 15.0418 15.0542 14.631 15.465C14.2202 15.8758 13.6793 16.0742 12.8993 16.17C12.9043 16.1994 12.9066 16.2294 12.906 16.26V18.585C12.9003 18.7353 12.8366 18.8776 12.7282 18.982C12.6198 19.0864 12.4752 19.1447 12.3248 19.1447C12.1743 19.1447 12.0297 19.0864 11.9213 18.982C11.8129 18.8776 11.7492 18.7353 11.7435 18.585V16.2458C11.3935 16.2553 11.006 16.26 10.581 16.26V18.585C10.581 18.7393 10.5197 18.8872 10.4106 18.9963C10.3016 19.1054 10.1536 19.1667 9.99935 19.1667C9.84508 19.1667 9.69713 19.1054 9.58805 18.9963C9.47896 18.8872 9.41768 18.7393 9.41768 18.585V16.26C9.03014 16.2601 8.64261 16.2554 8.25518 16.2458V18.585C8.24949 18.7353 8.18576 18.8776 8.07737 18.982C7.96899 19.0864 7.82439 19.1447 7.67393 19.1447C7.52348 19.1447 7.37887 19.0864 7.27049 18.982C7.16211 18.8776 7.09838 18.7353 7.09268 18.585V16.26C7.09268 16.2289 7.0949 16.1989 7.09935 16.17C6.31935 16.0742 5.77852 15.8758 5.36768 15.465C4.95685 15.0542 4.75852 14.5133 4.66268 13.7333C4.63282 13.7372 4.60278 13.7394 4.57268 13.74H2.24768C2.09733 13.7343 1.95504 13.6706 1.85068 13.5622C1.74633 13.4538 1.68803 13.3092 1.68803 13.1587C1.68803 13.0083 1.74633 12.8637 1.85068 12.7553C1.95504 12.6469 2.09733 12.5832 2.24768 12.5775H4.58685C4.5773 12.1901 4.57258 11.8025 4.57268 11.415H2.24768C2.09341 11.415 1.94547 11.3537 1.83638 11.2446C1.7273 11.1356 1.66602 10.9876 1.66602 10.8333C1.66602 10.6791 1.7273 10.5311 1.83638 10.422C1.94547 10.3129 2.09341 10.2517 2.24768 10.2517H4.57268C4.57324 9.82722 4.57796 9.43972 4.58685 9.08917H2.24768C2.09733 9.08347 1.95504 9.01974 1.85068 8.91136C1.74633 8.80298 1.68803 8.65837 1.68803 8.50792C1.68803 8.35746 1.74633 8.21286 1.85068 8.10447C1.95504 7.99609 2.09733 7.93236 2.24768 7.92667H4.57268C4.60379 7.92667 4.63379 7.92889 4.66268 7.93333C4.75852 7.15333 4.95685 6.6125 5.36768 6.20167C5.77852 5.79083 6.31935 5.5925 7.09935 5.49667C7.0955 5.46681 7.09328 5.43676 7.09268 5.40667V3.08167C7.09838 2.93132 7.16211 2.78902 7.27049 2.68467C7.37887 2.58031 7.52348 2.52201 7.67393 2.52201C7.82439 2.52201 7.96899 2.58031 8.07737 2.68467C8.18576 2.78902 8.24949 2.93132 8.25518 3.08167V5.42083C8.60518 5.41139 8.99268 5.40667 9.41768 5.40667V3.08167C9.41768 2.76 9.67852 2.5 9.99935 2.5ZM9.18602 7.15083C8.67018 7.15083 8.22602 7.15083 7.87102 7.19917C7.48935 7.25 7.12435 7.36583 6.82768 7.66167C6.53185 7.95833 6.41602 8.32333 6.36518 8.705C6.31685 9.06083 6.31685 9.505 6.31685 10.02V11.6467C6.31685 12.1625 6.31685 12.6058 6.36518 12.9617C6.41602 13.3433 6.53185 13.7083 6.82768 14.005C7.12435 14.3008 7.48935 14.4167 7.87102 14.4675C8.22602 14.5158 8.67102 14.5158 9.18602 14.5158H10.8127C11.3285 14.5158 11.7718 14.5158 12.1277 14.4675C12.5093 14.4167 12.8743 14.3008 13.171 14.005C13.4668 13.7083 13.5827 13.3433 13.6335 12.9617C13.6818 12.6058 13.6818 12.1617 13.6818 11.6467V10.02C13.6818 9.50417 13.6818 9.06083 13.6335 8.705C13.5827 8.32333 13.4668 7.95833 13.171 7.66167C12.8743 7.36583 12.5093 7.25 12.1277 7.19917C11.7718 7.15083 11.3277 7.15083 10.8127 7.15083H9.18602Z" fill="#7B8293"/>
</svg>
