<svg width="13" height="14" viewBox="0 0 13 14" fill="none" xmlns="http://www.w3.org/2000/svg">
<path opacity="0.5" d="M11.9163 7.00004C11.9163 9.99166 9.4913 12.4167 6.49967 12.4167C3.50805 12.4167 1.08301 9.99166 1.08301 7.00004C1.08301 4.00842 3.50805 1.58337 6.49967 1.58337C9.4913 1.58337 11.9163 4.00842 11.9163 7.00004Z" fill="#7B8293"/>
<path d="M4.85904 5.35879C4.93522 5.28272 5.03847 5.23998 5.14613 5.23998C5.25378 5.23998 5.35704 5.28272 5.43321 5.35879L6.50029 6.42588L7.56738 5.35879C7.60457 5.31888 7.64942 5.28687 7.69925 5.26466C7.74909 5.24246 7.80288 5.23052 7.85743 5.22956C7.91197 5.22859 7.96616 5.23863 8.01674 5.25906C8.06733 5.27949 8.11328 5.3099 8.15186 5.34848C8.19043 5.38706 8.22084 5.43301 8.24128 5.48359C8.26171 5.53418 8.27174 5.58836 8.27078 5.64291C8.26982 5.69746 8.25788 5.75125 8.23568 5.80108C8.21347 5.85092 8.18146 5.89577 8.14154 5.93296L7.07446 7.00004L8.14154 8.06713C8.2133 8.14414 8.25237 8.246 8.25051 8.35124C8.24866 8.45649 8.20602 8.55691 8.13159 8.63134C8.05716 8.70577 7.95674 8.74841 7.85149 8.75026C7.74625 8.75212 7.64439 8.71305 7.56738 8.64129L6.50029 7.57421L5.43321 8.64129C5.3562 8.71305 5.25434 8.75212 5.14909 8.75026C5.04385 8.74841 4.94343 8.70577 4.869 8.63134C4.79457 8.55691 4.75193 8.45649 4.75007 8.35124C4.74822 8.246 4.78728 8.14414 4.85904 8.06713L5.92613 7.00004L4.85904 5.93296C4.78297 5.85679 4.74023 5.75353 4.74023 5.64588C4.74023 5.53822 4.78297 5.43496 4.85904 5.35879Z" fill="#D0DEFF"/>
</svg>
