<svg width="20" height="20" viewBox="0 0 20 20" fill="none" xmlns="http://www.w3.org/2000/svg">
<path d="M16.667 2.5C17.109 2.5 17.5329 2.67559 17.8455 2.98816C18.1581 3.30072 18.3337 3.72464 18.3337 4.16667V15.8333C18.3337 16.2754 18.1581 16.6993 17.8455 17.0118C17.5329 17.3244 17.109 17.5 16.667 17.5H3.33366C2.89163 17.5 2.46771 17.3244 2.15515 17.0118C1.84259 16.6993 1.66699 16.2754 1.66699 15.8333V4.16667C1.66699 3.72464 1.84259 3.30072 2.15515 2.98816C2.46771 2.67559 2.89163 2.5 3.33366 2.5H16.667ZM16.667 4.16667H3.33366V12.5833L7.49616 8.42167C7.59289 8.32491 7.70774 8.24816 7.83413 8.19579C7.96053 8.14343 8.09601 8.11647 8.23283 8.11647C8.36964 8.11647 8.50512 8.14343 8.63152 8.19579C8.75792 8.24816 8.87276 8.32491 8.96949 8.42167L12.357 11.81L13.3887 10.7783C13.4854 10.6816 13.6002 10.6048 13.7266 10.5525C13.853 10.5001 13.9885 10.4731 14.1253 10.4731C14.2621 10.4731 14.3976 10.5001 14.524 10.5525C14.6504 10.6048 14.7653 10.6816 14.862 10.7783L16.667 12.5842V4.16667ZM12.917 5.83333C13.2485 5.83333 13.5665 5.96503 13.8009 6.19945C14.0353 6.43387 14.167 6.75181 14.167 7.08333C14.167 7.41485 14.0353 7.7328 13.8009 7.96722C13.5665 8.20164 13.2485 8.33333 12.917 8.33333C12.5855 8.33333 12.2675 8.20164 12.0331 7.96722C11.7987 7.7328 11.667 7.41485 11.667 7.08333C11.667 6.75181 11.7987 6.43387 12.0331 6.19945C12.2675 5.96503 12.5855 5.83333 12.917 5.83333Z" fill="#7B8293"/>
</svg>
