<svg width="20" height="20" viewBox="0 0 20 20" fill="none" xmlns="http://www.w3.org/2000/svg">
<path d="M9.9987 18.2501C9.90148 18.2501 9.8112 18.2431 9.72786 18.2292C9.64453 18.2154 9.5612 18.1945 9.47786 18.1667C7.60286 17.5417 6.10981 16.3856 4.9987 14.6984C3.88759 13.0112 3.33203 11.1951 3.33203 9.25008V5.31258C3.33203 4.96536 3.43286 4.65286 3.63453 4.37508C3.8362 4.0973 4.09648 3.89591 4.41536 3.77091L9.41536 1.89591C9.60981 1.82647 9.80425 1.79175 9.9987 1.79175C10.1931 1.79175 10.3876 1.82647 10.582 1.89591L15.582 3.77091C15.9015 3.89591 16.162 4.0973 16.3637 4.37508C16.5654 4.65286 16.6659 4.96536 16.6654 5.31258V9.25008C16.6654 11.1945 16.1098 13.0106 14.9987 14.6984C13.8876 16.3862 12.3945 17.5423 10.5195 18.1667C10.4362 18.1945 10.3529 18.2154 10.2695 18.2292C10.1862 18.2431 10.0959 18.2501 9.9987 18.2501Z" fill="#7B8293"/>
</svg>
