<svg width="22" height="22" viewBox="0 0 22 22" fill="none" xmlns="http://www.w3.org/2000/svg">
<path d="M2.75 5.98033C2.75 5.61824 3.04975 5.32583 3.41917 5.32583H7.80817C7.81367 4.55399 7.898 3.49708 8.6625 2.76558C9.29225 2.16495 10.1298 1.83093 11 1.83333C11.8702 1.83093 12.7078 2.16495 13.3375 2.76558C14.102 3.49708 14.1863 4.55399 14.1918 5.32583H18.5808C18.9503 5.32583 19.25 5.61916 19.25 5.98033C19.2493 6.06731 19.2314 6.1533 19.1973 6.23334C19.1633 6.31338 19.1137 6.3859 19.0515 6.44672C18.9893 6.50755 18.9157 6.55548 18.835 6.58776C18.7542 6.62004 18.6678 6.63604 18.5808 6.63483H3.41917C3.33219 6.63604 3.24583 6.62004 3.16505 6.58776C3.08427 6.55548 3.01067 6.50755 2.94849 6.44672C2.8863 6.3859 2.83675 6.31338 2.80268 6.23334C2.76862 6.1533 2.75072 6.06731 2.75 5.98033Z" fill="#DE5959"/>
<path opacity="0.5" d="M10.6296 20.1667H11.3702C13.9213 20.1667 15.1964 20.1667 16.0269 19.3545C16.8555 18.5423 16.9399 17.2104 17.1095 14.5466L17.3542 10.7076C17.4459 9.262 17.4917 8.53875 17.0765 8.08133C16.6603 7.623 15.9581 7.623 14.5529 7.623H7.44688C6.04163 7.623 5.33855 7.623 4.9233 8.08133C4.50805 8.53967 4.55297 9.262 4.64555 10.7076L4.8903 14.5466C5.05988 17.2104 5.14422 18.5433 5.9738 19.3545C6.80338 20.1667 8.07847 20.1667 10.6296 20.1667Z" fill="#DE5959"/>
<path fill-rule="evenodd" clip-rule="evenodd" d="M8.63951 10.5252C9.01809 10.4848 9.35451 10.7754 9.39209 11.1733L9.85042 15.9977C9.88801 16.3946 9.61209 16.7493 9.23534 16.7897C8.85767 16.8291 8.52034 16.5394 8.48276 16.1416L8.02442 11.3172C7.98684 10.9193 8.26276 10.5646 8.63951 10.5252ZM13.3603 10.5252C13.738 10.5646 14.0139 10.9193 13.9754 11.3172L13.5171 16.1416C13.4804 16.5394 13.1431 16.8291 12.7654 16.7897C12.3868 16.7493 12.1118 16.3955 12.1494 15.9977L12.6078 11.1723C12.6453 10.7754 12.9827 10.4848 13.3594 10.5243" fill="#DE5959"/>
</svg>
