<svg width="40" height="40" viewBox="0 0 40 40" fill="none" xmlns="http://www.w3.org/2000/svg">
<path d="M36.4997 20C36.4997 19.8167 36.3997 19.6334 36.3497 19.45C36.2725 19.1266 36.1723 18.8091 36.0497 18.5C35.9663 18.3 35.8497 18.1 35.7497 17.8834C35.6497 17.6667 35.4997 17.3834 35.3497 17.15C35.1997 16.9167 34.9997 16.8 34.9997 16.6667C34.9997 16.5334 34.6663 16.25 34.483 16.05C34.2997 15.85 34.133 15.7167 33.9497 15.55L33.333 15L32.733 14.6C32.4975 14.4559 32.2525 14.3278 31.9997 14.2167L31.3497 13.9167C31.0774 13.8159 30.7991 13.7324 30.5163 13.6667C30.2923 13.6008 30.064 13.5507 29.833 13.5167L29.4497 13.3334C28.7696 11.3685 27.494 9.66439 25.8002 8.4583C24.1065 7.25221 22.0789 6.60406 19.9997 6.60406C17.9204 6.60406 15.8928 7.25221 14.1991 8.4583C12.5054 9.66439 11.2297 11.3685 10.5497 13.3334L10.2497 13.4167C10.0187 13.4507 9.79034 13.5008 9.56634 13.5667C9.28357 13.6324 9.00524 13.7159 8.73301 13.8167L8.08301 14.1167C7.83021 14.2278 7.58521 14.3559 7.34967 14.5L6.74968 15L6.13301 15.5167C5.94967 15.6834 5.76634 15.8334 5.59967 16.0167C5.43301 16.2 5.24967 16.4334 5.08301 16.6334C4.91634 16.8334 4.78301 17.0167 4.64967 17.2334C4.51634 17.45 4.38301 17.7167 4.24967 17.9667C4.11634 18.2167 4.03301 18.3834 3.94967 18.5834C3.82708 18.8924 3.72682 19.2099 3.64967 19.5334C3.64967 19.7167 3.53301 19.9 3.49967 20.0834C3.39594 20.6049 3.34015 21.1349 3.33301 21.6667C3.34082 22.1755 3.39099 22.6828 3.48301 23.1834C3.48301 23.35 3.56634 23.5 3.59967 23.6667C3.68205 23.9941 3.7822 24.3168 3.89967 24.6334L4.09967 25.1167C4.24639 25.4381 4.41339 25.7498 4.59967 26.05L4.83301 26.4167C4.85699 26.4634 4.88486 26.508 4.91634 26.55L4.99967 26.6667C5.7759 27.7017 6.78243 28.5417 7.93956 29.1203C9.09669 29.6988 10.3726 30 11.6663 30H16.6663V27.7167C16.1599 28.0105 15.5851 28.1657 14.9997 28.1667C14.0968 28.1583 13.2339 27.7927 12.5997 27.15C12.2952 26.835 12.0557 26.463 11.8951 26.0554C11.7345 25.6478 11.6558 25.2125 11.6635 24.7744C11.6712 24.3363 11.7653 23.9041 11.9402 23.5024C12.1151 23.1007 12.3676 22.7374 12.683 22.4334L17.683 17.6C18.3051 17.0004 19.1357 16.6658 19.9997 16.6667C20.8823 16.6704 21.7274 17.024 22.3497 17.65L27.3497 22.65C27.9705 23.2746 28.319 24.1194 28.319 25C28.319 25.8806 27.9705 26.7255 27.3497 27.35C26.7274 27.976 25.8823 28.3296 24.9997 28.3334C24.4134 28.3389 23.8368 28.1832 23.333 27.8834V30H28.333C29.6267 30 30.9027 29.6988 32.0598 29.1203C33.2169 28.5417 34.2234 27.7017 34.9997 26.6667L35.083 26.5834C35.1145 26.5413 35.1424 26.4967 35.1663 26.45L35.3997 26.0834C35.586 25.7832 35.753 25.4714 35.8997 25.15L36.0997 24.6667C36.2171 24.3502 36.3173 24.0275 36.3997 23.7C36.3997 23.5334 36.483 23.3834 36.5163 23.2167C36.6102 22.7052 36.6604 22.1867 36.6663 21.6667C36.6644 21.1071 36.6086 20.5489 36.4997 20Z" fill="#7B8293"/>
<path d="M21.183 18.8167C20.8715 18.5113 20.4526 18.3403 20.0163 18.3403C19.5801 18.3403 19.1612 18.5113 18.8497 18.8167L13.8497 23.65C13.6728 23.796 13.528 23.9768 13.4242 24.1813C13.3205 24.3857 13.26 24.6094 13.2466 24.8383C13.2332 25.0672 13.2672 25.2964 13.3465 25.5115C13.4257 25.7267 13.5485 25.9232 13.7071 26.0887C13.8658 26.2543 14.0569 26.3853 14.2684 26.4736C14.48 26.5619 14.7076 26.6056 14.9368 26.602C15.1661 26.5984 15.3921 26.5475 15.6008 26.4525C15.8095 26.3575 15.9964 26.2205 16.1497 26.05L18.333 23.9334V33.3334C18.333 33.7754 18.5086 34.1993 18.8212 34.5119C19.1337 34.8244 19.5576 35 19.9997 35C20.4417 35 20.8656 34.8244 21.1782 34.5119C21.4907 34.1993 21.6663 33.7754 21.6663 33.3334V24.0167L23.8163 26.1834C23.9713 26.3396 24.1556 26.4636 24.3587 26.5482C24.5618 26.6328 24.7797 26.6764 24.9997 26.6764C25.2197 26.6764 25.4375 26.6328 25.6406 26.5482C25.8437 26.4636 26.0281 26.3396 26.183 26.1834C26.3392 26.0284 26.4632 25.8441 26.5478 25.641C26.6324 25.4379 26.676 25.22 26.676 25C26.676 24.78 26.6324 24.5622 26.5478 24.3591C26.4632 24.156 26.3392 23.9716 26.183 23.8167L21.183 18.8167Z" fill="#7B8293"/>
</svg>
