<svg width="20" height="20" viewBox="0 0 20 20" fill="none" xmlns="http://www.w3.org/2000/svg">
<path fill-rule="evenodd" clip-rule="evenodd" d="M4.99998 3.75C3.991 3.74986 3.01017 4.08267 2.20962 4.69681C1.40907 5.31094 0.833538 6.17208 0.572302 7.14666C0.311067 8.12124 0.378722 9.15479 0.764776 10.087C1.15083 11.0192 1.8337 11.798 2.70748 12.3025C2.99447 12.4685 3.33564 12.5137 3.65593 12.4281C3.81453 12.3857 3.96323 12.3125 4.09353 12.2127C4.22384 12.1129 4.33321 11.9884 4.4154 11.8462C4.49758 11.7041 4.55098 11.5473 4.57253 11.3845C4.59408 11.2218 4.58336 11.0564 4.541 10.8978C4.49863 10.7392 4.42544 10.5905 4.32561 10.4602C4.22577 10.3299 4.10125 10.2205 3.95915 10.1383C3.56165 9.90924 3.2509 9.55533 3.07511 9.13155C2.89933 8.70777 2.86835 8.23782 2.98698 7.79463C3.10562 7.35144 3.36723 6.95981 3.73121 6.68051C4.09519 6.40122 4.54119 6.24989 4.99998 6.25H9.99998C10.5073 6.24949 10.9974 6.43415 11.3783 6.76932C11.7592 7.10448 12.0047 7.56713 12.0687 8.07043C12.1328 8.57373 12.0109 9.0831 11.7261 9.50296C11.4412 9.92282 11.013 10.2243 10.5217 10.3508C10.2005 10.4335 9.92537 10.6403 9.75675 10.9259C9.58812 11.2114 9.53982 11.5522 9.62248 11.8733C9.70514 12.1945 9.91199 12.4696 10.1975 12.6382C10.483 12.8069 10.8238 12.8552 11.145 12.7725C12.2237 12.4921 13.1633 11.8283 13.7882 10.9054C14.413 9.98241 14.6802 8.86346 14.5399 7.75776C14.3996 6.65206 13.8613 5.63533 13.0258 4.89771C12.1902 4.16009 11.1145 3.75209 9.99998 3.75H4.99998ZM9.47832 9.64917C9.79945 9.56651 10.0746 9.35966 10.2432 9.07414C10.4118 8.78862 10.4601 8.4478 10.3775 8.12667C10.2948 7.80553 10.088 7.53039 9.80246 7.36176C9.51693 7.19314 9.17612 7.14484 8.85498 7.2275C7.77627 7.50792 6.83664 8.17168 6.2118 9.09463C5.58697 10.0176 5.31972 11.1365 5.46004 12.2422C5.60036 13.3479 6.13864 14.3647 6.9742 15.1023C7.80977 15.8399 8.88542 16.2479 9.99998 16.25H15C16.009 16.2501 16.9898 15.9173 17.7903 15.3032C18.5909 14.6891 19.1664 13.8279 19.4277 12.8533C19.6889 11.8788 19.6212 10.8452 19.2352 9.91301C18.8491 8.9808 18.1663 8.20204 17.2925 7.6975C17.0055 7.53152 16.6643 7.48634 16.344 7.5719C16.0237 7.65747 15.7505 7.86676 15.5846 8.15375C15.4186 8.44074 15.3734 8.7819 15.459 9.1022C15.5445 9.4225 15.7538 9.69568 16.0408 9.86167C16.4383 10.0908 16.7491 10.4447 16.9249 10.8684C17.1006 11.2922 17.1316 11.7622 17.013 12.2054C16.8944 12.6486 16.6327 13.0402 16.2688 13.3195C15.9048 13.5988 15.4588 13.7501 15 13.75H9.99998C9.49262 13.7505 9.00252 13.5659 8.62163 13.2307C8.24074 12.8955 7.99525 12.4329 7.93122 11.9296C7.8672 11.4263 7.98904 10.9169 8.27388 10.497C8.55872 10.0772 8.98699 9.7757 9.47832 9.64917Z" fill="#7B8293"/>
</svg>
