<svg width="20" height="20" viewBox="0 0 20 20" fill="none" xmlns="http://www.w3.org/2000/svg">
<path d="M5 3.75C4.33696 3.75 3.70107 4.01339 3.23223 4.48223C2.76339 4.95107 2.5 5.58696 2.5 6.25V11.25C2.5 11.913 2.76339 12.5489 3.23223 13.0178C3.70107 13.4866 4.33696 13.75 5 13.75H10.22C10.0749 13.4273 9.99989 13.0775 10 12.7238V11.25C10 10.8112 10.1155 10.3801 10.335 10C10.5544 9.62 10.87 9.30442 11.25 9.085V7.5C11.25 6.83696 11.5134 6.20107 11.9822 5.73223C12.4511 5.26339 13.087 5 13.75 5H16.25C16.6163 5 16.965 5.07875 17.2787 5.22125C17.0808 4.78275 16.7605 4.41068 16.3563 4.14972C15.952 3.88875 15.4811 3.74996 15 3.75H5ZM5.625 15H11.055L11.875 16.1438V16.25H5.625C5.45924 16.25 5.30027 16.1842 5.18306 16.0669C5.06585 15.9497 5 15.7908 5 15.625C5 15.4592 5.06585 15.3003 5.18306 15.1831C5.30027 15.0658 5.45924 15 5.625 15ZM12.5 7.5V10C12.1685 10 11.8505 10.1317 11.6161 10.3661C11.3817 10.6005 11.25 10.9185 11.25 11.25V12.7238C11.2501 12.9847 11.3318 13.2391 11.4838 13.4513L13.125 15.7425V17.5C13.125 17.8315 13.2567 18.1495 13.4911 18.3839C13.7255 18.6183 14.0435 18.75 14.375 18.75H15.625C15.9565 18.75 16.2745 18.6183 16.5089 18.3839C16.7433 18.1495 16.875 17.8315 16.875 17.5V15.7425L18.5112 13.4925C18.6665 13.2789 18.75 13.0216 18.75 12.7575V11.25C18.75 10.9185 18.6183 10.6005 18.3839 10.3661C18.1495 10.1317 17.8315 10 17.5 10V7.5C17.5 7.16848 17.3683 6.85054 17.1339 6.61612C16.8995 6.3817 16.5815 6.25 16.25 6.25H13.75C13.4185 6.25 13.1005 6.3817 12.8661 6.61612C12.6317 6.85054 12.5 7.16848 12.5 7.5ZM16.25 7.5V10H13.75V7.5H16.25Z" fill="#7B8293"/>
</svg>
