<svg width="24" height="24" viewBox="0 0 24 24" fill="none" xmlns="http://www.w3.org/2000/svg">
<path fill-rule="evenodd" clip-rule="evenodd" d="M17.2918 10.2908C17.5307 8.694 16.3149 7.83562 14.6523 7.263L15.1916 5.09999L13.8748 4.77186L13.3498 6.87787C13.0036 6.79162 12.6481 6.71025 12.2948 6.62962L12.8236 4.50974L11.5076 4.18161L10.9679 6.34386C10.6814 6.27861 10.4001 6.21412 10.1271 6.14625L10.1286 6.13949L8.31262 5.68611L7.96233 7.09237C7.96233 7.09237 8.93931 7.31624 8.91868 7.33012C9.45199 7.46324 9.54837 7.81611 9.53225 8.09587L8.91793 10.56C8.95468 10.5694 9.00232 10.5829 9.05483 10.6039L9.01011 10.5927C8.9796 10.5851 8.94798 10.5771 8.91569 10.5694L8.05458 14.0213C7.98933 14.1833 7.82394 14.4263 7.45115 14.334C7.46428 14.3531 6.49405 14.0951 6.49405 14.0951L5.84035 15.6023L7.55391 16.0294C7.74529 16.0773 7.93436 16.1266 8.12147 16.1754C8.24603 16.2079 8.36972 16.2402 8.49263 16.2716L7.94771 18.4594L9.26297 18.7875L9.80265 16.623C10.1619 16.7205 10.5107 16.8105 10.852 16.8953L10.3142 19.0497L11.631 19.3778L12.1759 17.1941C14.4213 17.619 16.1097 17.4476 16.8204 15.417C17.3931 13.782 16.7919 12.8389 15.6105 12.2239C16.4709 12.0255 17.1189 11.4596 17.2918 10.2908ZM10.9537 12.1403L10.2306 15.0386C10.3043 15.0569 10.3906 15.0797 10.4873 15.1053C11.5617 15.389 13.9099 16.0092 14.2833 14.5091C14.6658 12.9754 12.3884 12.4644 11.2772 12.2151C11.2423 12.2073 11.2083 12.1996 11.1759 12.1923C11.0928 12.1736 11.0181 12.1563 10.9537 12.1403ZM11.94 8.18475L11.2844 10.8135C11.3464 10.8289 11.419 10.8483 11.5004 10.87C12.3962 11.1091 14.3502 11.6305 14.6906 10.2671C15.0381 8.87261 13.139 8.45225 12.2115 8.24695C12.1072 8.22386 12.0152 8.20348 11.94 8.18475Z" fill="#7B8293"/>
</svg>
