<svg width="20" height="20" viewBox="0 0 20 20" fill="none" xmlns="http://www.w3.org/2000/svg">
<path fill-rule="evenodd" clip-rule="evenodd" d="M9.41945 7.24426L9.42048 7.29858L6.72881 11.2089C6.29291 11.189 5.85564 11.2656 5.44038 11.4365C5.2596 11.5099 5.08701 11.6021 4.92542 11.7115L-0.985605 9.27522L-0.985713 9.27704C-0.989925 9.34928 -1.11302 11.5532 -0.552462 13.2024L-0.537894 13.2084L3.62633 14.9267C3.83259 15.8645 4.47887 16.6868 5.42835 17.0821C6.17533 17.3925 7.01496 17.3937 7.76283 17.0855C8.5107 16.7772 9.10566 16.1848 9.41704 15.4382C9.58316 15.0406 9.66329 14.6122 9.65217 14.1814L13.4999 11.4296L13.5945 11.4313C15.8994 11.4313 17.7729 9.5523 17.7729 7.24426C17.7729 4.93623 15.9028 3.06409 13.5945 3.05928C11.2906 3.05928 9.41601 4.93623 9.41601 7.24426H9.41945ZM8.77317 15.168C8.27334 16.3712 6.89416 16.9374 5.69545 16.4379C5.16352 16.2143 4.73235 15.803 4.48403 15.2822L5.8443 15.8459C6.05444 15.9334 6.27975 15.9786 6.50736 15.979C6.73497 15.9793 6.96043 15.9348 7.17084 15.848C7.38125 15.7612 7.5725 15.6338 7.73365 15.4731C7.89481 15.3123 8.02271 15.1214 8.11005 14.9112C8.28691 14.4865 8.28796 14.009 8.11296 13.5835C7.93796 13.158 7.60122 12.8194 7.17673 12.642L5.7673 12.0594C6.30976 11.8531 6.92647 11.8462 7.50331 12.0858C8.0877 12.3275 8.5346 12.7826 8.77386 13.3646C9.01312 13.9466 9.01174 14.5884 8.77042 15.168H8.77317ZM11.6302 9.21452C12.152 9.73727 12.8597 10.0319 13.5982 10.0339C14.3369 10.0321 15.0448 9.73753 15.5667 9.21476C16.0887 8.692 16.3821 7.98366 16.3827 7.24495C16.3819 6.50636 16.0884 5.7982 15.5665 5.27558C15.0446 4.75297 14.3368 4.4585 13.5982 4.45668C12.8598 4.45868 12.1522 4.75323 11.6304 5.27583C11.1087 5.79842 10.8153 6.50648 10.8144 7.24495C10.8151 7.98354 11.1084 8.69177 11.6302 9.21452Z" fill="#7B8293"/>
<path d="M11.5123 7.24048C11.5118 6.68554 11.7317 6.15312 12.1236 5.76024C12.5156 5.36736 13.0474 5.14615 13.6024 5.14524C14.7557 5.14524 15.6938 6.08372 15.6938 7.24048C15.6941 7.79554 15.4739 8.32799 15.0817 8.72076C14.6895 9.11354 14.1574 9.33449 13.6024 9.33504C13.0475 9.33422 12.5156 9.11315 12.1237 8.7204C11.7317 8.32765 11.512 7.79536 11.5123 7.24048Z" fill="#7B8293"/>
</svg>
