<svg width="20" height="20" viewBox="0 0 20 20" fill="none" xmlns="http://www.w3.org/2000/svg">
<path d="M16.2381 6.72862C16.431 6.49712 16.3997 6.15305 16.1682 5.96013C15.9367 5.76721 15.5926 5.79849 15.3997 6.02999L11.4778 10.7362C10.6901 11.6816 10.1359 12.3445 9.6552 12.7786C9.18573 13.2025 8.86174 13.3373 8.54362 13.3373C8.2255 13.3373 7.90151 13.2025 7.43205 12.7786C6.95137 12.3445 6.39719 11.6816 5.6094 10.7362L4.59765 9.52212C4.40473 9.29061 4.06066 9.25933 3.82916 9.45225C3.59765 9.64517 3.56637 9.98924 3.75929 10.2207L4.79912 11.4685C5.55231 12.3724 6.15549 13.0962 6.70067 13.5885C7.26382 14.097 7.83948 14.4285 8.54362 14.4285C9.24777 14.4285 9.82343 14.097 10.3866 13.5885C10.9318 13.0962 11.5349 12.3724 12.2881 11.4686L16.2381 6.72862Z" fill="#79CA6D"/>
</svg>
