<svg width="20" height="20" viewBox="0 0 20 20" fill="none" xmlns="http://www.w3.org/2000/svg">
<path d="M15.8281 3.86804C15.3171 3.70696 14.7428 3.62875 14.0793 3.58781C13.321 3.54101 12.3994 3.54101 11.2687 3.54102H8.71663C7.38047 3.54101 6.333 3.54101 5.49618 3.62057C4.64322 3.70167 3.94481 3.86982 3.32912 4.24711C2.68438 4.64222 2.14229 5.1843 1.74719 5.82904C1.7332 5.85188 1.71949 5.87484 1.70606 5.89791C1.77047 4.69529 1.93871 3.89879 2.37814 3.26824C2.60809 2.93826 2.88644 2.64808 3.20295 2.40834C4.18298 1.66602 5.58099 1.66602 8.37699 1.66602H12.8509C14.2569 1.66602 14.9599 1.66602 15.3967 2.12139C15.7322 2.47113 15.81 2.98458 15.8281 3.86804Z" fill="#7B8293"/>
<path d="M2.28002 6.1556C1.66602 7.15756 1.66602 8.52149 1.66602 11.2493C1.66602 13.9772 1.66602 15.3411 2.28002 16.3431C2.62358 16.9037 3.09496 17.3751 3.6556 17.7187C4.65756 18.3327 6.02149 18.3327 8.74935 18.3327H11.2493C13.9772 18.3327 15.3411 18.3327 16.3431 17.7187C16.9037 17.3751 17.3751 16.9037 17.7187 16.3431C18.1219 15.6851 18.2603 14.8709 18.3079 13.6168H13.0297C11.4294 13.6168 10.132 12.3194 10.132 10.7191C10.132 9.11869 11.4294 7.82133 13.0297 7.82133H18.2308C18.1472 7.13162 17.9952 6.6069 17.7187 6.1556C17.3751 5.59496 16.9037 5.12358 16.3431 4.78001C16.1835 4.68221 16.0147 4.59999 15.8327 4.53086C14.872 4.16602 13.5427 4.16602 11.2493 4.16602H8.74935C6.02149 4.16602 4.65756 4.16602 3.6556 4.78001C3.09496 5.12358 2.62358 5.59496 2.28002 6.1556Z" fill="#7B8293"/>
<path fill-rule="evenodd" clip-rule="evenodd" d="M18.3143 9.07133H13.0297C12.1197 9.07133 11.382 9.80905 11.382 10.7191C11.382 11.6291 12.1197 12.3668 13.0297 12.3668H18.3307C18.3327 12.0216 18.3327 11.6502 18.3327 11.2493C18.3327 10.4017 18.3327 9.68567 18.3143 9.07133ZM13.0297 10.0941C12.6845 10.0941 12.4047 10.3739 12.4047 10.7191C12.4047 11.0642 12.6845 11.3441 13.0297 11.3441H15.3025C15.6476 11.3441 15.9275 11.0642 15.9275 10.7191C15.9275 10.3739 15.6476 10.0941 15.3025 10.0941H13.0297Z" fill="#7B8293"/>
</svg>
