<svg width="96" height="96" viewBox="0 0 96 96" fill="none" xmlns="http://www.w3.org/2000/svg">
<path d="M42.1213 22.5355L45 25.4142L45 11C45 9.34314 46.3431 8 48 8C49.6569 8 51 9.34314 51 11L51 25.4142L53.8787 22.5355C55.0503 21.364 56.9497 21.364 58.1213 22.5355C59.2929 23.7071 59.2929 25.6066 58.1213 26.7782L52.9497 31.9497C50.2161 34.6834 45.7839 34.6834 43.0503 31.9497L37.8787 26.7782C36.7071 25.6066 36.7071 23.7071 37.8787 22.5355C39.0503 21.364 40.9497 21.364 42.1213 22.5355Z" fill="#E9E3F6"/>
<path d="M24 43C19.5817 43 16 46.5817 16 51C16 55.4183 19.5817 59 24 59C19.5817 59 16 62.5817 16 67C16 71.4183 19.5817 75 24 75H42C42 63.9408 50.1544 54.7968 60.7802 53.2347C61.8343 53.0798 62.9097 53 64 53C65.2481 53 66.472 53.1039 67.6634 53.3036C67.8823 52.5741 68 51.8008 68 51C68 46.5817 64.4183 43 60 43H24Z" fill="url(#paint0_linear_1_6719)"/>
<path d="M80 75C80 66.1634 72.8366 59 64 59C63.2026 59 62.4189 59.0583 61.6528 59.1709C53.929 60.3064 48 66.9608 48 75C48 83.8366 55.1634 91 64 91C72.8366 91 80 83.8366 80 75Z" fill="url(#paint1_linear_1_6719)"/>
<defs>
<linearGradient id="paint0_linear_1_6719" x1="6" y1="35.5" x2="53.5" y2="71" gradientUnits="userSpaceOnUse">
<stop stop-color="#E9E3F6"/>
<stop offset="1" stop-color="#8B6DCA"/>
</linearGradient>
<linearGradient id="paint1_linear_1_6719" x1="45" y1="56" x2="80" y2="85.5" gradientUnits="userSpaceOnUse">
<stop stop-color="#E9E3F6"/>
<stop offset="0.744398" stop-color="#8B6DCA"/>
</linearGradient>
</defs>
</svg>
