<svg width="64" height="64" viewBox="0 0 64 64" fill="none" xmlns="http://www.w3.org/2000/svg">
<g clip-path="url(#clip0_1_6826)">
<rect width="64" height="64" rx="10.6667" fill="#8B6DCA" fill-opacity="0.07"/>
<path fill-rule="evenodd" clip-rule="evenodd" d="M18.3024 18.4249C18.1685 17.8891 17.6255 17.5634 17.0897 17.6973C16.5539 17.8313 16.2282 18.3742 16.3621 18.91L17.7645 24.5193L19.0695 29.9646C19.6245 32.2801 20.0613 34.1026 20.5796 35.5185C21.1113 36.9708 21.7633 38.0983 22.8094 38.9629C22.8996 39.0375 22.9916 39.1101 23.0852 39.1805C24.1698 39.9963 25.4183 40.3675 26.9545 40.5461C28.4522 40.7201 30.3263 40.7201 32.7073 40.7201H33.4985C35.5585 40.7201 37.1802 40.7201 38.4867 40.588C39.8248 40.4527 40.9258 40.1719 41.9166 39.5515C42.3866 39.2572 42.8233 38.9129 43.219 38.5244C44.0532 37.7055 44.5829 36.7002 45.0264 35.4305C45.4593 34.1908 45.8373 32.6138 46.3174 30.6105L46.3453 30.4942C46.6348 29.2863 46.8734 28.2907 46.9656 27.4842C47.0613 26.6471 47.0223 25.8501 46.6044 25.1224C46.4257 24.8112 46.2023 24.5278 45.9412 24.2815C45.331 23.7056 44.565 23.4818 43.7287 23.3798C42.9229 23.2815 41.8992 23.2815 40.657 23.2815L19.5166 23.2815L18.3024 18.4249ZM28.3323 34.6675C28.3323 34.1152 28.78 33.6675 29.3323 33.6675H37.3323C37.8846 33.6675 38.3323 34.1152 38.3323 34.6675C38.3323 35.2198 37.8846 35.6675 37.3323 35.6675H29.3323C28.78 35.6675 28.3323 35.2198 28.3323 34.6675Z" fill="#8B6DCA"/>
<path d="M28.5603 45.3341C29.3355 45.3341 29.9638 44.7058 29.9638 43.9306C29.9638 43.1555 29.3355 42.5271 28.5603 42.5271C27.7852 42.5271 27.1568 43.1555 27.1568 43.9306C27.1568 44.7058 27.7852 45.3341 28.5603 45.3341Z" fill="#8B6DCA"/>
<path d="M36.9814 45.3341C37.7565 45.3341 38.3849 44.7058 38.3849 43.9306C38.3849 43.1555 37.7565 42.5271 36.9814 42.5271C36.2062 42.5271 35.5779 43.1555 35.5779 43.9306C35.5779 44.7058 36.2062 45.3341 36.9814 45.3341Z" fill="#8B6DCA"/>
<g filter="url(#filter0_f_1_6826)">
<ellipse cx="32" cy="79.4998" rx="29" ry="24.0887" fill="#8B6DCA"/>
</g>
</g>
<rect x="1" y="1" width="62" height="62" rx="9.66667" stroke="url(#paint0_linear_1_6826)" stroke-width="2"/>
<defs>
<filter id="filter0_f_1_6826" x="-26.0764" y="26.3347" width="116.153" height="106.33" filterUnits="userSpaceOnUse" color-interpolation-filters="sRGB">
<feFlood flood-opacity="0" result="BackgroundImageFix"/>
<feBlend mode="normal" in="SourceGraphic" in2="BackgroundImageFix" result="shape"/>
<feGaussianBlur stdDeviation="14.5382" result="effect1_foregroundBlur_1_6826"/>
</filter>
<linearGradient id="paint0_linear_1_6826" x1="26" y1="-5.07597e-06" x2="61.0958" y2="30.3081" gradientUnits="userSpaceOnUse">
<stop stop-color="#8B6DCA"/>
<stop offset="0.246947" stop-color="#8B6DCA" stop-opacity="0"/>
<stop offset="0.798736" stop-color="#8B6DCA" stop-opacity="0"/>
<stop offset="1" stop-color="#8B6DCA"/>
</linearGradient>
<clipPath id="clip0_1_6826">
<rect width="64" height="64" rx="10.6667" fill="white"/>
</clipPath>
</defs>
</svg>
