<svg width="96" height="96" viewBox="0 0 96 96" fill="none" xmlns="http://www.w3.org/2000/svg">
<path fill-rule="evenodd" clip-rule="evenodd" d="M66.3628 77.5204C57.6145 82.9334 46.8356 78.5334 41.7528 73.4441C33.0147 64.695 33.0147 50.51 41.7528 41.761C50.4908 33.0119 64.658 33.0119 73.3961 41.761C78.6954 47.0669 82.8937 57.6628 77.4689 66.403C77.1685 66.887 77.0182 67.1291 76.9448 67.3138C76.8047 67.6659 76.7636 67.9362 76.7925 68.3141C76.8077 68.5123 76.8657 68.7363 76.9816 69.1842C77.7111 72.002 78.0758 73.411 77.8695 74.4261C77.5114 76.1878 76.1363 77.5646 74.3768 77.9232C73.363 78.1298 71.9559 77.7646 69.1415 77.0342C68.6943 76.9182 68.4706 76.8601 68.2733 76.8448C67.8959 76.8156 67.629 76.856 67.2771 76.9955C67.093 77.0685 66.8496 77.2191 66.3628 77.5204ZM51.2002 57.6005C51.2002 59.3679 49.7674 60.8006 48 60.8006C46.2326 60.8006 44.7998 59.3679 44.7998 57.6005C44.7998 55.833 46.2326 54.4003 48 54.4003C49.7674 54.4003 51.2002 55.833 51.2002 57.6005ZM60.8007 57.6005C60.8007 59.3679 59.3679 60.8006 57.6005 60.8006C55.8331 60.8006 54.4003 59.3679 54.4003 57.6005C54.4003 55.833 55.8331 54.4003 57.6005 54.4003C59.3679 54.4003 60.8007 55.833 60.8007 57.6005ZM67.2011 60.8006C68.9685 60.8006 70.4013 59.3679 70.4013 57.6005C70.4013 55.833 68.9685 54.4003 67.2011 54.4003C65.4337 54.4003 64.0009 55.833 64.0009 57.6005C64.0009 59.3679 65.4337 60.8006 67.2011 60.8006Z" fill="#E9E3F6"/>
<path d="M69.054 34.7175C59.4703 29.8951 47.4894 31.4886 39.49 39.4982C31.6884 47.3096 29.9816 58.9126 34.3696 68.383C33.7603 68.0875 33.1571 67.7565 32.5617 67.3881C31.9705 67.0223 31.675 66.8394 31.4515 66.7508C31.0241 66.5814 30.7001 66.5323 30.2418 66.5678C30.0022 66.5863 29.7307 66.6568 29.1877 66.7977C25.7703 67.6846 24.0614 68.1281 22.8304 67.8772C20.6938 67.4418 19.024 65.77 18.5892 63.6307C18.3387 62.3982 18.7816 60.6873 19.6673 57.2656C19.8081 56.7217 19.8785 56.4497 19.897 56.209C19.9321 55.7502 19.8822 55.4219 19.7121 54.9944C19.6229 54.7701 19.4405 54.4762 19.0757 53.8884C12.4885 43.2753 17.5864 30.4089 24.0213 23.9659C34.6318 13.3421 51.8348 13.3421 62.4453 23.9659C65.5661 27.0907 67.769 30.7865 69.054 34.7175Z" fill="url(#paint0_linear_1_6761)"/>
<defs>
<linearGradient id="paint0_linear_1_6761" x1="54.002" y1="42" x2="41.002" y2="5.5" gradientUnits="userSpaceOnUse">
<stop offset="0.109714" stop-color="#8B6DCA"/>
<stop offset="1" stop-color="#E9E3F6"/>
</linearGradient>
</defs>
</svg>
