<svg width="64" height="64" viewBox="0 0 64 64" fill="none" xmlns="http://www.w3.org/2000/svg">
<g clip-path="url(#clip0_1_6835)">
<rect width="64" height="64" rx="10.6667" fill="#8B6DCA" fill-opacity="0.07"/>
<path fill-rule="evenodd" clip-rule="evenodd" d="M25.0295 21.3896C25.0295 19.3339 26.696 17.6674 28.7518 17.6674H35.6398C37.4807 17.6674 38.9731 19.1597 38.9731 21.0007C38.9731 21.7371 39.5701 22.334 40.3064 22.334H41.0922C43.2053 22.334 45.0639 23.974 44.9778 26.2215C44.8674 29.1029 44.3077 33.7248 42.0633 37.8151C41.4549 38.9238 40.6424 40.013 39.7641 41.0278L39.6979 41.1042C38.4344 42.5642 37.3808 43.7815 36.2482 44.6113C35.0299 45.5038 33.7297 45.9483 32.0013 45.9483C30.2729 45.9483 28.9727 45.5038 27.7544 44.6113C26.6218 43.7815 25.5683 42.5642 24.3047 41.1042L24.2386 41.0278C23.3602 40.013 22.5477 38.9238 21.9393 37.8151C19.7671 33.8564 19.1716 29.6774 19.0362 26.996C18.9222 24.7377 20.7941 23.1118 22.8955 23.1118H23.3073C24.2585 23.1118 25.0295 22.3407 25.0295 21.3896ZM36.7799 29.9615C37.1264 29.5314 37.0587 28.9019 36.6287 28.5554C36.1986 28.2088 35.5691 28.2765 35.2225 28.7066L32.5272 32.0516C31.9738 32.7385 31.6246 33.168 31.3339 33.4394C31.1974 33.567 31.1101 33.6237 31.06 33.6488C31.0227 33.6675 31.0093 33.6674 31.0022 33.6674H31.0003C30.9931 33.6674 30.9798 33.6675 30.9424 33.6488C30.8923 33.6237 30.8051 33.567 30.6685 33.4394C30.3779 33.168 30.0287 32.7385 29.4752 32.0516L28.7799 31.1887C28.4334 30.7586 27.8038 30.6909 27.3738 31.0375C26.9437 31.384 26.876 32.0135 27.2225 32.4436L27.9613 33.3604C28.458 33.9769 28.8962 34.5208 29.3034 34.9011C29.7406 35.3095 30.2842 35.6674 31.0012 35.6674C31.7182 35.6674 32.2618 35.3095 32.699 34.9011C33.1062 34.5208 33.5444 33.9769 34.0411 33.3604L36.7799 29.9615Z" fill="#8B6DCA"/>
<g filter="url(#filter0_f_1_6835)">
<ellipse cx="32" cy="79.4998" rx="29" ry="24.0887" fill="#8B6DCA"/>
</g>
</g>
<rect x="1" y="1" width="62" height="62" rx="9.66667" stroke="url(#paint0_linear_1_6835)" stroke-width="2"/>
<defs>
<filter id="filter0_f_1_6835" x="-26.0764" y="26.3347" width="116.153" height="106.33" filterUnits="userSpaceOnUse" color-interpolation-filters="sRGB">
<feFlood flood-opacity="0" result="BackgroundImageFix"/>
<feBlend mode="normal" in="SourceGraphic" in2="BackgroundImageFix" result="shape"/>
<feGaussianBlur stdDeviation="14.5382" result="effect1_foregroundBlur_1_6835"/>
</filter>
<linearGradient id="paint0_linear_1_6835" x1="26" y1="-5.07597e-06" x2="61.0958" y2="30.3081" gradientUnits="userSpaceOnUse">
<stop stop-color="#8B6DCA"/>
<stop offset="0.246947" stop-color="#8B6DCA" stop-opacity="0"/>
<stop offset="0.798736" stop-color="#8B6DCA" stop-opacity="0"/>
<stop offset="1" stop-color="#8B6DCA"/>
</linearGradient>
<clipPath id="clip0_1_6835">
<rect width="64" height="64" rx="10.6667" fill="white"/>
</clipPath>
</defs>
</svg>
